G04 #@! TF.GenerationSoftware,KiCad,Pcbnew,(5.0.0-3-g5ebb6b6)*
G04 #@! TF.CreationDate,2018-11-17T18:38:13+08:00*
G04 #@! TF.ProjectId,M1DKv1-A3P060,4D31444B76312D4133503036302E6B69,rev?*
G04 #@! TF.SameCoordinates,Original*
G04 #@! TF.FileFunction,Legend,Bot*
G04 #@! TF.FilePolarity,Positive*
%FSLAX46Y46*%
G04 Gerber Fmt 4.6, Leading zero omitted, Abs format (unit mm)*
G04 Created by KiCad (PCBNEW (5.0.0-3-g5ebb6b6)) date 2018 November 17, Saturday 18:38:13*
%MOMM*%
%LPD*%
G01*
G04 APERTURE LIST*
%ADD10C,0.100000*%
%ADD11C,0.150000*%
%ADD12O,1.727200X2.032000*%
%ADD13C,4.064000*%
%ADD14R,1.700000X1.700000*%
%ADD15O,1.700000X1.700000*%
%ADD16R,1.727200X1.727200*%
%ADD17O,1.727200X1.727200*%
%ADD18C,1.450000*%
%ADD19O,1.900000X1.200000*%
%ADD20C,2.000000*%
%ADD21O,4.000000X1.800000*%
%ADD22O,1.800000X4.000000*%
%ADD23R,1.800000X4.400000*%
G04 APERTURE END LIST*
D10*
X138531571Y-96881904D02*
X138531571Y-96081904D01*
X138264904Y-96653333D01*
X137998238Y-96081904D01*
X137998238Y-96881904D01*
X137160142Y-96805714D02*
X137198238Y-96843809D01*
X137312523Y-96881904D01*
X137388714Y-96881904D01*
X137503000Y-96843809D01*
X137579190Y-96767619D01*
X137617285Y-96691428D01*
X137655380Y-96539047D01*
X137655380Y-96424761D01*
X137617285Y-96272380D01*
X137579190Y-96196190D01*
X137503000Y-96120000D01*
X137388714Y-96081904D01*
X137312523Y-96081904D01*
X137198238Y-96120000D01*
X137160142Y-96158095D01*
X136817285Y-96081904D02*
X136817285Y-96729523D01*
X136779190Y-96805714D01*
X136741095Y-96843809D01*
X136664904Y-96881904D01*
X136512523Y-96881904D01*
X136436333Y-96843809D01*
X136398238Y-96805714D01*
X136360142Y-96729523D01*
X136360142Y-96081904D01*
X135979190Y-96577142D02*
X135369666Y-96577142D01*
X134722047Y-96462857D02*
X134988714Y-96462857D01*
X134988714Y-96881904D02*
X134988714Y-96081904D01*
X134607761Y-96081904D01*
X134303000Y-96881904D02*
X134303000Y-96081904D01*
X133998238Y-96081904D01*
X133922047Y-96120000D01*
X133883952Y-96158095D01*
X133845857Y-96234285D01*
X133845857Y-96348571D01*
X133883952Y-96424761D01*
X133922047Y-96462857D01*
X133998238Y-96500952D01*
X134303000Y-96500952D01*
X133083952Y-96120000D02*
X133160142Y-96081904D01*
X133274428Y-96081904D01*
X133388714Y-96120000D01*
X133464904Y-96196190D01*
X133503000Y-96272380D01*
X133541095Y-96424761D01*
X133541095Y-96539047D01*
X133503000Y-96691428D01*
X133464904Y-96767619D01*
X133388714Y-96843809D01*
X133274428Y-96881904D01*
X133198238Y-96881904D01*
X133083952Y-96843809D01*
X133045857Y-96805714D01*
X133045857Y-96539047D01*
X133198238Y-96539047D01*
X132741095Y-96653333D02*
X132360142Y-96653333D01*
X132817285Y-96881904D02*
X132550619Y-96081904D01*
X132283952Y-96881904D01*
X131407761Y-96881904D02*
X131407761Y-96081904D01*
X131026809Y-96348571D02*
X131026809Y-96881904D01*
X131026809Y-96424761D02*
X130988714Y-96386666D01*
X130912523Y-96348571D01*
X130798238Y-96348571D01*
X130722047Y-96386666D01*
X130683952Y-96462857D01*
X130683952Y-96881904D01*
X130417285Y-96348571D02*
X130112523Y-96348571D01*
X130303000Y-96081904D02*
X130303000Y-96767619D01*
X130264904Y-96843809D01*
X130188714Y-96881904D01*
X130112523Y-96881904D01*
X129541095Y-96843809D02*
X129617285Y-96881904D01*
X129769666Y-96881904D01*
X129845857Y-96843809D01*
X129883952Y-96767619D01*
X129883952Y-96462857D01*
X129845857Y-96386666D01*
X129769666Y-96348571D01*
X129617285Y-96348571D01*
X129541095Y-96386666D01*
X129503000Y-96462857D01*
X129503000Y-96539047D01*
X129883952Y-96615238D01*
X129160142Y-96881904D02*
X129160142Y-96348571D01*
X129160142Y-96500952D02*
X129122047Y-96424761D01*
X129083952Y-96386666D01*
X129007761Y-96348571D01*
X128931571Y-96348571D01*
X128779190Y-96348571D02*
X128474428Y-96348571D01*
X128664904Y-96881904D02*
X128664904Y-96196190D01*
X128626809Y-96120000D01*
X128550619Y-96081904D01*
X128474428Y-96081904D01*
X127864904Y-96881904D02*
X127864904Y-96462857D01*
X127903000Y-96386666D01*
X127979190Y-96348571D01*
X128131571Y-96348571D01*
X128207761Y-96386666D01*
X127864904Y-96843809D02*
X127941095Y-96881904D01*
X128131571Y-96881904D01*
X128207761Y-96843809D01*
X128245857Y-96767619D01*
X128245857Y-96691428D01*
X128207761Y-96615238D01*
X128131571Y-96577142D01*
X127941095Y-96577142D01*
X127864904Y-96539047D01*
X127141095Y-96843809D02*
X127217285Y-96881904D01*
X127369666Y-96881904D01*
X127445857Y-96843809D01*
X127483952Y-96805714D01*
X127522047Y-96729523D01*
X127522047Y-96500952D01*
X127483952Y-96424761D01*
X127445857Y-96386666D01*
X127369666Y-96348571D01*
X127217285Y-96348571D01*
X127141095Y-96386666D01*
X126493476Y-96843809D02*
X126569666Y-96881904D01*
X126722047Y-96881904D01*
X126798238Y-96843809D01*
X126836333Y-96767619D01*
X126836333Y-96462857D01*
X126798238Y-96386666D01*
X126722047Y-96348571D01*
X126569666Y-96348571D01*
X126493476Y-96386666D01*
X126455380Y-96462857D01*
X126455380Y-96539047D01*
X126836333Y-96615238D01*
D11*
X126238000Y-97155000D02*
X147193000Y-97155000D01*
D10*
X147064904Y-98771904D02*
X147522047Y-98771904D01*
X147293476Y-98771904D02*
X147293476Y-97971904D01*
X147369666Y-98086190D01*
X147445857Y-98162380D01*
X147522047Y-98200476D01*
X146569666Y-97971904D02*
X146493476Y-97971904D01*
X146417285Y-98010000D01*
X146379190Y-98048095D01*
X146341095Y-98124285D01*
X146303000Y-98276666D01*
X146303000Y-98467142D01*
X146341095Y-98619523D01*
X146379190Y-98695714D01*
X146417285Y-98733809D01*
X146493476Y-98771904D01*
X146569666Y-98771904D01*
X146645857Y-98733809D01*
X146683952Y-98695714D01*
X146722047Y-98619523D01*
X146760142Y-98467142D01*
X146760142Y-98276666D01*
X146722047Y-98124285D01*
X146683952Y-98048095D01*
X146645857Y-98010000D01*
X146569666Y-97971904D01*
X145960142Y-98352857D02*
X145350619Y-98352857D01*
X145350619Y-98581428D02*
X145960142Y-98581428D01*
X144512523Y-98771904D02*
X144779190Y-98390952D01*
X144969666Y-98771904D02*
X144969666Y-97971904D01*
X144664904Y-97971904D01*
X144588714Y-98010000D01*
X144550619Y-98048095D01*
X144512523Y-98124285D01*
X144512523Y-98238571D01*
X144550619Y-98314761D01*
X144588714Y-98352857D01*
X144664904Y-98390952D01*
X144969666Y-98390952D01*
X144245857Y-98771904D02*
X143826809Y-98238571D01*
X144245857Y-98238571D02*
X143826809Y-98771904D01*
X143522047Y-98771904D02*
X143522047Y-97971904D01*
X143331571Y-97971904D01*
X143217285Y-98010000D01*
X143141095Y-98086190D01*
X143103000Y-98162380D01*
X143064904Y-98314761D01*
X143064904Y-98429047D01*
X143103000Y-98581428D01*
X143141095Y-98657619D01*
X143217285Y-98733809D01*
X143331571Y-98771904D01*
X143522047Y-98771904D01*
X141693476Y-98771904D02*
X142150619Y-98771904D01*
X141922047Y-98771904D02*
X141922047Y-97971904D01*
X141998238Y-98086190D01*
X142074428Y-98162380D01*
X142150619Y-98200476D01*
X140931571Y-98771904D02*
X141388714Y-98771904D01*
X141160142Y-98771904D02*
X141160142Y-97971904D01*
X141236333Y-98086190D01*
X141312523Y-98162380D01*
X141388714Y-98200476D01*
X140588714Y-98352857D02*
X139979190Y-98352857D01*
X139979190Y-98581428D02*
X140588714Y-98581428D01*
X139712523Y-97971904D02*
X139255380Y-97971904D01*
X139483952Y-98771904D02*
X139483952Y-97971904D01*
X139064904Y-98771904D02*
X138645857Y-98238571D01*
X139064904Y-98238571D02*
X138645857Y-98771904D01*
X138341095Y-98771904D02*
X138341095Y-97971904D01*
X138150619Y-97971904D01*
X138036333Y-98010000D01*
X137960142Y-98086190D01*
X137922047Y-98162380D01*
X137883952Y-98314761D01*
X137883952Y-98429047D01*
X137922047Y-98581428D01*
X137960142Y-98657619D01*
X138036333Y-98733809D01*
X138150619Y-98771904D01*
X138341095Y-98771904D01*
X136512523Y-98771904D02*
X136969666Y-98771904D01*
X136741095Y-98771904D02*
X136741095Y-97971904D01*
X136817285Y-98086190D01*
X136893476Y-98162380D01*
X136969666Y-98200476D01*
X136245857Y-97971904D02*
X135750619Y-97971904D01*
X136017285Y-98276666D01*
X135903000Y-98276666D01*
X135826809Y-98314761D01*
X135788714Y-98352857D01*
X135750619Y-98429047D01*
X135750619Y-98619523D01*
X135788714Y-98695714D01*
X135826809Y-98733809D01*
X135903000Y-98771904D01*
X136131571Y-98771904D01*
X136207761Y-98733809D01*
X136245857Y-98695714D01*
X135407761Y-98352857D02*
X134798238Y-98352857D01*
X134798238Y-98581428D02*
X135407761Y-98581428D01*
X134417285Y-98771904D02*
X134417285Y-97971904D01*
X134150619Y-98543333D01*
X133883952Y-97971904D01*
X133883952Y-98771904D01*
X133045857Y-98695714D02*
X133083952Y-98733809D01*
X133198238Y-98771904D01*
X133274428Y-98771904D01*
X133388714Y-98733809D01*
X133464904Y-98657619D01*
X133503000Y-98581428D01*
X133541095Y-98429047D01*
X133541095Y-98314761D01*
X133503000Y-98162380D01*
X133464904Y-98086190D01*
X133388714Y-98010000D01*
X133274428Y-97971904D01*
X133198238Y-97971904D01*
X133083952Y-98010000D01*
X133045857Y-98048095D01*
X132322047Y-98771904D02*
X132703000Y-98771904D01*
X132703000Y-97971904D01*
X132055380Y-98771904D02*
X132055380Y-97971904D01*
X131598238Y-98771904D02*
X131941095Y-98314761D01*
X131598238Y-97971904D02*
X132055380Y-98429047D01*
X130683952Y-98048095D02*
X130645857Y-98010000D01*
X130569666Y-97971904D01*
X130379190Y-97971904D01*
X130303000Y-98010000D01*
X130264904Y-98048095D01*
X130226809Y-98124285D01*
X130226809Y-98200476D01*
X130264904Y-98314761D01*
X130722047Y-98771904D01*
X130226809Y-98771904D01*
X129464904Y-98771904D02*
X129922047Y-98771904D01*
X129693476Y-98771904D02*
X129693476Y-97971904D01*
X129769666Y-98086190D01*
X129845857Y-98162380D01*
X129922047Y-98200476D01*
X129122047Y-98352857D02*
X128512523Y-98352857D01*
X128512523Y-98581428D02*
X129122047Y-98581428D01*
X128131571Y-98771904D02*
X128131571Y-97971904D01*
X127293476Y-98771904D02*
X127560142Y-98390952D01*
X127750619Y-98771904D02*
X127750619Y-97971904D01*
X127445857Y-97971904D01*
X127369666Y-98010000D01*
X127331571Y-98048095D01*
X127293476Y-98124285D01*
X127293476Y-98238571D01*
X127331571Y-98314761D01*
X127369666Y-98352857D01*
X127445857Y-98390952D01*
X127750619Y-98390952D01*
X126417285Y-98848095D02*
X126493476Y-98810000D01*
X126569666Y-98733809D01*
X126683952Y-98619523D01*
X126760142Y-98581428D01*
X126836333Y-98581428D01*
X126798238Y-98771904D02*
X126874428Y-98733809D01*
X126950619Y-98657619D01*
X126988714Y-98505238D01*
X126988714Y-98238571D01*
X126950619Y-98086190D01*
X126874428Y-98010000D01*
X126798238Y-97971904D01*
X126645857Y-97971904D01*
X126569666Y-98010000D01*
X126493476Y-98086190D01*
X126455380Y-98238571D01*
X126455380Y-98505238D01*
X126493476Y-98657619D01*
X126569666Y-98733809D01*
X126645857Y-98771904D01*
X126798238Y-98771904D01*
X147903000Y-100071904D02*
X148360142Y-100071904D01*
X148131571Y-100071904D02*
X148131571Y-99271904D01*
X148207761Y-99386190D01*
X148283952Y-99462380D01*
X148360142Y-99500476D01*
X147179190Y-99271904D02*
X147560142Y-99271904D01*
X147598238Y-99652857D01*
X147560142Y-99614761D01*
X147483952Y-99576666D01*
X147293476Y-99576666D01*
X147217285Y-99614761D01*
X147179190Y-99652857D01*
X147141095Y-99729047D01*
X147141095Y-99919523D01*
X147179190Y-99995714D01*
X147217285Y-100033809D01*
X147293476Y-100071904D01*
X147483952Y-100071904D01*
X147560142Y-100033809D01*
X147598238Y-99995714D01*
X146798238Y-99652857D02*
X146188714Y-99652857D01*
X146188714Y-99881428D02*
X146798238Y-99881428D01*
X145807761Y-100071904D02*
X145807761Y-99271904D01*
X145541095Y-99843333D01*
X145274428Y-99271904D01*
X145274428Y-100071904D01*
X144741095Y-99271904D02*
X144588714Y-99271904D01*
X144512523Y-99310000D01*
X144436333Y-99386190D01*
X144398238Y-99538571D01*
X144398238Y-99805238D01*
X144436333Y-99957619D01*
X144512523Y-100033809D01*
X144588714Y-100071904D01*
X144741095Y-100071904D01*
X144817285Y-100033809D01*
X144893476Y-99957619D01*
X144931571Y-99805238D01*
X144931571Y-99538571D01*
X144893476Y-99386190D01*
X144817285Y-99310000D01*
X144741095Y-99271904D01*
X144093476Y-100033809D02*
X143979190Y-100071904D01*
X143788714Y-100071904D01*
X143712523Y-100033809D01*
X143674428Y-99995714D01*
X143636333Y-99919523D01*
X143636333Y-99843333D01*
X143674428Y-99767142D01*
X143712523Y-99729047D01*
X143788714Y-99690952D01*
X143941095Y-99652857D01*
X144017285Y-99614761D01*
X144055380Y-99576666D01*
X144093476Y-99500476D01*
X144093476Y-99424285D01*
X144055380Y-99348095D01*
X144017285Y-99310000D01*
X143941095Y-99271904D01*
X143750619Y-99271904D01*
X143636333Y-99310000D01*
X143293476Y-100071904D02*
X143293476Y-99271904D01*
X141883952Y-100071904D02*
X142341095Y-100071904D01*
X142112523Y-100071904D02*
X142112523Y-99271904D01*
X142188714Y-99386190D01*
X142264904Y-99462380D01*
X142341095Y-99500476D01*
X141198238Y-99271904D02*
X141350619Y-99271904D01*
X141426809Y-99310000D01*
X141464904Y-99348095D01*
X141541095Y-99462380D01*
X141579190Y-99614761D01*
X141579190Y-99919523D01*
X141541095Y-99995714D01*
X141503000Y-100033809D01*
X141426809Y-100071904D01*
X141274428Y-100071904D01*
X141198238Y-100033809D01*
X141160142Y-99995714D01*
X141122047Y-99919523D01*
X141122047Y-99729047D01*
X141160142Y-99652857D01*
X141198238Y-99614761D01*
X141274428Y-99576666D01*
X141426809Y-99576666D01*
X141503000Y-99614761D01*
X141541095Y-99652857D01*
X141579190Y-99729047D01*
X140779190Y-99652857D02*
X140169666Y-99652857D01*
X140169666Y-99881428D02*
X140779190Y-99881428D01*
X139788714Y-100071904D02*
X139788714Y-99271904D01*
X139522047Y-99843333D01*
X139255380Y-99271904D01*
X139255380Y-100071904D01*
X138874428Y-100071904D02*
X138874428Y-99271904D01*
X138531571Y-100033809D02*
X138417285Y-100071904D01*
X138226809Y-100071904D01*
X138150619Y-100033809D01*
X138112523Y-99995714D01*
X138074428Y-99919523D01*
X138074428Y-99843333D01*
X138112523Y-99767142D01*
X138150619Y-99729047D01*
X138226809Y-99690952D01*
X138379190Y-99652857D01*
X138455380Y-99614761D01*
X138493476Y-99576666D01*
X138531571Y-99500476D01*
X138531571Y-99424285D01*
X138493476Y-99348095D01*
X138455380Y-99310000D01*
X138379190Y-99271904D01*
X138188714Y-99271904D01*
X138074428Y-99310000D01*
X137579190Y-99271904D02*
X137426809Y-99271904D01*
X137350619Y-99310000D01*
X137274428Y-99386190D01*
X137236333Y-99538571D01*
X137236333Y-99805238D01*
X137274428Y-99957619D01*
X137350619Y-100033809D01*
X137426809Y-100071904D01*
X137579190Y-100071904D01*
X137655380Y-100033809D01*
X137731571Y-99957619D01*
X137769666Y-99805238D01*
X137769666Y-99538571D01*
X137731571Y-99386190D01*
X137655380Y-99310000D01*
X137579190Y-99271904D01*
X135864904Y-100071904D02*
X136322047Y-100071904D01*
X136093476Y-100071904D02*
X136093476Y-99271904D01*
X136169666Y-99386190D01*
X136245857Y-99462380D01*
X136322047Y-99500476D01*
X135483952Y-100071904D02*
X135331571Y-100071904D01*
X135255380Y-100033809D01*
X135217285Y-99995714D01*
X135141095Y-99881428D01*
X135103000Y-99729047D01*
X135103000Y-99424285D01*
X135141095Y-99348095D01*
X135179190Y-99310000D01*
X135255380Y-99271904D01*
X135407761Y-99271904D01*
X135483952Y-99310000D01*
X135522047Y-99348095D01*
X135560142Y-99424285D01*
X135560142Y-99614761D01*
X135522047Y-99690952D01*
X135483952Y-99729047D01*
X135407761Y-99767142D01*
X135255380Y-99767142D01*
X135179190Y-99729047D01*
X135141095Y-99690952D01*
X135103000Y-99614761D01*
X134760142Y-99652857D02*
X134150619Y-99652857D01*
X134150619Y-99881428D02*
X134760142Y-99881428D01*
X133807761Y-100033809D02*
X133693476Y-100071904D01*
X133503000Y-100071904D01*
X133426809Y-100033809D01*
X133388714Y-99995714D01*
X133350619Y-99919523D01*
X133350619Y-99843333D01*
X133388714Y-99767142D01*
X133426809Y-99729047D01*
X133503000Y-99690952D01*
X133655380Y-99652857D01*
X133731571Y-99614761D01*
X133769666Y-99576666D01*
X133807761Y-99500476D01*
X133807761Y-99424285D01*
X133769666Y-99348095D01*
X133731571Y-99310000D01*
X133655380Y-99271904D01*
X133464904Y-99271904D01*
X133350619Y-99310000D01*
X132550619Y-99995714D02*
X132588714Y-100033809D01*
X132703000Y-100071904D01*
X132779190Y-100071904D01*
X132893476Y-100033809D01*
X132969666Y-99957619D01*
X133007761Y-99881428D01*
X133045857Y-99729047D01*
X133045857Y-99614761D01*
X133007761Y-99462380D01*
X132969666Y-99386190D01*
X132893476Y-99310000D01*
X132779190Y-99271904D01*
X132703000Y-99271904D01*
X132588714Y-99310000D01*
X132550619Y-99348095D01*
X131826809Y-100071904D02*
X132207761Y-100071904D01*
X132207761Y-99271904D01*
X131560142Y-100071904D02*
X131560142Y-99271904D01*
X131103000Y-100071904D02*
X131445857Y-99614761D01*
X131103000Y-99271904D02*
X131560142Y-99729047D01*
X130188714Y-99348095D02*
X130150619Y-99310000D01*
X130074428Y-99271904D01*
X129883952Y-99271904D01*
X129807761Y-99310000D01*
X129769666Y-99348095D01*
X129731571Y-99424285D01*
X129731571Y-99500476D01*
X129769666Y-99614761D01*
X130226809Y-100071904D01*
X129731571Y-100071904D01*
X129236333Y-99271904D02*
X129160142Y-99271904D01*
X129083952Y-99310000D01*
X129045857Y-99348095D01*
X129007761Y-99424285D01*
X128969666Y-99576666D01*
X128969666Y-99767142D01*
X129007761Y-99919523D01*
X129045857Y-99995714D01*
X129083952Y-100033809D01*
X129160142Y-100071904D01*
X129236333Y-100071904D01*
X129312523Y-100033809D01*
X129350619Y-99995714D01*
X129388714Y-99919523D01*
X129426809Y-99767142D01*
X129426809Y-99576666D01*
X129388714Y-99424285D01*
X129350619Y-99348095D01*
X129312523Y-99310000D01*
X129236333Y-99271904D01*
X128626809Y-99652857D02*
X128017285Y-99652857D01*
X128017285Y-99881428D02*
X128626809Y-99881428D01*
X127826809Y-99004000D02*
X127064904Y-99004000D01*
X127674428Y-100033809D02*
X127560142Y-100071904D01*
X127369666Y-100071904D01*
X127293476Y-100033809D01*
X127255380Y-99995714D01*
X127217285Y-99919523D01*
X127217285Y-99843333D01*
X127255380Y-99767142D01*
X127293476Y-99729047D01*
X127369666Y-99690952D01*
X127522047Y-99652857D01*
X127598238Y-99614761D01*
X127636333Y-99576666D01*
X127674428Y-99500476D01*
X127674428Y-99424285D01*
X127636333Y-99348095D01*
X127598238Y-99310000D01*
X127522047Y-99271904D01*
X127331571Y-99271904D01*
X127217285Y-99310000D01*
X127064904Y-99004000D02*
X126303000Y-99004000D01*
X126912523Y-100033809D02*
X126798238Y-100071904D01*
X126607761Y-100071904D01*
X126531571Y-100033809D01*
X126493476Y-99995714D01*
X126455380Y-99919523D01*
X126455380Y-99843333D01*
X126493476Y-99767142D01*
X126531571Y-99729047D01*
X126607761Y-99690952D01*
X126760142Y-99652857D01*
X126836333Y-99614761D01*
X126874428Y-99576666D01*
X126912523Y-99500476D01*
X126912523Y-99424285D01*
X126874428Y-99348095D01*
X126836333Y-99310000D01*
X126760142Y-99271904D01*
X126569666Y-99271904D01*
X126455380Y-99310000D01*
X145833714Y-111291904D02*
X145338476Y-111291904D01*
X145605142Y-111596666D01*
X145490857Y-111596666D01*
X145414666Y-111634761D01*
X145376571Y-111672857D01*
X145338476Y-111749047D01*
X145338476Y-111939523D01*
X145376571Y-112015714D01*
X145414666Y-112053809D01*
X145490857Y-112091904D01*
X145719428Y-112091904D01*
X145795619Y-112053809D01*
X145833714Y-112015714D01*
X144652761Y-111291904D02*
X144805142Y-111291904D01*
X144881333Y-111330000D01*
X144919428Y-111368095D01*
X144995619Y-111482380D01*
X145033714Y-111634761D01*
X145033714Y-111939523D01*
X144995619Y-112015714D01*
X144957523Y-112053809D01*
X144881333Y-112091904D01*
X144728952Y-112091904D01*
X144652761Y-112053809D01*
X144614666Y-112015714D01*
X144576571Y-111939523D01*
X144576571Y-111749047D01*
X144614666Y-111672857D01*
X144652761Y-111634761D01*
X144728952Y-111596666D01*
X144881333Y-111596666D01*
X144957523Y-111634761D01*
X144995619Y-111672857D01*
X145033714Y-111749047D01*
X144233714Y-111672857D02*
X143624190Y-111672857D01*
X143624190Y-111901428D02*
X144233714Y-111901428D01*
X142976571Y-111672857D02*
X142862285Y-111710952D01*
X142824190Y-111749047D01*
X142786095Y-111825238D01*
X142786095Y-111939523D01*
X142824190Y-112015714D01*
X142862285Y-112053809D01*
X142938476Y-112091904D01*
X143243238Y-112091904D01*
X143243238Y-111291904D01*
X142976571Y-111291904D01*
X142900380Y-111330000D01*
X142862285Y-111368095D01*
X142824190Y-111444285D01*
X142824190Y-111520476D01*
X142862285Y-111596666D01*
X142900380Y-111634761D01*
X142976571Y-111672857D01*
X143243238Y-111672857D01*
X142100380Y-111558571D02*
X142100380Y-112091904D01*
X142443238Y-111558571D02*
X142443238Y-111977619D01*
X142405142Y-112053809D01*
X142328952Y-112091904D01*
X142214666Y-112091904D01*
X142138476Y-112053809D01*
X142100380Y-112015714D01*
X141833714Y-111558571D02*
X141528952Y-111558571D01*
X141719428Y-111291904D02*
X141719428Y-111977619D01*
X141681333Y-112053809D01*
X141605142Y-112091904D01*
X141528952Y-112091904D01*
X141376571Y-111558571D02*
X141071809Y-111558571D01*
X141262285Y-111291904D02*
X141262285Y-111977619D01*
X141224190Y-112053809D01*
X141148000Y-112091904D01*
X141071809Y-112091904D01*
X140690857Y-112091904D02*
X140767047Y-112053809D01*
X140805142Y-112015714D01*
X140843238Y-111939523D01*
X140843238Y-111710952D01*
X140805142Y-111634761D01*
X140767047Y-111596666D01*
X140690857Y-111558571D01*
X140576571Y-111558571D01*
X140500380Y-111596666D01*
X140462285Y-111634761D01*
X140424190Y-111710952D01*
X140424190Y-111939523D01*
X140462285Y-112015714D01*
X140500380Y-112053809D01*
X140576571Y-112091904D01*
X140690857Y-112091904D01*
X140081333Y-111558571D02*
X140081333Y-112091904D01*
X140081333Y-111634761D02*
X140043238Y-111596666D01*
X139967047Y-111558571D01*
X139852761Y-111558571D01*
X139776571Y-111596666D01*
X139738476Y-111672857D01*
X139738476Y-112091904D01*
X145281333Y-112591904D02*
X145433714Y-112591904D01*
X145509904Y-112630000D01*
X145548000Y-112668095D01*
X145624190Y-112782380D01*
X145662285Y-112934761D01*
X145662285Y-113239523D01*
X145624190Y-113315714D01*
X145586095Y-113353809D01*
X145509904Y-113391904D01*
X145357523Y-113391904D01*
X145281333Y-113353809D01*
X145243238Y-113315714D01*
X145205142Y-113239523D01*
X145205142Y-113049047D01*
X145243238Y-112972857D01*
X145281333Y-112934761D01*
X145357523Y-112896666D01*
X145509904Y-112896666D01*
X145586095Y-112934761D01*
X145624190Y-112972857D01*
X145662285Y-113049047D01*
X144900380Y-112668095D02*
X144862285Y-112630000D01*
X144786095Y-112591904D01*
X144595619Y-112591904D01*
X144519428Y-112630000D01*
X144481333Y-112668095D01*
X144443238Y-112744285D01*
X144443238Y-112820476D01*
X144481333Y-112934761D01*
X144938476Y-113391904D01*
X144443238Y-113391904D01*
X144100380Y-112972857D02*
X143490857Y-112972857D01*
X143490857Y-113201428D02*
X144100380Y-113201428D01*
X143300380Y-112324000D02*
X142500380Y-112324000D01*
X142652761Y-113391904D02*
X142919428Y-113010952D01*
X143109904Y-113391904D02*
X143109904Y-112591904D01*
X142805142Y-112591904D01*
X142728952Y-112630000D01*
X142690857Y-112668095D01*
X142652761Y-112744285D01*
X142652761Y-112858571D01*
X142690857Y-112934761D01*
X142728952Y-112972857D01*
X142805142Y-113010952D01*
X143109904Y-113010952D01*
X142500380Y-112324000D02*
X141776571Y-112324000D01*
X142309904Y-112972857D02*
X142043238Y-112972857D01*
X141928952Y-113391904D02*
X142309904Y-113391904D01*
X142309904Y-112591904D01*
X141928952Y-112591904D01*
X141776571Y-112324000D02*
X141014666Y-112324000D01*
X141624190Y-113353809D02*
X141509904Y-113391904D01*
X141319428Y-113391904D01*
X141243238Y-113353809D01*
X141205142Y-113315714D01*
X141167047Y-113239523D01*
X141167047Y-113163333D01*
X141205142Y-113087142D01*
X141243238Y-113049047D01*
X141319428Y-113010952D01*
X141471809Y-112972857D01*
X141548000Y-112934761D01*
X141586095Y-112896666D01*
X141624190Y-112820476D01*
X141624190Y-112744285D01*
X141586095Y-112668095D01*
X141548000Y-112630000D01*
X141471809Y-112591904D01*
X141281333Y-112591904D01*
X141167047Y-112630000D01*
X141014666Y-112324000D02*
X140290857Y-112324000D01*
X140824190Y-112972857D02*
X140557523Y-112972857D01*
X140443238Y-113391904D02*
X140824190Y-113391904D01*
X140824190Y-112591904D01*
X140443238Y-112591904D01*
X140290857Y-112324000D02*
X139681333Y-112324000D01*
X140214666Y-112591904D02*
X139757523Y-112591904D01*
X139986095Y-113391904D02*
X139986095Y-112591904D01*
X144786095Y-114234761D02*
X144862285Y-114196666D01*
X144900380Y-114158571D01*
X144938476Y-114082380D01*
X144938476Y-114044285D01*
X144900380Y-113968095D01*
X144862285Y-113930000D01*
X144786095Y-113891904D01*
X144633714Y-113891904D01*
X144557523Y-113930000D01*
X144519428Y-113968095D01*
X144481333Y-114044285D01*
X144481333Y-114082380D01*
X144519428Y-114158571D01*
X144557523Y-114196666D01*
X144633714Y-114234761D01*
X144786095Y-114234761D01*
X144862285Y-114272857D01*
X144900380Y-114310952D01*
X144938476Y-114387142D01*
X144938476Y-114539523D01*
X144900380Y-114615714D01*
X144862285Y-114653809D01*
X144786095Y-114691904D01*
X144633714Y-114691904D01*
X144557523Y-114653809D01*
X144519428Y-114615714D01*
X144481333Y-114539523D01*
X144481333Y-114387142D01*
X144519428Y-114310952D01*
X144557523Y-114272857D01*
X144633714Y-114234761D01*
X143795619Y-114158571D02*
X143795619Y-114691904D01*
X143986095Y-113853809D02*
X144176571Y-114425238D01*
X143681333Y-114425238D01*
X143376571Y-114272857D02*
X142767047Y-114272857D01*
X142767047Y-114501428D02*
X143376571Y-114501428D01*
X142005142Y-114691904D02*
X142386095Y-114691904D01*
X142386095Y-113891904D01*
X141738476Y-114272857D02*
X141471809Y-114272857D01*
X141357523Y-114691904D02*
X141738476Y-114691904D01*
X141738476Y-113891904D01*
X141357523Y-113891904D01*
X141014666Y-114691904D02*
X141014666Y-113891904D01*
X140824190Y-113891904D01*
X140709904Y-113930000D01*
X140633714Y-114006190D01*
X140595619Y-114082380D01*
X140557523Y-114234761D01*
X140557523Y-114349047D01*
X140595619Y-114501428D01*
X140633714Y-114577619D01*
X140709904Y-114653809D01*
X140824190Y-114691904D01*
X141014666Y-114691904D01*
X146670857Y-86937857D02*
X146937523Y-86937857D01*
X146937523Y-87356904D02*
X146937523Y-86556904D01*
X146556571Y-86556904D01*
X146251809Y-87356904D02*
X146251809Y-86556904D01*
X145947047Y-86556904D01*
X145870857Y-86595000D01*
X145832761Y-86633095D01*
X145794666Y-86709285D01*
X145794666Y-86823571D01*
X145832761Y-86899761D01*
X145870857Y-86937857D01*
X145947047Y-86975952D01*
X146251809Y-86975952D01*
X145032761Y-86595000D02*
X145108952Y-86556904D01*
X145223238Y-86556904D01*
X145337523Y-86595000D01*
X145413714Y-86671190D01*
X145451809Y-86747380D01*
X145489904Y-86899761D01*
X145489904Y-87014047D01*
X145451809Y-87166428D01*
X145413714Y-87242619D01*
X145337523Y-87318809D01*
X145223238Y-87356904D01*
X145147047Y-87356904D01*
X145032761Y-87318809D01*
X144994666Y-87280714D01*
X144994666Y-87014047D01*
X145147047Y-87014047D01*
X144689904Y-87128333D02*
X144308952Y-87128333D01*
X144766095Y-87356904D02*
X144499428Y-86556904D01*
X144232761Y-87356904D01*
X143966095Y-87052142D02*
X143356571Y-87052142D01*
X143013714Y-87318809D02*
X142899428Y-87356904D01*
X142708952Y-87356904D01*
X142632761Y-87318809D01*
X142594666Y-87280714D01*
X142556571Y-87204523D01*
X142556571Y-87128333D01*
X142594666Y-87052142D01*
X142632761Y-87014047D01*
X142708952Y-86975952D01*
X142861333Y-86937857D01*
X142937523Y-86899761D01*
X142975619Y-86861666D01*
X143013714Y-86785476D01*
X143013714Y-86709285D01*
X142975619Y-86633095D01*
X142937523Y-86595000D01*
X142861333Y-86556904D01*
X142670857Y-86556904D01*
X142556571Y-86595000D01*
X141756571Y-87356904D02*
X142023238Y-86975952D01*
X142213714Y-87356904D02*
X142213714Y-86556904D01*
X141908952Y-86556904D01*
X141832761Y-86595000D01*
X141794666Y-86633095D01*
X141756571Y-86709285D01*
X141756571Y-86823571D01*
X141794666Y-86899761D01*
X141832761Y-86937857D01*
X141908952Y-86975952D01*
X142213714Y-86975952D01*
X141451809Y-87128333D02*
X141070857Y-87128333D01*
X141528000Y-87356904D02*
X141261333Y-86556904D01*
X140994666Y-87356904D01*
X140728000Y-87356904D02*
X140728000Y-86556904D01*
X140461333Y-87128333D01*
X140194666Y-86556904D01*
X140194666Y-87356904D01*
X139204190Y-87356904D02*
X139204190Y-86556904D01*
X138823238Y-86823571D02*
X138823238Y-87356904D01*
X138823238Y-86899761D02*
X138785142Y-86861666D01*
X138708952Y-86823571D01*
X138594666Y-86823571D01*
X138518476Y-86861666D01*
X138480380Y-86937857D01*
X138480380Y-87356904D01*
X138213714Y-86823571D02*
X137908952Y-86823571D01*
X138099428Y-86556904D02*
X138099428Y-87242619D01*
X138061333Y-87318809D01*
X137985142Y-87356904D01*
X137908952Y-87356904D01*
X137337523Y-87318809D02*
X137413714Y-87356904D01*
X137566095Y-87356904D01*
X137642285Y-87318809D01*
X137680380Y-87242619D01*
X137680380Y-86937857D01*
X137642285Y-86861666D01*
X137566095Y-86823571D01*
X137413714Y-86823571D01*
X137337523Y-86861666D01*
X137299428Y-86937857D01*
X137299428Y-87014047D01*
X137680380Y-87090238D01*
X136956571Y-87356904D02*
X136956571Y-86823571D01*
X136956571Y-86975952D02*
X136918476Y-86899761D01*
X136880380Y-86861666D01*
X136804190Y-86823571D01*
X136728000Y-86823571D01*
X136575619Y-86823571D02*
X136270857Y-86823571D01*
X136461333Y-87356904D02*
X136461333Y-86671190D01*
X136423238Y-86595000D01*
X136347047Y-86556904D01*
X136270857Y-86556904D01*
X135661333Y-87356904D02*
X135661333Y-86937857D01*
X135699428Y-86861666D01*
X135775619Y-86823571D01*
X135928000Y-86823571D01*
X136004190Y-86861666D01*
X135661333Y-87318809D02*
X135737523Y-87356904D01*
X135928000Y-87356904D01*
X136004190Y-87318809D01*
X136042285Y-87242619D01*
X136042285Y-87166428D01*
X136004190Y-87090238D01*
X135928000Y-87052142D01*
X135737523Y-87052142D01*
X135661333Y-87014047D01*
X134937523Y-87318809D02*
X135013714Y-87356904D01*
X135166095Y-87356904D01*
X135242285Y-87318809D01*
X135280380Y-87280714D01*
X135318476Y-87204523D01*
X135318476Y-86975952D01*
X135280380Y-86899761D01*
X135242285Y-86861666D01*
X135166095Y-86823571D01*
X135013714Y-86823571D01*
X134937523Y-86861666D01*
X134289904Y-87318809D02*
X134366095Y-87356904D01*
X134518476Y-87356904D01*
X134594666Y-87318809D01*
X134632761Y-87242619D01*
X134632761Y-86937857D01*
X134594666Y-86861666D01*
X134518476Y-86823571D01*
X134366095Y-86823571D01*
X134289904Y-86861666D01*
X134251809Y-86937857D01*
X134251809Y-87014047D01*
X134632761Y-87090238D01*
D11*
X147193000Y-87630000D02*
X123063000Y-87630000D01*
D10*
X146975619Y-88523095D02*
X146937523Y-88485000D01*
X146861333Y-88446904D01*
X146670857Y-88446904D01*
X146594666Y-88485000D01*
X146556571Y-88523095D01*
X146518476Y-88599285D01*
X146518476Y-88675476D01*
X146556571Y-88789761D01*
X147013714Y-89246904D01*
X146518476Y-89246904D01*
X146137523Y-89208809D02*
X146137523Y-89246904D01*
X146175619Y-89323095D01*
X146213714Y-89361190D01*
X145451809Y-88446904D02*
X145604190Y-88446904D01*
X145680380Y-88485000D01*
X145718476Y-88523095D01*
X145794666Y-88637380D01*
X145832761Y-88789761D01*
X145832761Y-89094523D01*
X145794666Y-89170714D01*
X145756571Y-89208809D01*
X145680380Y-89246904D01*
X145528000Y-89246904D01*
X145451809Y-89208809D01*
X145413714Y-89170714D01*
X145375619Y-89094523D01*
X145375619Y-88904047D01*
X145413714Y-88827857D01*
X145451809Y-88789761D01*
X145528000Y-88751666D01*
X145680380Y-88751666D01*
X145756571Y-88789761D01*
X145794666Y-88827857D01*
X145832761Y-88904047D01*
X144994666Y-89208809D02*
X144994666Y-89246904D01*
X145032761Y-89323095D01*
X145070857Y-89361190D01*
X144537523Y-88789761D02*
X144613714Y-88751666D01*
X144651809Y-88713571D01*
X144689904Y-88637380D01*
X144689904Y-88599285D01*
X144651809Y-88523095D01*
X144613714Y-88485000D01*
X144537523Y-88446904D01*
X144385142Y-88446904D01*
X144308952Y-88485000D01*
X144270857Y-88523095D01*
X144232761Y-88599285D01*
X144232761Y-88637380D01*
X144270857Y-88713571D01*
X144308952Y-88751666D01*
X144385142Y-88789761D01*
X144537523Y-88789761D01*
X144613714Y-88827857D01*
X144651809Y-88865952D01*
X144689904Y-88942142D01*
X144689904Y-89094523D01*
X144651809Y-89170714D01*
X144613714Y-89208809D01*
X144537523Y-89246904D01*
X144385142Y-89246904D01*
X144308952Y-89208809D01*
X144270857Y-89170714D01*
X144232761Y-89094523D01*
X144232761Y-88942142D01*
X144270857Y-88865952D01*
X144308952Y-88827857D01*
X144385142Y-88789761D01*
X143851809Y-89208809D02*
X143851809Y-89246904D01*
X143889904Y-89323095D01*
X143928000Y-89361190D01*
X143547047Y-88523095D02*
X143508952Y-88485000D01*
X143432761Y-88446904D01*
X143242285Y-88446904D01*
X143166095Y-88485000D01*
X143128000Y-88523095D01*
X143089904Y-88599285D01*
X143089904Y-88675476D01*
X143128000Y-88789761D01*
X143585142Y-89246904D01*
X143089904Y-89246904D01*
X142785142Y-88523095D02*
X142747047Y-88485000D01*
X142670857Y-88446904D01*
X142480380Y-88446904D01*
X142404190Y-88485000D01*
X142366095Y-88523095D01*
X142328000Y-88599285D01*
X142328000Y-88675476D01*
X142366095Y-88789761D01*
X142823238Y-89246904D01*
X142328000Y-89246904D01*
X141947047Y-89208809D02*
X141947047Y-89246904D01*
X141985142Y-89323095D01*
X142023238Y-89361190D01*
X141642285Y-88523095D02*
X141604190Y-88485000D01*
X141528000Y-88446904D01*
X141337523Y-88446904D01*
X141261333Y-88485000D01*
X141223238Y-88523095D01*
X141185142Y-88599285D01*
X141185142Y-88675476D01*
X141223238Y-88789761D01*
X141680380Y-89246904D01*
X141185142Y-89246904D01*
X140918476Y-88446904D02*
X140423238Y-88446904D01*
X140689904Y-88751666D01*
X140575619Y-88751666D01*
X140499428Y-88789761D01*
X140461333Y-88827857D01*
X140423238Y-88904047D01*
X140423238Y-89094523D01*
X140461333Y-89170714D01*
X140499428Y-89208809D01*
X140575619Y-89246904D01*
X140804190Y-89246904D01*
X140880380Y-89208809D01*
X140918476Y-89170714D01*
X140042285Y-89208809D02*
X140042285Y-89246904D01*
X140080380Y-89323095D01*
X140118476Y-89361190D01*
X139737523Y-88523095D02*
X139699428Y-88485000D01*
X139623238Y-88446904D01*
X139432761Y-88446904D01*
X139356571Y-88485000D01*
X139318476Y-88523095D01*
X139280380Y-88599285D01*
X139280380Y-88675476D01*
X139318476Y-88789761D01*
X139775619Y-89246904D01*
X139280380Y-89246904D01*
X138594666Y-88446904D02*
X138747047Y-88446904D01*
X138823238Y-88485000D01*
X138861333Y-88523095D01*
X138937523Y-88637380D01*
X138975619Y-88789761D01*
X138975619Y-89094523D01*
X138937523Y-89170714D01*
X138899428Y-89208809D01*
X138823238Y-89246904D01*
X138670857Y-89246904D01*
X138594666Y-89208809D01*
X138556571Y-89170714D01*
X138518476Y-89094523D01*
X138518476Y-88904047D01*
X138556571Y-88827857D01*
X138594666Y-88789761D01*
X138670857Y-88751666D01*
X138823238Y-88751666D01*
X138899428Y-88789761D01*
X138937523Y-88827857D01*
X138975619Y-88904047D01*
X138175619Y-88942142D02*
X137566095Y-88942142D01*
X137261333Y-88446904D02*
X136766095Y-88446904D01*
X137032761Y-88751666D01*
X136918476Y-88751666D01*
X136842285Y-88789761D01*
X136804190Y-88827857D01*
X136766095Y-88904047D01*
X136766095Y-89094523D01*
X136804190Y-89170714D01*
X136842285Y-89208809D01*
X136918476Y-89246904D01*
X137147047Y-89246904D01*
X137223238Y-89208809D01*
X137261333Y-89170714D01*
X136042285Y-88446904D02*
X136423238Y-88446904D01*
X136461333Y-88827857D01*
X136423238Y-88789761D01*
X136347047Y-88751666D01*
X136156571Y-88751666D01*
X136080380Y-88789761D01*
X136042285Y-88827857D01*
X136004190Y-88904047D01*
X136004190Y-89094523D01*
X136042285Y-89170714D01*
X136080380Y-89208809D01*
X136156571Y-89246904D01*
X136347047Y-89246904D01*
X136423238Y-89208809D01*
X136461333Y-89170714D01*
X135623238Y-89208809D02*
X135623238Y-89246904D01*
X135661333Y-89323095D01*
X135699428Y-89361190D01*
X135242285Y-89246904D02*
X135089904Y-89246904D01*
X135013714Y-89208809D01*
X134975619Y-89170714D01*
X134899428Y-89056428D01*
X134861333Y-88904047D01*
X134861333Y-88599285D01*
X134899428Y-88523095D01*
X134937523Y-88485000D01*
X135013714Y-88446904D01*
X135166095Y-88446904D01*
X135242285Y-88485000D01*
X135280380Y-88523095D01*
X135318476Y-88599285D01*
X135318476Y-88789761D01*
X135280380Y-88865952D01*
X135242285Y-88904047D01*
X135166095Y-88942142D01*
X135013714Y-88942142D01*
X134937523Y-88904047D01*
X134899428Y-88865952D01*
X134861333Y-88789761D01*
X134175619Y-88446904D02*
X134328000Y-88446904D01*
X134404190Y-88485000D01*
X134442285Y-88523095D01*
X134518476Y-88637380D01*
X134556571Y-88789761D01*
X134556571Y-89094523D01*
X134518476Y-89170714D01*
X134480380Y-89208809D01*
X134404190Y-89246904D01*
X134251809Y-89246904D01*
X134175619Y-89208809D01*
X134137523Y-89170714D01*
X134099428Y-89094523D01*
X134099428Y-88904047D01*
X134137523Y-88827857D01*
X134175619Y-88789761D01*
X134251809Y-88751666D01*
X134404190Y-88751666D01*
X134480380Y-88789761D01*
X134518476Y-88827857D01*
X134556571Y-88904047D01*
X133718476Y-89208809D02*
X133718476Y-89246904D01*
X133756571Y-89323095D01*
X133794666Y-89361190D01*
X133337523Y-89246904D02*
X133185142Y-89246904D01*
X133108952Y-89208809D01*
X133070857Y-89170714D01*
X132994666Y-89056428D01*
X132956571Y-88904047D01*
X132956571Y-88599285D01*
X132994666Y-88523095D01*
X133032761Y-88485000D01*
X133108952Y-88446904D01*
X133261333Y-88446904D01*
X133337523Y-88485000D01*
X133375619Y-88523095D01*
X133413714Y-88599285D01*
X133413714Y-88789761D01*
X133375619Y-88865952D01*
X133337523Y-88904047D01*
X133261333Y-88942142D01*
X133108952Y-88942142D01*
X133032761Y-88904047D01*
X132994666Y-88865952D01*
X132956571Y-88789761D01*
X132499428Y-88789761D02*
X132575619Y-88751666D01*
X132613714Y-88713571D01*
X132651809Y-88637380D01*
X132651809Y-88599285D01*
X132613714Y-88523095D01*
X132575619Y-88485000D01*
X132499428Y-88446904D01*
X132347047Y-88446904D01*
X132270857Y-88485000D01*
X132232761Y-88523095D01*
X132194666Y-88599285D01*
X132194666Y-88637380D01*
X132232761Y-88713571D01*
X132270857Y-88751666D01*
X132347047Y-88789761D01*
X132499428Y-88789761D01*
X132575619Y-88827857D01*
X132613714Y-88865952D01*
X132651809Y-88942142D01*
X132651809Y-89094523D01*
X132613714Y-89170714D01*
X132575619Y-89208809D01*
X132499428Y-89246904D01*
X132347047Y-89246904D01*
X132270857Y-89208809D01*
X132232761Y-89170714D01*
X132194666Y-89094523D01*
X132194666Y-88942142D01*
X132232761Y-88865952D01*
X132270857Y-88827857D01*
X132347047Y-88789761D01*
X131851809Y-88942142D02*
X131242285Y-88942142D01*
X130442285Y-89246904D02*
X130899428Y-89246904D01*
X130670857Y-89246904D02*
X130670857Y-88446904D01*
X130747047Y-88561190D01*
X130823238Y-88637380D01*
X130899428Y-88675476D01*
X129947047Y-88446904D02*
X129870857Y-88446904D01*
X129794666Y-88485000D01*
X129756571Y-88523095D01*
X129718476Y-88599285D01*
X129680380Y-88751666D01*
X129680380Y-88942142D01*
X129718476Y-89094523D01*
X129756571Y-89170714D01*
X129794666Y-89208809D01*
X129870857Y-89246904D01*
X129947047Y-89246904D01*
X130023238Y-89208809D01*
X130061333Y-89170714D01*
X130099428Y-89094523D01*
X130137523Y-88942142D01*
X130137523Y-88751666D01*
X130099428Y-88599285D01*
X130061333Y-88523095D01*
X130023238Y-88485000D01*
X129947047Y-88446904D01*
X129185142Y-88446904D02*
X129108952Y-88446904D01*
X129032761Y-88485000D01*
X128994666Y-88523095D01*
X128956571Y-88599285D01*
X128918476Y-88751666D01*
X128918476Y-88942142D01*
X128956571Y-89094523D01*
X128994666Y-89170714D01*
X129032761Y-89208809D01*
X129108952Y-89246904D01*
X129185142Y-89246904D01*
X129261333Y-89208809D01*
X129299428Y-89170714D01*
X129337523Y-89094523D01*
X129375619Y-88942142D01*
X129375619Y-88751666D01*
X129337523Y-88599285D01*
X129299428Y-88523095D01*
X129261333Y-88485000D01*
X129185142Y-88446904D01*
X128575619Y-88827857D02*
X127966095Y-88827857D01*
X127966095Y-89056428D02*
X128575619Y-89056428D01*
X127623238Y-89018333D02*
X127242285Y-89018333D01*
X127699428Y-89246904D02*
X127432761Y-88446904D01*
X127166095Y-89246904D01*
X126556571Y-89246904D02*
X126556571Y-88446904D01*
X126556571Y-89208809D02*
X126632761Y-89246904D01*
X126785142Y-89246904D01*
X126861333Y-89208809D01*
X126899428Y-89170714D01*
X126937523Y-89094523D01*
X126937523Y-88865952D01*
X126899428Y-88789761D01*
X126861333Y-88751666D01*
X126785142Y-88713571D01*
X126632761Y-88713571D01*
X126556571Y-88751666D01*
X125832761Y-89246904D02*
X125832761Y-88446904D01*
X125832761Y-89208809D02*
X125908952Y-89246904D01*
X126061333Y-89246904D01*
X126137523Y-89208809D01*
X126175619Y-89170714D01*
X126213714Y-89094523D01*
X126213714Y-88865952D01*
X126175619Y-88789761D01*
X126137523Y-88751666D01*
X126061333Y-88713571D01*
X125908952Y-88713571D01*
X125832761Y-88751666D01*
X125451809Y-89246904D02*
X125451809Y-88713571D01*
X125451809Y-88865952D02*
X125413714Y-88789761D01*
X125375619Y-88751666D01*
X125299428Y-88713571D01*
X125223238Y-88713571D01*
X124651809Y-89208809D02*
X124728000Y-89246904D01*
X124880380Y-89246904D01*
X124956571Y-89208809D01*
X124994666Y-89132619D01*
X124994666Y-88827857D01*
X124956571Y-88751666D01*
X124880380Y-88713571D01*
X124728000Y-88713571D01*
X124651809Y-88751666D01*
X124613714Y-88827857D01*
X124613714Y-88904047D01*
X124994666Y-88980238D01*
X124308952Y-89208809D02*
X124232761Y-89246904D01*
X124080380Y-89246904D01*
X124004190Y-89208809D01*
X123966095Y-89132619D01*
X123966095Y-89094523D01*
X124004190Y-89018333D01*
X124080380Y-88980238D01*
X124194666Y-88980238D01*
X124270857Y-88942142D01*
X124308952Y-88865952D01*
X124308952Y-88827857D01*
X124270857Y-88751666D01*
X124194666Y-88713571D01*
X124080380Y-88713571D01*
X124004190Y-88751666D01*
X123661333Y-89208809D02*
X123585142Y-89246904D01*
X123432761Y-89246904D01*
X123356571Y-89208809D01*
X123318476Y-89132619D01*
X123318476Y-89094523D01*
X123356571Y-89018333D01*
X123432761Y-88980238D01*
X123547047Y-88980238D01*
X123623238Y-88942142D01*
X123661333Y-88865952D01*
X123661333Y-88827857D01*
X123623238Y-88751666D01*
X123547047Y-88713571D01*
X123432761Y-88713571D01*
X123356571Y-88751666D01*
X147013714Y-89746904D02*
X146518476Y-89746904D01*
X146785142Y-90051666D01*
X146670857Y-90051666D01*
X146594666Y-90089761D01*
X146556571Y-90127857D01*
X146518476Y-90204047D01*
X146518476Y-90394523D01*
X146556571Y-90470714D01*
X146594666Y-90508809D01*
X146670857Y-90546904D01*
X146899428Y-90546904D01*
X146975619Y-90508809D01*
X147013714Y-90470714D01*
X146137523Y-90508809D02*
X146137523Y-90546904D01*
X146175619Y-90623095D01*
X146213714Y-90661190D01*
X145413714Y-89746904D02*
X145794666Y-89746904D01*
X145832761Y-90127857D01*
X145794666Y-90089761D01*
X145718476Y-90051666D01*
X145528000Y-90051666D01*
X145451809Y-90089761D01*
X145413714Y-90127857D01*
X145375619Y-90204047D01*
X145375619Y-90394523D01*
X145413714Y-90470714D01*
X145451809Y-90508809D01*
X145528000Y-90546904D01*
X145718476Y-90546904D01*
X145794666Y-90508809D01*
X145832761Y-90470714D01*
X144994666Y-90508809D02*
X144994666Y-90546904D01*
X145032761Y-90623095D01*
X145070857Y-90661190D01*
X144728000Y-89746904D02*
X144194666Y-89746904D01*
X144537523Y-90546904D01*
X143851809Y-90508809D02*
X143851809Y-90546904D01*
X143889904Y-90623095D01*
X143928000Y-90661190D01*
X143470857Y-90546904D02*
X143318476Y-90546904D01*
X143242285Y-90508809D01*
X143204190Y-90470714D01*
X143128000Y-90356428D01*
X143089904Y-90204047D01*
X143089904Y-89899285D01*
X143128000Y-89823095D01*
X143166095Y-89785000D01*
X143242285Y-89746904D01*
X143394666Y-89746904D01*
X143470857Y-89785000D01*
X143508952Y-89823095D01*
X143547047Y-89899285D01*
X143547047Y-90089761D01*
X143508952Y-90165952D01*
X143470857Y-90204047D01*
X143394666Y-90242142D01*
X143242285Y-90242142D01*
X143166095Y-90204047D01*
X143128000Y-90165952D01*
X143089904Y-90089761D01*
X142594666Y-89746904D02*
X142518476Y-89746904D01*
X142442285Y-89785000D01*
X142404190Y-89823095D01*
X142366095Y-89899285D01*
X142328000Y-90051666D01*
X142328000Y-90242142D01*
X142366095Y-90394523D01*
X142404190Y-90470714D01*
X142442285Y-90508809D01*
X142518476Y-90546904D01*
X142594666Y-90546904D01*
X142670857Y-90508809D01*
X142708952Y-90470714D01*
X142747047Y-90394523D01*
X142785142Y-90242142D01*
X142785142Y-90051666D01*
X142747047Y-89899285D01*
X142708952Y-89823095D01*
X142670857Y-89785000D01*
X142594666Y-89746904D01*
X141985142Y-90242142D02*
X141375619Y-90242142D01*
X140956571Y-90546904D02*
X140804190Y-90546904D01*
X140728000Y-90508809D01*
X140689904Y-90470714D01*
X140613714Y-90356428D01*
X140575619Y-90204047D01*
X140575619Y-89899285D01*
X140613714Y-89823095D01*
X140651809Y-89785000D01*
X140728000Y-89746904D01*
X140880380Y-89746904D01*
X140956571Y-89785000D01*
X140994666Y-89823095D01*
X141032761Y-89899285D01*
X141032761Y-90089761D01*
X140994666Y-90165952D01*
X140956571Y-90204047D01*
X140880380Y-90242142D01*
X140728000Y-90242142D01*
X140651809Y-90204047D01*
X140613714Y-90165952D01*
X140575619Y-90089761D01*
X139889904Y-90013571D02*
X139889904Y-90546904D01*
X140080380Y-89708809D02*
X140270857Y-90280238D01*
X139775619Y-90280238D01*
X139470857Y-90127857D02*
X138861333Y-90127857D01*
X138861333Y-90356428D02*
X139470857Y-90356428D01*
X138480380Y-90546904D02*
X138480380Y-89746904D01*
X138289904Y-89746904D01*
X138175619Y-89785000D01*
X138099428Y-89861190D01*
X138061333Y-89937380D01*
X138023238Y-90089761D01*
X138023238Y-90204047D01*
X138061333Y-90356428D01*
X138099428Y-90432619D01*
X138175619Y-90508809D01*
X138289904Y-90546904D01*
X138480380Y-90546904D01*
X137337523Y-90546904D02*
X137337523Y-90127857D01*
X137375619Y-90051666D01*
X137451809Y-90013571D01*
X137604190Y-90013571D01*
X137680380Y-90051666D01*
X137337523Y-90508809D02*
X137413714Y-90546904D01*
X137604190Y-90546904D01*
X137680380Y-90508809D01*
X137718476Y-90432619D01*
X137718476Y-90356428D01*
X137680380Y-90280238D01*
X137604190Y-90242142D01*
X137413714Y-90242142D01*
X137337523Y-90204047D01*
X137070857Y-90013571D02*
X136766095Y-90013571D01*
X136956571Y-89746904D02*
X136956571Y-90432619D01*
X136918476Y-90508809D01*
X136842285Y-90546904D01*
X136766095Y-90546904D01*
X136156571Y-90546904D02*
X136156571Y-90127857D01*
X136194666Y-90051666D01*
X136270857Y-90013571D01*
X136423238Y-90013571D01*
X136499428Y-90051666D01*
X136156571Y-90508809D02*
X136232761Y-90546904D01*
X136423238Y-90546904D01*
X136499428Y-90508809D01*
X136537523Y-90432619D01*
X136537523Y-90356428D01*
X136499428Y-90280238D01*
X136423238Y-90242142D01*
X136232761Y-90242142D01*
X136156571Y-90204047D01*
X135128000Y-90546904D02*
X134975619Y-90546904D01*
X134899428Y-90508809D01*
X134861333Y-90470714D01*
X134785142Y-90356428D01*
X134747047Y-90204047D01*
X134747047Y-89899285D01*
X134785142Y-89823095D01*
X134823238Y-89785000D01*
X134899428Y-89746904D01*
X135051809Y-89746904D01*
X135128000Y-89785000D01*
X135166095Y-89823095D01*
X135204190Y-89899285D01*
X135204190Y-90089761D01*
X135166095Y-90165952D01*
X135128000Y-90204047D01*
X135051809Y-90242142D01*
X134899428Y-90242142D01*
X134823238Y-90204047D01*
X134785142Y-90165952D01*
X134747047Y-90089761D01*
X134023238Y-89746904D02*
X134404190Y-89746904D01*
X134442285Y-90127857D01*
X134404190Y-90089761D01*
X134328000Y-90051666D01*
X134137523Y-90051666D01*
X134061333Y-90089761D01*
X134023238Y-90127857D01*
X133985142Y-90204047D01*
X133985142Y-90394523D01*
X134023238Y-90470714D01*
X134061333Y-90508809D01*
X134137523Y-90546904D01*
X134328000Y-90546904D01*
X134404190Y-90508809D01*
X134442285Y-90470714D01*
X133642285Y-90127857D02*
X133032761Y-90127857D01*
X133032761Y-90356428D02*
X133642285Y-90356428D01*
X132842285Y-89479000D02*
X132042285Y-89479000D01*
X132194666Y-90470714D02*
X132232761Y-90508809D01*
X132347047Y-90546904D01*
X132423238Y-90546904D01*
X132537523Y-90508809D01*
X132613714Y-90432619D01*
X132651809Y-90356428D01*
X132689904Y-90204047D01*
X132689904Y-90089761D01*
X132651809Y-89937380D01*
X132613714Y-89861190D01*
X132537523Y-89785000D01*
X132423238Y-89746904D01*
X132347047Y-89746904D01*
X132232761Y-89785000D01*
X132194666Y-89823095D01*
X132042285Y-89479000D02*
X131280380Y-89479000D01*
X131889904Y-90508809D02*
X131775619Y-90546904D01*
X131585142Y-90546904D01*
X131508952Y-90508809D01*
X131470857Y-90470714D01*
X131432761Y-90394523D01*
X131432761Y-90318333D01*
X131470857Y-90242142D01*
X131508952Y-90204047D01*
X131585142Y-90165952D01*
X131737523Y-90127857D01*
X131813714Y-90089761D01*
X131851809Y-90051666D01*
X131889904Y-89975476D01*
X131889904Y-89899285D01*
X131851809Y-89823095D01*
X131813714Y-89785000D01*
X131737523Y-89746904D01*
X131547047Y-89746904D01*
X131432761Y-89785000D01*
X130442285Y-90546904D02*
X130289904Y-90546904D01*
X130213714Y-90508809D01*
X130175619Y-90470714D01*
X130099428Y-90356428D01*
X130061333Y-90204047D01*
X130061333Y-89899285D01*
X130099428Y-89823095D01*
X130137523Y-89785000D01*
X130213714Y-89746904D01*
X130366095Y-89746904D01*
X130442285Y-89785000D01*
X130480380Y-89823095D01*
X130518476Y-89899285D01*
X130518476Y-90089761D01*
X130480380Y-90165952D01*
X130442285Y-90204047D01*
X130366095Y-90242142D01*
X130213714Y-90242142D01*
X130137523Y-90204047D01*
X130099428Y-90165952D01*
X130061333Y-90089761D01*
X129794666Y-89746904D02*
X129261333Y-89746904D01*
X129604190Y-90546904D01*
X128956571Y-90127857D02*
X128347047Y-90127857D01*
X128347047Y-90356428D02*
X128956571Y-90356428D01*
X128156571Y-89479000D02*
X127356571Y-89479000D01*
X127508952Y-90546904D02*
X127775619Y-90165952D01*
X127966095Y-90546904D02*
X127966095Y-89746904D01*
X127661333Y-89746904D01*
X127585142Y-89785000D01*
X127547047Y-89823095D01*
X127508952Y-89899285D01*
X127508952Y-90013571D01*
X127547047Y-90089761D01*
X127585142Y-90127857D01*
X127661333Y-90165952D01*
X127966095Y-90165952D01*
X127356571Y-89479000D02*
X126556571Y-89479000D01*
X127166095Y-90546904D02*
X127166095Y-89746904D01*
X126975619Y-89746904D01*
X126861333Y-89785000D01*
X126785142Y-89861190D01*
X126747047Y-89937380D01*
X126708952Y-90089761D01*
X126708952Y-90204047D01*
X126747047Y-90356428D01*
X126785142Y-90432619D01*
X126861333Y-90508809D01*
X126975619Y-90546904D01*
X127166095Y-90546904D01*
X125413714Y-90013571D02*
X125413714Y-90546904D01*
X125604190Y-89708809D02*
X125794666Y-90280238D01*
X125299428Y-90280238D01*
X124994666Y-90127857D02*
X124385142Y-90127857D01*
X124385142Y-90356428D02*
X124994666Y-90356428D01*
X124194666Y-89479000D02*
X123280380Y-89479000D01*
X124080380Y-89746904D02*
X123889904Y-90546904D01*
X123737523Y-89975476D01*
X123585142Y-90546904D01*
X123394666Y-89746904D01*
X123280380Y-89479000D02*
X122480380Y-89479000D01*
X122632761Y-90546904D02*
X122899428Y-90165952D01*
X123089904Y-90546904D02*
X123089904Y-89746904D01*
X122785142Y-89746904D01*
X122708952Y-89785000D01*
X122670857Y-89823095D01*
X122632761Y-89899285D01*
X122632761Y-90013571D01*
X122670857Y-90089761D01*
X122708952Y-90127857D01*
X122785142Y-90165952D01*
X123089904Y-90165952D01*
D11*
X149098000Y-114935000D02*
X157988000Y-114935000D01*
D10*
X157409666Y-113938095D02*
X157371571Y-113900000D01*
X157295380Y-113861904D01*
X157104904Y-113861904D01*
X157028714Y-113900000D01*
X156990619Y-113938095D01*
X156952523Y-114014285D01*
X156952523Y-114090476D01*
X156990619Y-114204761D01*
X157447761Y-114661904D01*
X156952523Y-114661904D01*
X156228714Y-113861904D02*
X156609666Y-113861904D01*
X156647761Y-114242857D01*
X156609666Y-114204761D01*
X156533476Y-114166666D01*
X156343000Y-114166666D01*
X156266809Y-114204761D01*
X156228714Y-114242857D01*
X156190619Y-114319047D01*
X156190619Y-114509523D01*
X156228714Y-114585714D01*
X156266809Y-114623809D01*
X156343000Y-114661904D01*
X156533476Y-114661904D01*
X156609666Y-114623809D01*
X156647761Y-114585714D01*
X155314428Y-114738095D02*
X155390619Y-114700000D01*
X155466809Y-114623809D01*
X155581095Y-114509523D01*
X155657285Y-114471428D01*
X155733476Y-114471428D01*
X155695380Y-114661904D02*
X155771571Y-114623809D01*
X155847761Y-114547619D01*
X155885857Y-114395238D01*
X155885857Y-114128571D01*
X155847761Y-113976190D01*
X155771571Y-113900000D01*
X155695380Y-113861904D01*
X155543000Y-113861904D01*
X155466809Y-113900000D01*
X155390619Y-113976190D01*
X155352523Y-114128571D01*
X155352523Y-114395238D01*
X155390619Y-114547619D01*
X155466809Y-114623809D01*
X155543000Y-114661904D01*
X155695380Y-114661904D01*
X154590619Y-114661904D02*
X155047761Y-114661904D01*
X154819190Y-114661904D02*
X154819190Y-113861904D01*
X154895380Y-113976190D01*
X154971571Y-114052380D01*
X155047761Y-114090476D01*
X154285857Y-113938095D02*
X154247761Y-113900000D01*
X154171571Y-113861904D01*
X153981095Y-113861904D01*
X153904904Y-113900000D01*
X153866809Y-113938095D01*
X153828714Y-114014285D01*
X153828714Y-114090476D01*
X153866809Y-114204761D01*
X154323952Y-114661904D01*
X153828714Y-114661904D01*
X153371571Y-114204761D02*
X153447761Y-114166666D01*
X153485857Y-114128571D01*
X153523952Y-114052380D01*
X153523952Y-114014285D01*
X153485857Y-113938095D01*
X153447761Y-113900000D01*
X153371571Y-113861904D01*
X153219190Y-113861904D01*
X153143000Y-113900000D01*
X153104904Y-113938095D01*
X153066809Y-114014285D01*
X153066809Y-114052380D01*
X153104904Y-114128571D01*
X153143000Y-114166666D01*
X153219190Y-114204761D01*
X153371571Y-114204761D01*
X153447761Y-114242857D01*
X153485857Y-114280952D01*
X153523952Y-114357142D01*
X153523952Y-114509523D01*
X153485857Y-114585714D01*
X153447761Y-114623809D01*
X153371571Y-114661904D01*
X153219190Y-114661904D01*
X153143000Y-114623809D01*
X153104904Y-114585714D01*
X153066809Y-114509523D01*
X153066809Y-114357142D01*
X153104904Y-114280952D01*
X153143000Y-114242857D01*
X153219190Y-114204761D01*
X151581095Y-114738095D02*
X151657285Y-114700000D01*
X151733476Y-114623809D01*
X151847761Y-114509523D01*
X151923952Y-114471428D01*
X152000142Y-114471428D01*
X151962047Y-114661904D02*
X152038238Y-114623809D01*
X152114428Y-114547619D01*
X152152523Y-114395238D01*
X152152523Y-114128571D01*
X152114428Y-113976190D01*
X152038238Y-113900000D01*
X151962047Y-113861904D01*
X151809666Y-113861904D01*
X151733476Y-113900000D01*
X151657285Y-113976190D01*
X151619190Y-114128571D01*
X151619190Y-114395238D01*
X151657285Y-114547619D01*
X151733476Y-114623809D01*
X151809666Y-114661904D01*
X151962047Y-114661904D01*
X151314428Y-114623809D02*
X151200142Y-114661904D01*
X151009666Y-114661904D01*
X150933476Y-114623809D01*
X150895380Y-114585714D01*
X150857285Y-114509523D01*
X150857285Y-114433333D01*
X150895380Y-114357142D01*
X150933476Y-114319047D01*
X151009666Y-114280952D01*
X151162047Y-114242857D01*
X151238238Y-114204761D01*
X151276333Y-114166666D01*
X151314428Y-114090476D01*
X151314428Y-114014285D01*
X151276333Y-113938095D01*
X151238238Y-113900000D01*
X151162047Y-113861904D01*
X150971571Y-113861904D01*
X150857285Y-113900000D01*
X150514428Y-114661904D02*
X150514428Y-113861904D01*
X150209666Y-113861904D01*
X150133476Y-113900000D01*
X150095380Y-113938095D01*
X150057285Y-114014285D01*
X150057285Y-114128571D01*
X150095380Y-114204761D01*
X150133476Y-114242857D01*
X150209666Y-114280952D01*
X150514428Y-114280952D01*
X149714428Y-114661904D02*
X149714428Y-113861904D01*
X152926809Y-116003571D02*
X152926809Y-116536904D01*
X153117285Y-115698809D02*
X153307761Y-116270238D01*
X152812523Y-116270238D01*
X152583952Y-115736904D02*
X152088714Y-115736904D01*
X152355380Y-116041666D01*
X152241095Y-116041666D01*
X152164904Y-116079761D01*
X152126809Y-116117857D01*
X152088714Y-116194047D01*
X152088714Y-116384523D01*
X152126809Y-116460714D01*
X152164904Y-116498809D01*
X152241095Y-116536904D01*
X152469666Y-116536904D01*
X152545857Y-116498809D01*
X152583952Y-116460714D01*
X151745857Y-116117857D02*
X151136333Y-116117857D01*
X151136333Y-116346428D02*
X151745857Y-116346428D01*
X150222047Y-116613095D02*
X150298238Y-116575000D01*
X150374428Y-116498809D01*
X150488714Y-116384523D01*
X150564904Y-116346428D01*
X150641095Y-116346428D01*
X150603000Y-116536904D02*
X150679190Y-116498809D01*
X150755380Y-116422619D01*
X150793476Y-116270238D01*
X150793476Y-116003571D01*
X150755380Y-115851190D01*
X150679190Y-115775000D01*
X150603000Y-115736904D01*
X150450619Y-115736904D01*
X150374428Y-115775000D01*
X150298238Y-115851190D01*
X150260142Y-116003571D01*
X150260142Y-116270238D01*
X150298238Y-116422619D01*
X150374428Y-116498809D01*
X150450619Y-116536904D01*
X150603000Y-116536904D01*
X150107761Y-115469000D02*
X149307761Y-115469000D01*
X149460142Y-116460714D02*
X149498238Y-116498809D01*
X149612523Y-116536904D01*
X149688714Y-116536904D01*
X149803000Y-116498809D01*
X149879190Y-116422619D01*
X149917285Y-116346428D01*
X149955380Y-116194047D01*
X149955380Y-116079761D01*
X149917285Y-115927380D01*
X149879190Y-115851190D01*
X149803000Y-115775000D01*
X149688714Y-115736904D01*
X149612523Y-115736904D01*
X149498238Y-115775000D01*
X149460142Y-115813095D01*
X149307761Y-115469000D02*
X148545857Y-115469000D01*
X149155380Y-116498809D02*
X149041095Y-116536904D01*
X148850619Y-116536904D01*
X148774428Y-116498809D01*
X148736333Y-116460714D01*
X148698238Y-116384523D01*
X148698238Y-116308333D01*
X148736333Y-116232142D01*
X148774428Y-116194047D01*
X148850619Y-116155952D01*
X149003000Y-116117857D01*
X149079190Y-116079761D01*
X149117285Y-116041666D01*
X149155380Y-115965476D01*
X149155380Y-115889285D01*
X149117285Y-115813095D01*
X149079190Y-115775000D01*
X149003000Y-115736904D01*
X148812523Y-115736904D01*
X148698238Y-115775000D01*
X152926809Y-117303571D02*
X152926809Y-117836904D01*
X153117285Y-116998809D02*
X153307761Y-117570238D01*
X152812523Y-117570238D01*
X152164904Y-117303571D02*
X152164904Y-117836904D01*
X152355380Y-116998809D02*
X152545857Y-117570238D01*
X152050619Y-117570238D01*
X151745857Y-117417857D02*
X151136333Y-117417857D01*
X151136333Y-117646428D02*
X151745857Y-117646428D01*
X150222047Y-117913095D02*
X150298238Y-117875000D01*
X150374428Y-117798809D01*
X150488714Y-117684523D01*
X150564904Y-117646428D01*
X150641095Y-117646428D01*
X150603000Y-117836904D02*
X150679190Y-117798809D01*
X150755380Y-117722619D01*
X150793476Y-117570238D01*
X150793476Y-117303571D01*
X150755380Y-117151190D01*
X150679190Y-117075000D01*
X150603000Y-117036904D01*
X150450619Y-117036904D01*
X150374428Y-117075000D01*
X150298238Y-117151190D01*
X150260142Y-117303571D01*
X150260142Y-117570238D01*
X150298238Y-117722619D01*
X150374428Y-117798809D01*
X150450619Y-117836904D01*
X150603000Y-117836904D01*
X149917285Y-117836904D02*
X149917285Y-117036904D01*
X149726809Y-117036904D01*
X149612523Y-117075000D01*
X149536333Y-117151190D01*
X149498238Y-117227380D01*
X149460142Y-117379761D01*
X149460142Y-117494047D01*
X149498238Y-117646428D01*
X149536333Y-117722619D01*
X149612523Y-117798809D01*
X149726809Y-117836904D01*
X149917285Y-117836904D01*
X148698238Y-117836904D02*
X149155380Y-117836904D01*
X148926809Y-117836904D02*
X148926809Y-117036904D01*
X149003000Y-117151190D01*
X149079190Y-117227380D01*
X149155380Y-117265476D01*
X152926809Y-118603571D02*
X152926809Y-119136904D01*
X153117285Y-118298809D02*
X153307761Y-118870238D01*
X152812523Y-118870238D01*
X152126809Y-118336904D02*
X152507761Y-118336904D01*
X152545857Y-118717857D01*
X152507761Y-118679761D01*
X152431571Y-118641666D01*
X152241095Y-118641666D01*
X152164904Y-118679761D01*
X152126809Y-118717857D01*
X152088714Y-118794047D01*
X152088714Y-118984523D01*
X152126809Y-119060714D01*
X152164904Y-119098809D01*
X152241095Y-119136904D01*
X152431571Y-119136904D01*
X152507761Y-119098809D01*
X152545857Y-119060714D01*
X151745857Y-118717857D02*
X151136333Y-118717857D01*
X151136333Y-118946428D02*
X151745857Y-118946428D01*
X150222047Y-119213095D02*
X150298238Y-119175000D01*
X150374428Y-119098809D01*
X150488714Y-118984523D01*
X150564904Y-118946428D01*
X150641095Y-118946428D01*
X150603000Y-119136904D02*
X150679190Y-119098809D01*
X150755380Y-119022619D01*
X150793476Y-118870238D01*
X150793476Y-118603571D01*
X150755380Y-118451190D01*
X150679190Y-118375000D01*
X150603000Y-118336904D01*
X150450619Y-118336904D01*
X150374428Y-118375000D01*
X150298238Y-118451190D01*
X150260142Y-118603571D01*
X150260142Y-118870238D01*
X150298238Y-119022619D01*
X150374428Y-119098809D01*
X150450619Y-119136904D01*
X150603000Y-119136904D01*
X149917285Y-119136904D02*
X149917285Y-118336904D01*
X149726809Y-118336904D01*
X149612523Y-118375000D01*
X149536333Y-118451190D01*
X149498238Y-118527380D01*
X149460142Y-118679761D01*
X149460142Y-118794047D01*
X149498238Y-118946428D01*
X149536333Y-119022619D01*
X149612523Y-119098809D01*
X149726809Y-119136904D01*
X149917285Y-119136904D01*
X149155380Y-118413095D02*
X149117285Y-118375000D01*
X149041095Y-118336904D01*
X148850619Y-118336904D01*
X148774428Y-118375000D01*
X148736333Y-118413095D01*
X148698238Y-118489285D01*
X148698238Y-118565476D01*
X148736333Y-118679761D01*
X149193476Y-119136904D01*
X148698238Y-119136904D01*
X158006809Y-116003571D02*
X158006809Y-116536904D01*
X158197285Y-115698809D02*
X158387761Y-116270238D01*
X157892523Y-116270238D01*
X157435380Y-115736904D02*
X157359190Y-115736904D01*
X157283000Y-115775000D01*
X157244904Y-115813095D01*
X157206809Y-115889285D01*
X157168714Y-116041666D01*
X157168714Y-116232142D01*
X157206809Y-116384523D01*
X157244904Y-116460714D01*
X157283000Y-116498809D01*
X157359190Y-116536904D01*
X157435380Y-116536904D01*
X157511571Y-116498809D01*
X157549666Y-116460714D01*
X157587761Y-116384523D01*
X157625857Y-116232142D01*
X157625857Y-116041666D01*
X157587761Y-115889285D01*
X157549666Y-115813095D01*
X157511571Y-115775000D01*
X157435380Y-115736904D01*
X156825857Y-116117857D02*
X156216333Y-116117857D01*
X156216333Y-116346428D02*
X156825857Y-116346428D01*
X155302047Y-116613095D02*
X155378238Y-116575000D01*
X155454428Y-116498809D01*
X155568714Y-116384523D01*
X155644904Y-116346428D01*
X155721095Y-116346428D01*
X155683000Y-116536904D02*
X155759190Y-116498809D01*
X155835380Y-116422619D01*
X155873476Y-116270238D01*
X155873476Y-116003571D01*
X155835380Y-115851190D01*
X155759190Y-115775000D01*
X155683000Y-115736904D01*
X155530619Y-115736904D01*
X155454428Y-115775000D01*
X155378238Y-115851190D01*
X155340142Y-116003571D01*
X155340142Y-116270238D01*
X155378238Y-116422619D01*
X155454428Y-116498809D01*
X155530619Y-116536904D01*
X155683000Y-116536904D01*
X154997285Y-116536904D02*
X154997285Y-115736904D01*
X154806809Y-115736904D01*
X154692523Y-115775000D01*
X154616333Y-115851190D01*
X154578238Y-115927380D01*
X154540142Y-116079761D01*
X154540142Y-116194047D01*
X154578238Y-116346428D01*
X154616333Y-116422619D01*
X154692523Y-116498809D01*
X154806809Y-116536904D01*
X154997285Y-116536904D01*
X154044904Y-115736904D02*
X153968714Y-115736904D01*
X153892523Y-115775000D01*
X153854428Y-115813095D01*
X153816333Y-115889285D01*
X153778238Y-116041666D01*
X153778238Y-116232142D01*
X153816333Y-116384523D01*
X153854428Y-116460714D01*
X153892523Y-116498809D01*
X153968714Y-116536904D01*
X154044904Y-116536904D01*
X154121095Y-116498809D01*
X154159190Y-116460714D01*
X154197285Y-116384523D01*
X154235380Y-116232142D01*
X154235380Y-116041666D01*
X154197285Y-115889285D01*
X154159190Y-115813095D01*
X154121095Y-115775000D01*
X154044904Y-115736904D01*
X158025857Y-117303571D02*
X158025857Y-117836904D01*
X158216333Y-116998809D02*
X158406809Y-117570238D01*
X157911571Y-117570238D01*
X157187761Y-117836904D02*
X157644904Y-117836904D01*
X157416333Y-117836904D02*
X157416333Y-117036904D01*
X157492523Y-117151190D01*
X157568714Y-117227380D01*
X157644904Y-117265476D01*
X156844904Y-117417857D02*
X156235380Y-117417857D01*
X156235380Y-117646428D02*
X156844904Y-117646428D01*
X155321095Y-117913095D02*
X155397285Y-117875000D01*
X155473476Y-117798809D01*
X155587761Y-117684523D01*
X155663952Y-117646428D01*
X155740142Y-117646428D01*
X155702047Y-117836904D02*
X155778238Y-117798809D01*
X155854428Y-117722619D01*
X155892523Y-117570238D01*
X155892523Y-117303571D01*
X155854428Y-117151190D01*
X155778238Y-117075000D01*
X155702047Y-117036904D01*
X155549666Y-117036904D01*
X155473476Y-117075000D01*
X155397285Y-117151190D01*
X155359190Y-117303571D01*
X155359190Y-117570238D01*
X155397285Y-117722619D01*
X155473476Y-117798809D01*
X155549666Y-117836904D01*
X155702047Y-117836904D01*
X154559190Y-117760714D02*
X154597285Y-117798809D01*
X154711571Y-117836904D01*
X154787761Y-117836904D01*
X154902047Y-117798809D01*
X154978238Y-117722619D01*
X155016333Y-117646428D01*
X155054428Y-117494047D01*
X155054428Y-117379761D01*
X155016333Y-117227380D01*
X154978238Y-117151190D01*
X154902047Y-117075000D01*
X154787761Y-117036904D01*
X154711571Y-117036904D01*
X154597285Y-117075000D01*
X154559190Y-117113095D01*
X154216333Y-117836904D02*
X154216333Y-117036904D01*
X153759190Y-117836904D02*
X154102047Y-117379761D01*
X153759190Y-117036904D02*
X154216333Y-117494047D01*
X158006809Y-118603571D02*
X158006809Y-119136904D01*
X158197285Y-118298809D02*
X158387761Y-118870238D01*
X157892523Y-118870238D01*
X157625857Y-118413095D02*
X157587761Y-118375000D01*
X157511571Y-118336904D01*
X157321095Y-118336904D01*
X157244904Y-118375000D01*
X157206809Y-118413095D01*
X157168714Y-118489285D01*
X157168714Y-118565476D01*
X157206809Y-118679761D01*
X157663952Y-119136904D01*
X157168714Y-119136904D01*
X156825857Y-118717857D02*
X156216333Y-118717857D01*
X156216333Y-118946428D02*
X156825857Y-118946428D01*
X155302047Y-119213095D02*
X155378238Y-119175000D01*
X155454428Y-119098809D01*
X155568714Y-118984523D01*
X155644904Y-118946428D01*
X155721095Y-118946428D01*
X155683000Y-119136904D02*
X155759190Y-119098809D01*
X155835380Y-119022619D01*
X155873476Y-118870238D01*
X155873476Y-118603571D01*
X155835380Y-118451190D01*
X155759190Y-118375000D01*
X155683000Y-118336904D01*
X155530619Y-118336904D01*
X155454428Y-118375000D01*
X155378238Y-118451190D01*
X155340142Y-118603571D01*
X155340142Y-118870238D01*
X155378238Y-119022619D01*
X155454428Y-119098809D01*
X155530619Y-119136904D01*
X155683000Y-119136904D01*
X154997285Y-119136904D02*
X154997285Y-118336904D01*
X154806809Y-118336904D01*
X154692523Y-118375000D01*
X154616333Y-118451190D01*
X154578238Y-118527380D01*
X154540142Y-118679761D01*
X154540142Y-118794047D01*
X154578238Y-118946428D01*
X154616333Y-119022619D01*
X154692523Y-119098809D01*
X154806809Y-119136904D01*
X154997285Y-119136904D01*
X154273476Y-118336904D02*
X153778238Y-118336904D01*
X154044904Y-118641666D01*
X153930619Y-118641666D01*
X153854428Y-118679761D01*
X153816333Y-118717857D01*
X153778238Y-118794047D01*
X153778238Y-118984523D01*
X153816333Y-119060714D01*
X153854428Y-119098809D01*
X153930619Y-119136904D01*
X154159190Y-119136904D01*
X154235380Y-119098809D01*
X154273476Y-119060714D01*
X157079904Y-120789761D02*
X157079904Y-120332619D01*
X157079904Y-120561190D02*
X156279904Y-120561190D01*
X156394190Y-120485000D01*
X156470380Y-120408809D01*
X156508476Y-120332619D01*
X156356095Y-121094523D02*
X156318000Y-121132619D01*
X156279904Y-121208809D01*
X156279904Y-121399285D01*
X156318000Y-121475476D01*
X156356095Y-121513571D01*
X156432285Y-121551666D01*
X156508476Y-121551666D01*
X156622761Y-121513571D01*
X157079904Y-121056428D01*
X157079904Y-121551666D01*
X156279904Y-121780238D02*
X157079904Y-122046904D01*
X156279904Y-122313571D01*
X153778000Y-120675476D02*
X153739904Y-120599285D01*
X153739904Y-120485000D01*
X153778000Y-120370714D01*
X153854190Y-120294523D01*
X153930380Y-120256428D01*
X154082761Y-120218333D01*
X154197047Y-120218333D01*
X154349428Y-120256428D01*
X154425619Y-120294523D01*
X154501809Y-120370714D01*
X154539904Y-120485000D01*
X154539904Y-120561190D01*
X154501809Y-120675476D01*
X154463714Y-120713571D01*
X154197047Y-120713571D01*
X154197047Y-120561190D01*
X154539904Y-121056428D02*
X153739904Y-121056428D01*
X154539904Y-121513571D01*
X153739904Y-121513571D01*
X154539904Y-121894523D02*
X153739904Y-121894523D01*
X153739904Y-122085000D01*
X153778000Y-122199285D01*
X153854190Y-122275476D01*
X153930380Y-122313571D01*
X154082761Y-122351666D01*
X154197047Y-122351666D01*
X154349428Y-122313571D01*
X154425619Y-122275476D01*
X154501809Y-122199285D01*
X154539904Y-122085000D01*
X154539904Y-121894523D01*
X151238000Y-120675476D02*
X151199904Y-120599285D01*
X151199904Y-120485000D01*
X151238000Y-120370714D01*
X151314190Y-120294523D01*
X151390380Y-120256428D01*
X151542761Y-120218333D01*
X151657047Y-120218333D01*
X151809428Y-120256428D01*
X151885619Y-120294523D01*
X151961809Y-120370714D01*
X151999904Y-120485000D01*
X151999904Y-120561190D01*
X151961809Y-120675476D01*
X151923714Y-120713571D01*
X151657047Y-120713571D01*
X151657047Y-120561190D01*
X151999904Y-121056428D02*
X151199904Y-121056428D01*
X151999904Y-121513571D01*
X151199904Y-121513571D01*
X151999904Y-121894523D02*
X151199904Y-121894523D01*
X151199904Y-122085000D01*
X151238000Y-122199285D01*
X151314190Y-122275476D01*
X151390380Y-122313571D01*
X151542761Y-122351666D01*
X151657047Y-122351666D01*
X151809428Y-122313571D01*
X151885619Y-122275476D01*
X151961809Y-122199285D01*
X151999904Y-122085000D01*
X151999904Y-121894523D01*
X148659904Y-121132619D02*
X148659904Y-120751666D01*
X149040857Y-120713571D01*
X149002761Y-120751666D01*
X148964666Y-120827857D01*
X148964666Y-121018333D01*
X149002761Y-121094523D01*
X149040857Y-121132619D01*
X149117047Y-121170714D01*
X149307523Y-121170714D01*
X149383714Y-121132619D01*
X149421809Y-121094523D01*
X149459904Y-121018333D01*
X149459904Y-120827857D01*
X149421809Y-120751666D01*
X149383714Y-120713571D01*
X148659904Y-121399285D02*
X149459904Y-121665952D01*
X148659904Y-121932619D01*
X146119904Y-120104047D02*
X146119904Y-120599285D01*
X146424666Y-120332619D01*
X146424666Y-120446904D01*
X146462761Y-120523095D01*
X146500857Y-120561190D01*
X146577047Y-120599285D01*
X146767523Y-120599285D01*
X146843714Y-120561190D01*
X146881809Y-120523095D01*
X146919904Y-120446904D01*
X146919904Y-120218333D01*
X146881809Y-120142142D01*
X146843714Y-120104047D01*
X146843714Y-120942142D02*
X146881809Y-120980238D01*
X146919904Y-120942142D01*
X146881809Y-120904047D01*
X146843714Y-120942142D01*
X146919904Y-120942142D01*
X146119904Y-121246904D02*
X146119904Y-121742142D01*
X146424666Y-121475476D01*
X146424666Y-121589761D01*
X146462761Y-121665952D01*
X146500857Y-121704047D01*
X146577047Y-121742142D01*
X146767523Y-121742142D01*
X146843714Y-121704047D01*
X146881809Y-121665952D01*
X146919904Y-121589761D01*
X146919904Y-121361190D01*
X146881809Y-121285000D01*
X146843714Y-121246904D01*
X146119904Y-121970714D02*
X146919904Y-122237380D01*
X146119904Y-122504047D01*
X143579904Y-121056428D02*
X143579904Y-120904047D01*
X143618000Y-120827857D01*
X143656095Y-120789761D01*
X143770380Y-120713571D01*
X143922761Y-120675476D01*
X144227523Y-120675476D01*
X144303714Y-120713571D01*
X144341809Y-120751666D01*
X144379904Y-120827857D01*
X144379904Y-120980238D01*
X144341809Y-121056428D01*
X144303714Y-121094523D01*
X144227523Y-121132619D01*
X144037047Y-121132619D01*
X143960857Y-121094523D01*
X143922761Y-121056428D01*
X143884666Y-120980238D01*
X143884666Y-120827857D01*
X143922761Y-120751666D01*
X143960857Y-120713571D01*
X144037047Y-120675476D01*
X143656095Y-121437380D02*
X143618000Y-121475476D01*
X143579904Y-121551666D01*
X143579904Y-121742142D01*
X143618000Y-121818333D01*
X143656095Y-121856428D01*
X143732285Y-121894523D01*
X143808476Y-121894523D01*
X143922761Y-121856428D01*
X144379904Y-121399285D01*
X144379904Y-121894523D01*
X141039904Y-120104047D02*
X141039904Y-120599285D01*
X141344666Y-120332619D01*
X141344666Y-120446904D01*
X141382761Y-120523095D01*
X141420857Y-120561190D01*
X141497047Y-120599285D01*
X141687523Y-120599285D01*
X141763714Y-120561190D01*
X141801809Y-120523095D01*
X141839904Y-120446904D01*
X141839904Y-120218333D01*
X141801809Y-120142142D01*
X141763714Y-120104047D01*
X141763714Y-120942142D02*
X141801809Y-120980238D01*
X141839904Y-120942142D01*
X141801809Y-120904047D01*
X141763714Y-120942142D01*
X141839904Y-120942142D01*
X141039904Y-121246904D02*
X141039904Y-121742142D01*
X141344666Y-121475476D01*
X141344666Y-121589761D01*
X141382761Y-121665952D01*
X141420857Y-121704047D01*
X141497047Y-121742142D01*
X141687523Y-121742142D01*
X141763714Y-121704047D01*
X141801809Y-121665952D01*
X141839904Y-121589761D01*
X141839904Y-121361190D01*
X141801809Y-121285000D01*
X141763714Y-121246904D01*
X141039904Y-121970714D02*
X141839904Y-122237380D01*
X141039904Y-122504047D01*
X161626571Y-121056428D02*
X162159904Y-121056428D01*
X161321809Y-120865952D02*
X161893238Y-120675476D01*
X161893238Y-121170714D01*
X161359904Y-121818333D02*
X161359904Y-121665952D01*
X161398000Y-121589761D01*
X161436095Y-121551666D01*
X161550380Y-121475476D01*
X161702761Y-121437380D01*
X162007523Y-121437380D01*
X162083714Y-121475476D01*
X162121809Y-121513571D01*
X162159904Y-121589761D01*
X162159904Y-121742142D01*
X162121809Y-121818333D01*
X162083714Y-121856428D01*
X162007523Y-121894523D01*
X161817047Y-121894523D01*
X161740857Y-121856428D01*
X161702761Y-121818333D01*
X161664666Y-121742142D01*
X161664666Y-121589761D01*
X161702761Y-121513571D01*
X161740857Y-121475476D01*
X161817047Y-121437380D01*
X163899904Y-121094523D02*
X163899904Y-120713571D01*
X164280857Y-120675476D01*
X164242761Y-120713571D01*
X164204666Y-120789761D01*
X164204666Y-120980238D01*
X164242761Y-121056428D01*
X164280857Y-121094523D01*
X164357047Y-121132619D01*
X164547523Y-121132619D01*
X164623714Y-121094523D01*
X164661809Y-121056428D01*
X164699904Y-120980238D01*
X164699904Y-120789761D01*
X164661809Y-120713571D01*
X164623714Y-120675476D01*
X163899904Y-121399285D02*
X163899904Y-121932619D01*
X164699904Y-121589761D01*
X166439904Y-121094523D02*
X166439904Y-120713571D01*
X166820857Y-120675476D01*
X166782761Y-120713571D01*
X166744666Y-120789761D01*
X166744666Y-120980238D01*
X166782761Y-121056428D01*
X166820857Y-121094523D01*
X166897047Y-121132619D01*
X167087523Y-121132619D01*
X167163714Y-121094523D01*
X167201809Y-121056428D01*
X167239904Y-120980238D01*
X167239904Y-120789761D01*
X167201809Y-120713571D01*
X167163714Y-120675476D01*
X166782761Y-121589761D02*
X166744666Y-121513571D01*
X166706571Y-121475476D01*
X166630380Y-121437380D01*
X166592285Y-121437380D01*
X166516095Y-121475476D01*
X166478000Y-121513571D01*
X166439904Y-121589761D01*
X166439904Y-121742142D01*
X166478000Y-121818333D01*
X166516095Y-121856428D01*
X166592285Y-121894523D01*
X166630380Y-121894523D01*
X166706571Y-121856428D01*
X166744666Y-121818333D01*
X166782761Y-121742142D01*
X166782761Y-121589761D01*
X166820857Y-121513571D01*
X166858952Y-121475476D01*
X166935142Y-121437380D01*
X167087523Y-121437380D01*
X167163714Y-121475476D01*
X167201809Y-121513571D01*
X167239904Y-121589761D01*
X167239904Y-121742142D01*
X167201809Y-121818333D01*
X167163714Y-121856428D01*
X167087523Y-121894523D01*
X166935142Y-121894523D01*
X166858952Y-121856428D01*
X166820857Y-121818333D01*
X166782761Y-121742142D01*
X168979904Y-121094523D02*
X168979904Y-120713571D01*
X169360857Y-120675476D01*
X169322761Y-120713571D01*
X169284666Y-120789761D01*
X169284666Y-120980238D01*
X169322761Y-121056428D01*
X169360857Y-121094523D01*
X169437047Y-121132619D01*
X169627523Y-121132619D01*
X169703714Y-121094523D01*
X169741809Y-121056428D01*
X169779904Y-120980238D01*
X169779904Y-120789761D01*
X169741809Y-120713571D01*
X169703714Y-120675476D01*
X169779904Y-121513571D02*
X169779904Y-121665952D01*
X169741809Y-121742142D01*
X169703714Y-121780238D01*
X169589428Y-121856428D01*
X169437047Y-121894523D01*
X169132285Y-121894523D01*
X169056095Y-121856428D01*
X169018000Y-121818333D01*
X168979904Y-121742142D01*
X168979904Y-121589761D01*
X169018000Y-121513571D01*
X169056095Y-121475476D01*
X169132285Y-121437380D01*
X169322761Y-121437380D01*
X169398952Y-121475476D01*
X169437047Y-121513571D01*
X169475142Y-121589761D01*
X169475142Y-121742142D01*
X169437047Y-121818333D01*
X169398952Y-121856428D01*
X169322761Y-121894523D01*
X171519904Y-121056428D02*
X171519904Y-120904047D01*
X171558000Y-120827857D01*
X171596095Y-120789761D01*
X171710380Y-120713571D01*
X171862761Y-120675476D01*
X172167523Y-120675476D01*
X172243714Y-120713571D01*
X172281809Y-120751666D01*
X172319904Y-120827857D01*
X172319904Y-120980238D01*
X172281809Y-121056428D01*
X172243714Y-121094523D01*
X172167523Y-121132619D01*
X171977047Y-121132619D01*
X171900857Y-121094523D01*
X171862761Y-121056428D01*
X171824666Y-120980238D01*
X171824666Y-120827857D01*
X171862761Y-120751666D01*
X171900857Y-120713571D01*
X171977047Y-120675476D01*
X171519904Y-121627857D02*
X171519904Y-121704047D01*
X171558000Y-121780238D01*
X171596095Y-121818333D01*
X171672285Y-121856428D01*
X171824666Y-121894523D01*
X172015142Y-121894523D01*
X172167523Y-121856428D01*
X172243714Y-121818333D01*
X172281809Y-121780238D01*
X172319904Y-121704047D01*
X172319904Y-121627857D01*
X172281809Y-121551666D01*
X172243714Y-121513571D01*
X172167523Y-121475476D01*
X172015142Y-121437380D01*
X171824666Y-121437380D01*
X171672285Y-121475476D01*
X171596095Y-121513571D01*
X171558000Y-121551666D01*
X171519904Y-121627857D01*
X174059904Y-121056428D02*
X174059904Y-120904047D01*
X174098000Y-120827857D01*
X174136095Y-120789761D01*
X174250380Y-120713571D01*
X174402761Y-120675476D01*
X174707523Y-120675476D01*
X174783714Y-120713571D01*
X174821809Y-120751666D01*
X174859904Y-120827857D01*
X174859904Y-120980238D01*
X174821809Y-121056428D01*
X174783714Y-121094523D01*
X174707523Y-121132619D01*
X174517047Y-121132619D01*
X174440857Y-121094523D01*
X174402761Y-121056428D01*
X174364666Y-120980238D01*
X174364666Y-120827857D01*
X174402761Y-120751666D01*
X174440857Y-120713571D01*
X174517047Y-120675476D01*
X174859904Y-121894523D02*
X174859904Y-121437380D01*
X174859904Y-121665952D02*
X174059904Y-121665952D01*
X174174190Y-121589761D01*
X174250380Y-121513571D01*
X174288476Y-121437380D01*
X134689904Y-76924047D02*
X134689904Y-77419285D01*
X134994666Y-77152619D01*
X134994666Y-77266904D01*
X135032761Y-77343095D01*
X135070857Y-77381190D01*
X135147047Y-77419285D01*
X135337523Y-77419285D01*
X135413714Y-77381190D01*
X135451809Y-77343095D01*
X135489904Y-77266904D01*
X135489904Y-77038333D01*
X135451809Y-76962142D01*
X135413714Y-76924047D01*
X135413714Y-77762142D02*
X135451809Y-77800238D01*
X135489904Y-77762142D01*
X135451809Y-77724047D01*
X135413714Y-77762142D01*
X135489904Y-77762142D01*
X134689904Y-78066904D02*
X134689904Y-78562142D01*
X134994666Y-78295476D01*
X134994666Y-78409761D01*
X135032761Y-78485952D01*
X135070857Y-78524047D01*
X135147047Y-78562142D01*
X135337523Y-78562142D01*
X135413714Y-78524047D01*
X135451809Y-78485952D01*
X135489904Y-78409761D01*
X135489904Y-78181190D01*
X135451809Y-78105000D01*
X135413714Y-78066904D01*
X134689904Y-78790714D02*
X135489904Y-79057380D01*
X134689904Y-79324047D01*
X137268000Y-77495476D02*
X137229904Y-77419285D01*
X137229904Y-77305000D01*
X137268000Y-77190714D01*
X137344190Y-77114523D01*
X137420380Y-77076428D01*
X137572761Y-77038333D01*
X137687047Y-77038333D01*
X137839428Y-77076428D01*
X137915619Y-77114523D01*
X137991809Y-77190714D01*
X138029904Y-77305000D01*
X138029904Y-77381190D01*
X137991809Y-77495476D01*
X137953714Y-77533571D01*
X137687047Y-77533571D01*
X137687047Y-77381190D01*
X138029904Y-77876428D02*
X137229904Y-77876428D01*
X138029904Y-78333571D01*
X137229904Y-78333571D01*
X138029904Y-78714523D02*
X137229904Y-78714523D01*
X137229904Y-78905000D01*
X137268000Y-79019285D01*
X137344190Y-79095476D01*
X137420380Y-79133571D01*
X137572761Y-79171666D01*
X137687047Y-79171666D01*
X137839428Y-79133571D01*
X137915619Y-79095476D01*
X137991809Y-79019285D01*
X138029904Y-78905000D01*
X138029904Y-78714523D01*
X169646571Y-100526904D02*
X169798952Y-100526904D01*
X169875142Y-100565000D01*
X169913238Y-100603095D01*
X169989428Y-100717380D01*
X170027523Y-100869761D01*
X170027523Y-101174523D01*
X169989428Y-101250714D01*
X169951333Y-101288809D01*
X169875142Y-101326904D01*
X169722761Y-101326904D01*
X169646571Y-101288809D01*
X169608476Y-101250714D01*
X169570380Y-101174523D01*
X169570380Y-100984047D01*
X169608476Y-100907857D01*
X169646571Y-100869761D01*
X169722761Y-100831666D01*
X169875142Y-100831666D01*
X169951333Y-100869761D01*
X169989428Y-100907857D01*
X170027523Y-100984047D01*
X169265619Y-100603095D02*
X169227523Y-100565000D01*
X169151333Y-100526904D01*
X168960857Y-100526904D01*
X168884666Y-100565000D01*
X168846571Y-100603095D01*
X168808476Y-100679285D01*
X168808476Y-100755476D01*
X168846571Y-100869761D01*
X169303714Y-101326904D01*
X168808476Y-101326904D01*
X172567523Y-100565000D02*
X172643714Y-100526904D01*
X172758000Y-100526904D01*
X172872285Y-100565000D01*
X172948476Y-100641190D01*
X172986571Y-100717380D01*
X173024666Y-100869761D01*
X173024666Y-100984047D01*
X172986571Y-101136428D01*
X172948476Y-101212619D01*
X172872285Y-101288809D01*
X172758000Y-101326904D01*
X172681809Y-101326904D01*
X172567523Y-101288809D01*
X172529428Y-101250714D01*
X172529428Y-100984047D01*
X172681809Y-100984047D01*
X172186571Y-101326904D02*
X172186571Y-100526904D01*
X171729428Y-101326904D01*
X171729428Y-100526904D01*
X171348476Y-101326904D02*
X171348476Y-100526904D01*
X171158000Y-100526904D01*
X171043714Y-100565000D01*
X170967523Y-100641190D01*
X170929428Y-100717380D01*
X170891333Y-100869761D01*
X170891333Y-100984047D01*
X170929428Y-101136428D01*
X170967523Y-101212619D01*
X171043714Y-101288809D01*
X171158000Y-101326904D01*
X171348476Y-101326904D01*
X172186571Y-97986904D02*
X172338952Y-97986904D01*
X172415142Y-98025000D01*
X172453238Y-98063095D01*
X172529428Y-98177380D01*
X172567523Y-98329761D01*
X172567523Y-98634523D01*
X172529428Y-98710714D01*
X172491333Y-98748809D01*
X172415142Y-98786904D01*
X172262761Y-98786904D01*
X172186571Y-98748809D01*
X172148476Y-98710714D01*
X172110380Y-98634523D01*
X172110380Y-98444047D01*
X172148476Y-98367857D01*
X172186571Y-98329761D01*
X172262761Y-98291666D01*
X172415142Y-98291666D01*
X172491333Y-98329761D01*
X172529428Y-98367857D01*
X172567523Y-98444047D01*
X171843714Y-97986904D02*
X171348476Y-97986904D01*
X171615142Y-98291666D01*
X171500857Y-98291666D01*
X171424666Y-98329761D01*
X171386571Y-98367857D01*
X171348476Y-98444047D01*
X171348476Y-98634523D01*
X171386571Y-98710714D01*
X171424666Y-98748809D01*
X171500857Y-98786904D01*
X171729428Y-98786904D01*
X171805619Y-98748809D01*
X171843714Y-98710714D01*
X169646571Y-97986904D02*
X169798952Y-97986904D01*
X169875142Y-98025000D01*
X169913238Y-98063095D01*
X169989428Y-98177380D01*
X170027523Y-98329761D01*
X170027523Y-98634523D01*
X169989428Y-98710714D01*
X169951333Y-98748809D01*
X169875142Y-98786904D01*
X169722761Y-98786904D01*
X169646571Y-98748809D01*
X169608476Y-98710714D01*
X169570380Y-98634523D01*
X169570380Y-98444047D01*
X169608476Y-98367857D01*
X169646571Y-98329761D01*
X169722761Y-98291666D01*
X169875142Y-98291666D01*
X169951333Y-98329761D01*
X169989428Y-98367857D01*
X170027523Y-98444047D01*
X168884666Y-98253571D02*
X168884666Y-98786904D01*
X169075142Y-97948809D02*
X169265619Y-98520238D01*
X168770380Y-98520238D01*
X169646571Y-95446904D02*
X169798952Y-95446904D01*
X169875142Y-95485000D01*
X169913238Y-95523095D01*
X169989428Y-95637380D01*
X170027523Y-95789761D01*
X170027523Y-96094523D01*
X169989428Y-96170714D01*
X169951333Y-96208809D01*
X169875142Y-96246904D01*
X169722761Y-96246904D01*
X169646571Y-96208809D01*
X169608476Y-96170714D01*
X169570380Y-96094523D01*
X169570380Y-95904047D01*
X169608476Y-95827857D01*
X169646571Y-95789761D01*
X169722761Y-95751666D01*
X169875142Y-95751666D01*
X169951333Y-95789761D01*
X169989428Y-95827857D01*
X170027523Y-95904047D01*
X168846571Y-95446904D02*
X169227523Y-95446904D01*
X169265619Y-95827857D01*
X169227523Y-95789761D01*
X169151333Y-95751666D01*
X168960857Y-95751666D01*
X168884666Y-95789761D01*
X168846571Y-95827857D01*
X168808476Y-95904047D01*
X168808476Y-96094523D01*
X168846571Y-96170714D01*
X168884666Y-96208809D01*
X168960857Y-96246904D01*
X169151333Y-96246904D01*
X169227523Y-96208809D01*
X169265619Y-96170714D01*
X172110380Y-95446904D02*
X172491333Y-95446904D01*
X172529428Y-95827857D01*
X172491333Y-95789761D01*
X172415142Y-95751666D01*
X172224666Y-95751666D01*
X172148476Y-95789761D01*
X172110380Y-95827857D01*
X172072285Y-95904047D01*
X172072285Y-96094523D01*
X172110380Y-96170714D01*
X172148476Y-96208809D01*
X172224666Y-96246904D01*
X172415142Y-96246904D01*
X172491333Y-96208809D01*
X172529428Y-96170714D01*
X171843714Y-95446904D02*
X171577047Y-96246904D01*
X171310380Y-95446904D01*
X129952761Y-77647857D02*
X129914666Y-77571666D01*
X129876571Y-77533571D01*
X129800380Y-77495476D01*
X129762285Y-77495476D01*
X129686095Y-77533571D01*
X129648000Y-77571666D01*
X129609904Y-77647857D01*
X129609904Y-77800238D01*
X129648000Y-77876428D01*
X129686095Y-77914523D01*
X129762285Y-77952619D01*
X129800380Y-77952619D01*
X129876571Y-77914523D01*
X129914666Y-77876428D01*
X129952761Y-77800238D01*
X129952761Y-77647857D01*
X129990857Y-77571666D01*
X130028952Y-77533571D01*
X130105142Y-77495476D01*
X130257523Y-77495476D01*
X130333714Y-77533571D01*
X130371809Y-77571666D01*
X130409904Y-77647857D01*
X130409904Y-77800238D01*
X130371809Y-77876428D01*
X130333714Y-77914523D01*
X130257523Y-77952619D01*
X130105142Y-77952619D01*
X130028952Y-77914523D01*
X129990857Y-77876428D01*
X129952761Y-77800238D01*
X129609904Y-78638333D02*
X129609904Y-78485952D01*
X129648000Y-78409761D01*
X129686095Y-78371666D01*
X129800380Y-78295476D01*
X129952761Y-78257380D01*
X130257523Y-78257380D01*
X130333714Y-78295476D01*
X130371809Y-78333571D01*
X130409904Y-78409761D01*
X130409904Y-78562142D01*
X130371809Y-78638333D01*
X130333714Y-78676428D01*
X130257523Y-78714523D01*
X130067047Y-78714523D01*
X129990857Y-78676428D01*
X129952761Y-78638333D01*
X129914666Y-78562142D01*
X129914666Y-78409761D01*
X129952761Y-78333571D01*
X129990857Y-78295476D01*
X130067047Y-78257380D01*
X132492761Y-77647857D02*
X132454666Y-77571666D01*
X132416571Y-77533571D01*
X132340380Y-77495476D01*
X132302285Y-77495476D01*
X132226095Y-77533571D01*
X132188000Y-77571666D01*
X132149904Y-77647857D01*
X132149904Y-77800238D01*
X132188000Y-77876428D01*
X132226095Y-77914523D01*
X132302285Y-77952619D01*
X132340380Y-77952619D01*
X132416571Y-77914523D01*
X132454666Y-77876428D01*
X132492761Y-77800238D01*
X132492761Y-77647857D01*
X132530857Y-77571666D01*
X132568952Y-77533571D01*
X132645142Y-77495476D01*
X132797523Y-77495476D01*
X132873714Y-77533571D01*
X132911809Y-77571666D01*
X132949904Y-77647857D01*
X132949904Y-77800238D01*
X132911809Y-77876428D01*
X132873714Y-77914523D01*
X132797523Y-77952619D01*
X132645142Y-77952619D01*
X132568952Y-77914523D01*
X132530857Y-77876428D01*
X132492761Y-77800238D01*
X132149904Y-78676428D02*
X132149904Y-78295476D01*
X132530857Y-78257380D01*
X132492761Y-78295476D01*
X132454666Y-78371666D01*
X132454666Y-78562142D01*
X132492761Y-78638333D01*
X132530857Y-78676428D01*
X132607047Y-78714523D01*
X132797523Y-78714523D01*
X132873714Y-78676428D01*
X132911809Y-78638333D01*
X132949904Y-78562142D01*
X132949904Y-78371666D01*
X132911809Y-78295476D01*
X132873714Y-78257380D01*
X140112761Y-77647857D02*
X140074666Y-77571666D01*
X140036571Y-77533571D01*
X139960380Y-77495476D01*
X139922285Y-77495476D01*
X139846095Y-77533571D01*
X139808000Y-77571666D01*
X139769904Y-77647857D01*
X139769904Y-77800238D01*
X139808000Y-77876428D01*
X139846095Y-77914523D01*
X139922285Y-77952619D01*
X139960380Y-77952619D01*
X140036571Y-77914523D01*
X140074666Y-77876428D01*
X140112761Y-77800238D01*
X140112761Y-77647857D01*
X140150857Y-77571666D01*
X140188952Y-77533571D01*
X140265142Y-77495476D01*
X140417523Y-77495476D01*
X140493714Y-77533571D01*
X140531809Y-77571666D01*
X140569904Y-77647857D01*
X140569904Y-77800238D01*
X140531809Y-77876428D01*
X140493714Y-77914523D01*
X140417523Y-77952619D01*
X140265142Y-77952619D01*
X140188952Y-77914523D01*
X140150857Y-77876428D01*
X140112761Y-77800238D01*
X140036571Y-78638333D02*
X140569904Y-78638333D01*
X139731809Y-78447857D02*
X140303238Y-78257380D01*
X140303238Y-78752619D01*
X142652761Y-77647857D02*
X142614666Y-77571666D01*
X142576571Y-77533571D01*
X142500380Y-77495476D01*
X142462285Y-77495476D01*
X142386095Y-77533571D01*
X142348000Y-77571666D01*
X142309904Y-77647857D01*
X142309904Y-77800238D01*
X142348000Y-77876428D01*
X142386095Y-77914523D01*
X142462285Y-77952619D01*
X142500380Y-77952619D01*
X142576571Y-77914523D01*
X142614666Y-77876428D01*
X142652761Y-77800238D01*
X142652761Y-77647857D01*
X142690857Y-77571666D01*
X142728952Y-77533571D01*
X142805142Y-77495476D01*
X142957523Y-77495476D01*
X143033714Y-77533571D01*
X143071809Y-77571666D01*
X143109904Y-77647857D01*
X143109904Y-77800238D01*
X143071809Y-77876428D01*
X143033714Y-77914523D01*
X142957523Y-77952619D01*
X142805142Y-77952619D01*
X142728952Y-77914523D01*
X142690857Y-77876428D01*
X142652761Y-77800238D01*
X142309904Y-78219285D02*
X142309904Y-78714523D01*
X142614666Y-78447857D01*
X142614666Y-78562142D01*
X142652761Y-78638333D01*
X142690857Y-78676428D01*
X142767047Y-78714523D01*
X142957523Y-78714523D01*
X143033714Y-78676428D01*
X143071809Y-78638333D01*
X143109904Y-78562142D01*
X143109904Y-78333571D01*
X143071809Y-78257380D01*
X143033714Y-78219285D01*
X145192761Y-77647857D02*
X145154666Y-77571666D01*
X145116571Y-77533571D01*
X145040380Y-77495476D01*
X145002285Y-77495476D01*
X144926095Y-77533571D01*
X144888000Y-77571666D01*
X144849904Y-77647857D01*
X144849904Y-77800238D01*
X144888000Y-77876428D01*
X144926095Y-77914523D01*
X145002285Y-77952619D01*
X145040380Y-77952619D01*
X145116571Y-77914523D01*
X145154666Y-77876428D01*
X145192761Y-77800238D01*
X145192761Y-77647857D01*
X145230857Y-77571666D01*
X145268952Y-77533571D01*
X145345142Y-77495476D01*
X145497523Y-77495476D01*
X145573714Y-77533571D01*
X145611809Y-77571666D01*
X145649904Y-77647857D01*
X145649904Y-77800238D01*
X145611809Y-77876428D01*
X145573714Y-77914523D01*
X145497523Y-77952619D01*
X145345142Y-77952619D01*
X145268952Y-77914523D01*
X145230857Y-77876428D01*
X145192761Y-77800238D01*
X144926095Y-78257380D02*
X144888000Y-78295476D01*
X144849904Y-78371666D01*
X144849904Y-78562142D01*
X144888000Y-78638333D01*
X144926095Y-78676428D01*
X145002285Y-78714523D01*
X145078476Y-78714523D01*
X145192761Y-78676428D01*
X145649904Y-78219285D01*
X145649904Y-78714523D01*
X147732761Y-77647857D02*
X147694666Y-77571666D01*
X147656571Y-77533571D01*
X147580380Y-77495476D01*
X147542285Y-77495476D01*
X147466095Y-77533571D01*
X147428000Y-77571666D01*
X147389904Y-77647857D01*
X147389904Y-77800238D01*
X147428000Y-77876428D01*
X147466095Y-77914523D01*
X147542285Y-77952619D01*
X147580380Y-77952619D01*
X147656571Y-77914523D01*
X147694666Y-77876428D01*
X147732761Y-77800238D01*
X147732761Y-77647857D01*
X147770857Y-77571666D01*
X147808952Y-77533571D01*
X147885142Y-77495476D01*
X148037523Y-77495476D01*
X148113714Y-77533571D01*
X148151809Y-77571666D01*
X148189904Y-77647857D01*
X148189904Y-77800238D01*
X148151809Y-77876428D01*
X148113714Y-77914523D01*
X148037523Y-77952619D01*
X147885142Y-77952619D01*
X147808952Y-77914523D01*
X147770857Y-77876428D01*
X147732761Y-77800238D01*
X148189904Y-78714523D02*
X148189904Y-78257380D01*
X148189904Y-78485952D02*
X147389904Y-78485952D01*
X147504190Y-78409761D01*
X147580380Y-78333571D01*
X147618476Y-78257380D01*
X150272761Y-77647857D02*
X150234666Y-77571666D01*
X150196571Y-77533571D01*
X150120380Y-77495476D01*
X150082285Y-77495476D01*
X150006095Y-77533571D01*
X149968000Y-77571666D01*
X149929904Y-77647857D01*
X149929904Y-77800238D01*
X149968000Y-77876428D01*
X150006095Y-77914523D01*
X150082285Y-77952619D01*
X150120380Y-77952619D01*
X150196571Y-77914523D01*
X150234666Y-77876428D01*
X150272761Y-77800238D01*
X150272761Y-77647857D01*
X150310857Y-77571666D01*
X150348952Y-77533571D01*
X150425142Y-77495476D01*
X150577523Y-77495476D01*
X150653714Y-77533571D01*
X150691809Y-77571666D01*
X150729904Y-77647857D01*
X150729904Y-77800238D01*
X150691809Y-77876428D01*
X150653714Y-77914523D01*
X150577523Y-77952619D01*
X150425142Y-77952619D01*
X150348952Y-77914523D01*
X150310857Y-77876428D01*
X150272761Y-77800238D01*
X149929904Y-78447857D02*
X149929904Y-78524047D01*
X149968000Y-78600238D01*
X150006095Y-78638333D01*
X150082285Y-78676428D01*
X150234666Y-78714523D01*
X150425142Y-78714523D01*
X150577523Y-78676428D01*
X150653714Y-78638333D01*
X150691809Y-78600238D01*
X150729904Y-78524047D01*
X150729904Y-78447857D01*
X150691809Y-78371666D01*
X150653714Y-78333571D01*
X150577523Y-78295476D01*
X150425142Y-78257380D01*
X150234666Y-78257380D01*
X150082285Y-78295476D01*
X150006095Y-78333571D01*
X149968000Y-78371666D01*
X149929904Y-78447857D01*
X152469904Y-77457380D02*
X152469904Y-77990714D01*
X153269904Y-77647857D01*
X153269904Y-78333571D02*
X153269904Y-78485952D01*
X153231809Y-78562142D01*
X153193714Y-78600238D01*
X153079428Y-78676428D01*
X152927047Y-78714523D01*
X152622285Y-78714523D01*
X152546095Y-78676428D01*
X152508000Y-78638333D01*
X152469904Y-78562142D01*
X152469904Y-78409761D01*
X152508000Y-78333571D01*
X152546095Y-78295476D01*
X152622285Y-78257380D01*
X152812761Y-78257380D01*
X152888952Y-78295476D01*
X152927047Y-78333571D01*
X152965142Y-78409761D01*
X152965142Y-78562142D01*
X152927047Y-78638333D01*
X152888952Y-78676428D01*
X152812761Y-78714523D01*
X156279904Y-77457380D02*
X156279904Y-77990714D01*
X157079904Y-77647857D01*
X156622761Y-78409761D02*
X156584666Y-78333571D01*
X156546571Y-78295476D01*
X156470380Y-78257380D01*
X156432285Y-78257380D01*
X156356095Y-78295476D01*
X156318000Y-78333571D01*
X156279904Y-78409761D01*
X156279904Y-78562142D01*
X156318000Y-78638333D01*
X156356095Y-78676428D01*
X156432285Y-78714523D01*
X156470380Y-78714523D01*
X156546571Y-78676428D01*
X156584666Y-78638333D01*
X156622761Y-78562142D01*
X156622761Y-78409761D01*
X156660857Y-78333571D01*
X156698952Y-78295476D01*
X156775142Y-78257380D01*
X156927523Y-78257380D01*
X157003714Y-78295476D01*
X157041809Y-78333571D01*
X157079904Y-78409761D01*
X157079904Y-78562142D01*
X157041809Y-78638333D01*
X157003714Y-78676428D01*
X156927523Y-78714523D01*
X156775142Y-78714523D01*
X156698952Y-78676428D01*
X156660857Y-78638333D01*
X156622761Y-78562142D01*
X158819904Y-77457380D02*
X158819904Y-77990714D01*
X159619904Y-77647857D01*
X158819904Y-78219285D02*
X158819904Y-78752619D01*
X159619904Y-78409761D01*
X161359904Y-77457380D02*
X161359904Y-77990714D01*
X162159904Y-77647857D01*
X161359904Y-78638333D02*
X161359904Y-78485952D01*
X161398000Y-78409761D01*
X161436095Y-78371666D01*
X161550380Y-78295476D01*
X161702761Y-78257380D01*
X162007523Y-78257380D01*
X162083714Y-78295476D01*
X162121809Y-78333571D01*
X162159904Y-78409761D01*
X162159904Y-78562142D01*
X162121809Y-78638333D01*
X162083714Y-78676428D01*
X162007523Y-78714523D01*
X161817047Y-78714523D01*
X161740857Y-78676428D01*
X161702761Y-78638333D01*
X161664666Y-78562142D01*
X161664666Y-78409761D01*
X161702761Y-78333571D01*
X161740857Y-78295476D01*
X161817047Y-78257380D01*
X163899904Y-77457380D02*
X163899904Y-77990714D01*
X164699904Y-77647857D01*
X163899904Y-78219285D02*
X163899904Y-78714523D01*
X164204666Y-78447857D01*
X164204666Y-78562142D01*
X164242761Y-78638333D01*
X164280857Y-78676428D01*
X164357047Y-78714523D01*
X164547523Y-78714523D01*
X164623714Y-78676428D01*
X164661809Y-78638333D01*
X164699904Y-78562142D01*
X164699904Y-78333571D01*
X164661809Y-78257380D01*
X164623714Y-78219285D01*
X166439904Y-77457380D02*
X166439904Y-77990714D01*
X167239904Y-77647857D01*
X166516095Y-78257380D02*
X166478000Y-78295476D01*
X166439904Y-78371666D01*
X166439904Y-78562142D01*
X166478000Y-78638333D01*
X166516095Y-78676428D01*
X166592285Y-78714523D01*
X166668476Y-78714523D01*
X166782761Y-78676428D01*
X167239904Y-78219285D01*
X167239904Y-78714523D01*
X168979904Y-77457380D02*
X168979904Y-77990714D01*
X169779904Y-77647857D01*
X169779904Y-78714523D02*
X169779904Y-78257380D01*
X169779904Y-78485952D02*
X168979904Y-78485952D01*
X169094190Y-78409761D01*
X169170380Y-78333571D01*
X169208476Y-78257380D01*
X171519904Y-77457380D02*
X171519904Y-77990714D01*
X172319904Y-77647857D01*
X171519904Y-78447857D02*
X171519904Y-78524047D01*
X171558000Y-78600238D01*
X171596095Y-78638333D01*
X171672285Y-78676428D01*
X171824666Y-78714523D01*
X172015142Y-78714523D01*
X172167523Y-78676428D01*
X172243714Y-78638333D01*
X172281809Y-78600238D01*
X172319904Y-78524047D01*
X172319904Y-78447857D01*
X172281809Y-78371666D01*
X172243714Y-78333571D01*
X172167523Y-78295476D01*
X172015142Y-78257380D01*
X171824666Y-78257380D01*
X171672285Y-78295476D01*
X171596095Y-78333571D01*
X171558000Y-78371666D01*
X171519904Y-78447857D01*
X174059904Y-77876428D02*
X174059904Y-77724047D01*
X174098000Y-77647857D01*
X174136095Y-77609761D01*
X174250380Y-77533571D01*
X174402761Y-77495476D01*
X174707523Y-77495476D01*
X174783714Y-77533571D01*
X174821809Y-77571666D01*
X174859904Y-77647857D01*
X174859904Y-77800238D01*
X174821809Y-77876428D01*
X174783714Y-77914523D01*
X174707523Y-77952619D01*
X174517047Y-77952619D01*
X174440857Y-77914523D01*
X174402761Y-77876428D01*
X174364666Y-77800238D01*
X174364666Y-77647857D01*
X174402761Y-77571666D01*
X174440857Y-77533571D01*
X174517047Y-77495476D01*
X174859904Y-78333571D02*
X174859904Y-78485952D01*
X174821809Y-78562142D01*
X174783714Y-78600238D01*
X174669428Y-78676428D01*
X174517047Y-78714523D01*
X174212285Y-78714523D01*
X174136095Y-78676428D01*
X174098000Y-78638333D01*
X174059904Y-78562142D01*
X174059904Y-78409761D01*
X174098000Y-78333571D01*
X174136095Y-78295476D01*
X174212285Y-78257380D01*
X174402761Y-78257380D01*
X174478952Y-78295476D01*
X174517047Y-78333571D01*
X174555142Y-78409761D01*
X174555142Y-78562142D01*
X174517047Y-78638333D01*
X174478952Y-78676428D01*
X174402761Y-78714523D01*
%LPC*%
D12*
G04 #@! TO.C,P1*
X138938000Y-123825000D03*
X141478000Y-123825000D03*
X144018000Y-123825000D03*
X146558000Y-123825000D03*
X149098000Y-123825000D03*
X151638000Y-123825000D03*
X154178000Y-123825000D03*
X156718000Y-123825000D03*
G04 #@! TD*
G04 #@! TO.C,P2*
X161798000Y-123825000D03*
X164338000Y-123825000D03*
X166878000Y-123825000D03*
X169418000Y-123825000D03*
X171958000Y-123825000D03*
X174498000Y-123825000D03*
G04 #@! TD*
G04 #@! TO.C,P3*
X129794000Y-75565000D03*
X132334000Y-75565000D03*
X134874000Y-75565000D03*
X137414000Y-75565000D03*
X139954000Y-75565000D03*
X142494000Y-75565000D03*
X145034000Y-75565000D03*
X147574000Y-75565000D03*
X150114000Y-75565000D03*
X152654000Y-75565000D03*
G04 #@! TD*
G04 #@! TO.C,P4*
X156718000Y-75565000D03*
X159258000Y-75565000D03*
X161798000Y-75565000D03*
X164338000Y-75565000D03*
X166878000Y-75565000D03*
X169418000Y-75565000D03*
X171958000Y-75565000D03*
X174498000Y-75565000D03*
G04 #@! TD*
D13*
G04 #@! TO.C,P5*
X124968000Y-123825000D03*
G04 #@! TD*
G04 #@! TO.C,P6*
X177038000Y-118745000D03*
G04 #@! TD*
G04 #@! TO.C,P7*
X126238000Y-75565000D03*
G04 #@! TD*
G04 #@! TO.C,P8*
X177038000Y-90805000D03*
G04 #@! TD*
D14*
G04 #@! TO.C,J1*
X174498000Y-95885000D03*
D15*
X177038000Y-95885000D03*
X174498000Y-98425000D03*
X177038000Y-98425000D03*
X174498000Y-100965000D03*
X177038000Y-100965000D03*
G04 #@! TD*
D16*
G04 #@! TO.C,J2*
X168148000Y-116205000D03*
D17*
X165608000Y-116205000D03*
X168148000Y-113665000D03*
X165608000Y-113665000D03*
X168148000Y-111125000D03*
X165608000Y-111125000D03*
X168148000Y-108585000D03*
X165608000Y-108585000D03*
X168148000Y-106045000D03*
X165608000Y-106045000D03*
G04 #@! TD*
D18*
G04 #@! TO.C,J4*
X115000500Y-85765000D03*
X115000500Y-90765000D03*
D19*
X112300500Y-84765000D03*
X112300500Y-91765000D03*
G04 #@! TD*
D20*
G04 #@! TO.C,SW1*
X120523000Y-75510000D03*
X120523000Y-80010000D03*
X114023000Y-75510000D03*
X114023000Y-80010000D03*
G04 #@! TD*
D21*
G04 #@! TO.C,J5*
X119428000Y-123545000D03*
D22*
X116628000Y-118745000D03*
D23*
X122428000Y-118745000D03*
G04 #@! TD*
M02*
