G04 #@! TF.GenerationSoftware,KiCad,Pcbnew,(5.0.0-3-g5ebb6b6)*
G04 #@! TF.CreationDate,2018-11-17T18:38:13+08:00*
G04 #@! TF.ProjectId,M1DKv1-A3P060,4D31444B76312D4133503036302E6B69,rev?*
G04 #@! TF.SameCoordinates,Original*
G04 #@! TF.FileFunction,Soldermask,Bot*
G04 #@! TF.FilePolarity,Negative*
%FSLAX46Y46*%
G04 Gerber Fmt 4.6, Leading zero omitted, Abs format (unit mm)*
G04 Created by KiCad (PCBNEW (5.0.0-3-g5ebb6b6)) date 2018 November 17, Saturday 18:38:13*
%MOMM*%
%LPD*%
G01*
G04 APERTURE LIST*
%ADD10O,1.727200X2.032000*%
%ADD11C,4.064000*%
%ADD12R,1.700000X1.700000*%
%ADD13O,1.700000X1.700000*%
%ADD14R,1.727200X1.727200*%
%ADD15O,1.727200X1.727200*%
%ADD16C,1.450000*%
%ADD17O,1.900000X1.200000*%
%ADD18C,2.000000*%
%ADD19O,4.000000X1.800000*%
%ADD20O,1.800000X4.000000*%
%ADD21R,1.800000X4.400000*%
G04 APERTURE END LIST*
D10*
G04 #@! TO.C,P1*
X138938000Y-123825000D03*
X141478000Y-123825000D03*
X144018000Y-123825000D03*
X146558000Y-123825000D03*
X149098000Y-123825000D03*
X151638000Y-123825000D03*
X154178000Y-123825000D03*
X156718000Y-123825000D03*
G04 #@! TD*
G04 #@! TO.C,P2*
X161798000Y-123825000D03*
X164338000Y-123825000D03*
X166878000Y-123825000D03*
X169418000Y-123825000D03*
X171958000Y-123825000D03*
X174498000Y-123825000D03*
G04 #@! TD*
G04 #@! TO.C,P3*
X129794000Y-75565000D03*
X132334000Y-75565000D03*
X134874000Y-75565000D03*
X137414000Y-75565000D03*
X139954000Y-75565000D03*
X142494000Y-75565000D03*
X145034000Y-75565000D03*
X147574000Y-75565000D03*
X150114000Y-75565000D03*
X152654000Y-75565000D03*
G04 #@! TD*
G04 #@! TO.C,P4*
X156718000Y-75565000D03*
X159258000Y-75565000D03*
X161798000Y-75565000D03*
X164338000Y-75565000D03*
X166878000Y-75565000D03*
X169418000Y-75565000D03*
X171958000Y-75565000D03*
X174498000Y-75565000D03*
G04 #@! TD*
D11*
G04 #@! TO.C,P5*
X124968000Y-123825000D03*
G04 #@! TD*
G04 #@! TO.C,P6*
X177038000Y-118745000D03*
G04 #@! TD*
G04 #@! TO.C,P7*
X126238000Y-75565000D03*
G04 #@! TD*
G04 #@! TO.C,P8*
X177038000Y-90805000D03*
G04 #@! TD*
D12*
G04 #@! TO.C,J1*
X174498000Y-95885000D03*
D13*
X177038000Y-95885000D03*
X174498000Y-98425000D03*
X177038000Y-98425000D03*
X174498000Y-100965000D03*
X177038000Y-100965000D03*
G04 #@! TD*
D14*
G04 #@! TO.C,J2*
X168148000Y-116205000D03*
D15*
X165608000Y-116205000D03*
X168148000Y-113665000D03*
X165608000Y-113665000D03*
X168148000Y-111125000D03*
X165608000Y-111125000D03*
X168148000Y-108585000D03*
X165608000Y-108585000D03*
X168148000Y-106045000D03*
X165608000Y-106045000D03*
G04 #@! TD*
D16*
G04 #@! TO.C,J4*
X115000500Y-85765000D03*
X115000500Y-90765000D03*
D17*
X112300500Y-84765000D03*
X112300500Y-91765000D03*
G04 #@! TD*
D18*
G04 #@! TO.C,SW1*
X120523000Y-75510000D03*
X120523000Y-80010000D03*
X114023000Y-75510000D03*
X114023000Y-80010000D03*
G04 #@! TD*
D19*
G04 #@! TO.C,J5*
X119428000Y-123545000D03*
D20*
X116628000Y-118745000D03*
D21*
X122428000Y-118745000D03*
G04 #@! TD*
M02*
