M48
;DRILL file {KiCad (5.0.0-3-g5ebb6b6)} date 2018 November 17, Saturday 18:38:10
;FORMAT={-:-/ absolute / inch / decimal}
FMAT,2
INCH,TZ
T1C0.0118
T2C0.0236
T3C0.0315
T4C0.0335
T5C0.0394
T6C0.0400
T7C0.0433
T8C0.1200
%
G90
G05
M72
T1
X4.57Y-3.875
X4.67Y-4.15
X4.72Y-3.875
X4.745Y-3.9
X4.845Y-3.75
X4.895Y-3.8
X4.895Y-4.075
X4.92Y-3.25
X4.92Y-3.7
X4.92Y-4.1
X4.945Y-3.95
X4.945Y-4.025
X4.97Y-3.7
X4.97Y-3.925
X4.97Y-4.
X4.97Y-4.05
X4.97Y-4.1
X4.995Y-4.025
X5.02Y-3.7
X5.02Y-3.9
X5.02Y-3.95
X5.045Y-4.125
X5.07Y-3.7
X5.07Y-4.15
X5.07Y-4.2
X5.07Y-4.275
X5.095Y-4.025
X5.12Y-3.7
X5.12Y-4.
X5.12Y-4.05
X5.12Y-4.2
X5.145Y-3.975
X5.145Y-4.025
X5.145Y-4.075
X5.145Y-4.225
X5.17Y-3.7
X5.17Y-3.85
X5.17Y-3.95
X5.17Y-4.
X5.17Y-4.05
X5.17Y-4.1
X5.17Y-4.2
X5.1923Y-3.975
X5.195Y-4.025
X5.195Y-4.075
X5.22Y-3.6
X5.22Y-4.
X5.22Y-4.05
X5.245Y-4.025
X5.2712Y-3.6988
X5.32Y-3.7
X5.32Y-4.675
X5.345Y-4.025
X5.37Y-3.7
X5.37Y-4.
X5.42Y-3.7
X5.42Y-4.3
X5.47Y-3.6
X5.47Y-4.
X5.47Y-4.1
X5.52Y-4.35
X5.595Y-4.25
X5.62Y-4.1
X5.62Y-4.2
X5.645Y-4.3
X5.67Y-3.6
X5.695Y-3.625
X5.72Y-3.6
X5.72Y-3.65
X5.745Y-4.05
X5.77Y-4.125
X5.77Y-4.675
X5.795Y-4.15
X5.82Y-4.125
X5.845Y-3.75
X5.845Y-4.15
X5.87Y-3.775
X5.87Y-4.125
X5.895Y-3.75
X5.895Y-3.8
X5.895Y-4.15
X5.92Y-3.775
X5.92Y-3.825
X5.92Y-4.125
X5.945Y-3.75
X5.945Y-3.8
X5.945Y-3.85
X5.945Y-4.15
X5.97Y-3.825
X5.97Y-3.875
X5.97Y-4.125
X5.995Y-3.45
X5.995Y-3.75
X5.995Y-3.8
X5.995Y-3.85
X5.995Y-3.9
X5.995Y-4.15
X5.995Y-4.375
X5.9962Y-4.2262
X6.02Y-3.775
X6.02Y-3.825
X6.02Y-3.875
X6.02Y-3.925
X6.02Y-4.125
X6.02Y-4.25
X6.045Y-3.8
X6.045Y-3.85
X6.045Y-3.9
X6.045Y-3.95
X6.045Y-4.15
X6.045Y-4.2
X6.0737Y-3.65
X6.095Y-3.8
X6.095Y-3.85
X6.095Y-3.9
X6.095Y-3.95
X6.095Y-4.
X6.095Y-4.05
X6.095Y-4.1
X6.095Y-4.15
X6.095Y-4.2
X6.12Y-3.825
X6.12Y-3.875
X6.12Y-3.925
X6.12Y-3.975
X6.12Y-4.025
X6.12Y-4.075
X6.12Y-4.125
X6.12Y-4.175
X6.145Y-3.8
X6.145Y-3.85
X6.145Y-3.9
X6.145Y-3.95
X6.145Y-4.
X6.145Y-4.05
X6.145Y-4.1
X6.145Y-4.15
X6.17Y-3.825
X6.17Y-3.875
X6.17Y-3.925
X6.17Y-3.975
X6.17Y-4.025
X6.17Y-4.075
X6.17Y-4.125
X6.17Y-4.25
X6.17Y-4.525
X6.195Y-3.8
X6.195Y-3.85
X6.195Y-3.9
X6.195Y-3.95
X6.195Y-4.
X6.195Y-4.05
X6.195Y-4.1
X6.22Y-4.2
X6.2312Y-4.2388
X6.245Y-3.825
X6.245Y-3.95
X6.27Y-3.625
X6.32Y-3.725
X6.345Y-3.925
X6.345Y-4.25
X6.3521Y-3.7835
X6.395Y-4.4
X6.42Y-3.7
X6.42Y-4.225
X6.445Y-3.25
X6.445Y-3.4
X6.545Y-3.125
X6.545Y-3.25
X6.545Y-3.4
X6.545Y-3.5
X6.645Y-3.25
X6.645Y-3.4
X6.895Y-4.15
X6.895Y-4.325
X6.92Y-4.125
X6.92Y-4.575
X6.945Y-4.15
X6.945Y-4.55
X6.97Y-4.525
X6.995Y-4.5
X6.995Y-4.55
X7.02Y-4.475
X7.02Y-4.525
X7.02Y-4.575
T4
X4.5276Y-3.3766
X4.5276Y-3.5734
T5
X6.87Y-3.775
X6.87Y-3.875
X6.87Y-3.975
X6.97Y-3.775
X6.97Y-3.875
X6.97Y-3.975
T6
X5.11Y-2.975
X5.21Y-2.975
X5.31Y-2.975
X5.41Y-2.975
X5.51Y-2.975
X5.61Y-2.975
X5.71Y-2.975
X5.81Y-2.975
X5.91Y-2.975
X6.01Y-2.975
X6.52Y-4.175
X6.52Y-4.275
X6.52Y-4.375
X6.52Y-4.475
X6.52Y-4.575
X6.62Y-4.175
X6.62Y-4.275
X6.62Y-4.375
X6.62Y-4.475
X6.62Y-4.575
X5.47Y-4.875
X5.57Y-4.875
X5.67Y-4.875
X5.77Y-4.875
X5.87Y-4.875
X5.97Y-4.875
X6.07Y-4.875
X6.17Y-4.875
X6.17Y-2.975
X6.27Y-2.975
X6.37Y-2.975
X6.47Y-2.975
X6.57Y-2.975
X6.67Y-2.975
X6.77Y-2.975
X6.87Y-2.975
X6.37Y-4.875
X6.47Y-4.875
X6.57Y-4.875
X6.67Y-4.875
X6.77Y-4.875
X6.87Y-4.875
T7
X4.4891Y-2.9728
X4.4891Y-3.15
X4.745Y-2.9728
X4.745Y-3.15
T8
X6.97Y-3.575
X4.97Y-2.975
X6.97Y-4.675
X4.92Y-4.875
T2
X4.4075Y-3.3372G85X4.4351Y-3.3372
G05
X4.4351Y-3.6128G85X4.4075Y-3.6128
G05
T3
X4.5917Y-4.6317G85X4.5917Y-4.7183
G05
X4.6586Y-4.864G85X4.7452Y-4.864
G05
X4.82Y-4.6238G85X4.82Y-4.7262
G05
T0
M30
