G04 #@! TF.GenerationSoftware,KiCad,Pcbnew,(5.0.0-3-g5ebb6b6)*
G04 #@! TF.CreationDate,2018-11-17T18:38:13+08:00*
G04 #@! TF.ProjectId,M1DKv1-A3P060,4D31444B76312D4133503036302E6B69,rev?*
G04 #@! TF.SameCoordinates,Original*
G04 #@! TF.FileFunction,Copper,L2,Bot,Signal*
G04 #@! TF.FilePolarity,Positive*
%FSLAX46Y46*%
G04 Gerber Fmt 4.6, Leading zero omitted, Abs format (unit mm)*
G04 Created by KiCad (PCBNEW (5.0.0-3-g5ebb6b6)) date 2018 November 17, Saturday 18:38:13*
%MOMM*%
%LPD*%
G01*
G04 APERTURE LIST*
G04 #@! TA.AperFunction,ComponentPad*
%ADD10O,1.727200X2.032000*%
G04 #@! TD*
G04 #@! TA.AperFunction,ComponentPad*
%ADD11C,4.064000*%
G04 #@! TD*
G04 #@! TA.AperFunction,ComponentPad*
%ADD12R,1.700000X1.700000*%
G04 #@! TD*
G04 #@! TA.AperFunction,ComponentPad*
%ADD13O,1.700000X1.700000*%
G04 #@! TD*
G04 #@! TA.AperFunction,ComponentPad*
%ADD14R,1.727200X1.727200*%
G04 #@! TD*
G04 #@! TA.AperFunction,ComponentPad*
%ADD15O,1.727200X1.727200*%
G04 #@! TD*
G04 #@! TA.AperFunction,ComponentPad*
%ADD16C,1.450000*%
G04 #@! TD*
G04 #@! TA.AperFunction,ComponentPad*
%ADD17O,1.900000X1.200000*%
G04 #@! TD*
G04 #@! TA.AperFunction,ComponentPad*
%ADD18C,2.000000*%
G04 #@! TD*
G04 #@! TA.AperFunction,ComponentPad*
%ADD19O,4.000000X1.800000*%
G04 #@! TD*
G04 #@! TA.AperFunction,ComponentPad*
%ADD20O,1.800000X4.000000*%
G04 #@! TD*
G04 #@! TA.AperFunction,ComponentPad*
%ADD21R,1.800000X4.400000*%
G04 #@! TD*
G04 #@! TA.AperFunction,ViaPad*
%ADD22C,0.600000*%
G04 #@! TD*
G04 #@! TA.AperFunction,Conductor*
%ADD23C,0.177800*%
G04 #@! TD*
G04 #@! TA.AperFunction,Conductor*
%ADD24C,0.127000*%
G04 #@! TD*
G04 APERTURE END LIST*
D10*
G04 #@! TO.P,P1,1*
G04 #@! TO.N,N/C*
X138938000Y-123825000D03*
G04 #@! TO.P,P1,2*
G04 #@! TO.N,+3V3*
X141478000Y-123825000D03*
G04 #@! TO.P,P1,3*
G04 #@! TO.N,/~RESET*
X144018000Y-123825000D03*
G04 #@! TO.P,P1,4*
G04 #@! TO.N,+3V3*
X146558000Y-123825000D03*
G04 #@! TO.P,P1,5*
G04 #@! TO.N,+5V*
X149098000Y-123825000D03*
G04 #@! TO.P,P1,6*
G04 #@! TO.N,GND*
X151638000Y-123825000D03*
G04 #@! TO.P,P1,7*
X154178000Y-123825000D03*
G04 #@! TO.P,P1,8*
G04 #@! TO.N,+12V*
X156718000Y-123825000D03*
G04 #@! TD*
G04 #@! TO.P,P2,1*
G04 #@! TO.N,/A0*
X161798000Y-123825000D03*
G04 #@! TO.P,P2,2*
G04 #@! TO.N,/A1*
X164338000Y-123825000D03*
G04 #@! TO.P,P2,3*
G04 #@! TO.N,/A2*
X166878000Y-123825000D03*
G04 #@! TO.P,P2,4*
G04 #@! TO.N,/A3*
X169418000Y-123825000D03*
G04 #@! TO.P,P2,5*
G04 #@! TO.N,/A4*
X171958000Y-123825000D03*
G04 #@! TO.P,P2,6*
G04 #@! TO.N,/A5*
X174498000Y-123825000D03*
G04 #@! TD*
G04 #@! TO.P,P3,1*
G04 #@! TO.N,/SCL*
X129794000Y-75565000D03*
G04 #@! TO.P,P3,2*
G04 #@! TO.N,/SDA*
X132334000Y-75565000D03*
G04 #@! TO.P,P3,3*
G04 #@! TO.N,+3V3*
X134874000Y-75565000D03*
G04 #@! TO.P,P3,4*
G04 #@! TO.N,GND*
X137414000Y-75565000D03*
G04 #@! TO.P,P3,5*
G04 #@! TO.N,/13*
X139954000Y-75565000D03*
G04 #@! TO.P,P3,6*
G04 #@! TO.N,/12*
X142494000Y-75565000D03*
G04 #@! TO.P,P3,7*
G04 #@! TO.N,/11*
X145034000Y-75565000D03*
G04 #@! TO.P,P3,8*
G04 #@! TO.N,/10*
X147574000Y-75565000D03*
G04 #@! TO.P,P3,9*
G04 #@! TO.N,/9*
X150114000Y-75565000D03*
G04 #@! TO.P,P3,10*
G04 #@! TO.N,/8*
X152654000Y-75565000D03*
G04 #@! TD*
G04 #@! TO.P,P4,1*
G04 #@! TO.N,/7*
X156718000Y-75565000D03*
G04 #@! TO.P,P4,2*
G04 #@! TO.N,/6*
X159258000Y-75565000D03*
G04 #@! TO.P,P4,3*
G04 #@! TO.N,/5*
X161798000Y-75565000D03*
G04 #@! TO.P,P4,4*
G04 #@! TO.N,/4*
X164338000Y-75565000D03*
G04 #@! TO.P,P4,5*
G04 #@! TO.N,/3*
X166878000Y-75565000D03*
G04 #@! TO.P,P4,6*
G04 #@! TO.N,/2*
X169418000Y-75565000D03*
G04 #@! TO.P,P4,7*
G04 #@! TO.N,/1(Tx)*
X171958000Y-75565000D03*
G04 #@! TO.P,P4,8*
G04 #@! TO.N,/0(Rx)*
X174498000Y-75565000D03*
G04 #@! TD*
D11*
G04 #@! TO.P,P5,1*
G04 #@! TO.N,N/C*
X124968000Y-123825000D03*
G04 #@! TD*
G04 #@! TO.P,P6,1*
G04 #@! TO.N,N/C*
X177038000Y-118745000D03*
G04 #@! TD*
G04 #@! TO.P,P7,1*
G04 #@! TO.N,N/C*
X126238000Y-75565000D03*
G04 #@! TD*
G04 #@! TO.P,P8,1*
G04 #@! TO.N,N/C*
X177038000Y-90805000D03*
G04 #@! TD*
D12*
G04 #@! TO.P,J1,1*
G04 #@! TO.N,/SMISO*
X174498000Y-95885000D03*
D13*
G04 #@! TO.P,J1,2*
G04 #@! TO.N,+5V*
X177038000Y-95885000D03*
G04 #@! TO.P,J1,3*
G04 #@! TO.N,/SSCK*
X174498000Y-98425000D03*
G04 #@! TO.P,J1,4*
G04 #@! TO.N,/SMOSI*
X177038000Y-98425000D03*
G04 #@! TO.P,J1,5*
G04 #@! TO.N,/~RESET*
X174498000Y-100965000D03*
G04 #@! TO.P,J1,6*
G04 #@! TO.N,GND*
X177038000Y-100965000D03*
G04 #@! TD*
D14*
G04 #@! TO.P,J2,1*
G04 #@! TO.N,/FTCK*
X168148000Y-116205000D03*
D15*
G04 #@! TO.P,J2,2*
G04 #@! TO.N,GND*
X165608000Y-116205000D03*
G04 #@! TO.P,J2,3*
G04 #@! TO.N,/FTDO*
X168148000Y-113665000D03*
G04 #@! TO.P,J2,4*
G04 #@! TO.N,N/C*
X165608000Y-113665000D03*
G04 #@! TO.P,J2,5*
G04 #@! TO.N,/FTMS*
X168148000Y-111125000D03*
G04 #@! TO.P,J2,6*
G04 #@! TO.N,+3V3*
X165608000Y-111125000D03*
G04 #@! TO.P,J2,7*
G04 #@! TO.N,/FVPUMP*
X168148000Y-108585000D03*
G04 #@! TO.P,J2,8*
G04 #@! TO.N,/FTRST*
X165608000Y-108585000D03*
G04 #@! TO.P,J2,9*
G04 #@! TO.N,/FTDI*
X168148000Y-106045000D03*
G04 #@! TO.P,J2,10*
G04 #@! TO.N,GND*
X165608000Y-106045000D03*
G04 #@! TD*
D16*
G04 #@! TO.P,J4,6*
G04 #@! TO.N,GND*
X115000500Y-85765000D03*
X115000500Y-90765000D03*
D17*
X112300500Y-84765000D03*
X112300500Y-91765000D03*
G04 #@! TD*
D18*
G04 #@! TO.P,SW1,2*
G04 #@! TO.N,GND*
X120523000Y-75510000D03*
G04 #@! TO.P,SW1,1*
G04 #@! TO.N,/~RESET*
X120523000Y-80010000D03*
G04 #@! TO.P,SW1,2*
G04 #@! TO.N,GND*
X114023000Y-75510000D03*
G04 #@! TO.P,SW1,1*
G04 #@! TO.N,/~RESET*
X114023000Y-80010000D03*
G04 #@! TD*
D19*
G04 #@! TO.P,J5,3*
G04 #@! TO.N,GND*
X119428000Y-123545000D03*
D20*
G04 #@! TO.P,J5,2*
X116628000Y-118745000D03*
D21*
G04 #@! TO.P,J5,1*
G04 #@! TO.N,Net-(D7-Pad2)*
X122428000Y-118745000D03*
G04 #@! TD*
D22*
G04 #@! TO.N,GND*
X130683000Y-100965000D03*
X130048000Y-101600000D03*
X130048000Y-102870000D03*
X130683000Y-103505000D03*
X131953000Y-103505000D03*
X132588000Y-102870000D03*
X132588000Y-101600000D03*
X131318000Y-100330000D03*
X131318000Y-101600000D03*
X131318000Y-104140000D03*
X131318000Y-102870000D03*
G04 #@! TO.N,+5V*
X166243000Y-86360000D03*
X116078000Y-98425000D03*
X135128000Y-118745000D03*
G04 #@! TO.N,GND*
X161163000Y-107950000D03*
X161163000Y-99695000D03*
X162433000Y-111760000D03*
X160528000Y-94615000D03*
X152273000Y-95250000D03*
X166243000Y-88900000D03*
X163068000Y-93980000D03*
X168783000Y-86360000D03*
X163703000Y-86360000D03*
X175133000Y-105410000D03*
X176403000Y-105410000D03*
X175768000Y-104775000D03*
X178308000Y-113665000D03*
X178308000Y-114935000D03*
X178308000Y-116205000D03*
X177673000Y-115570000D03*
X177673000Y-114300000D03*
X177038000Y-114935000D03*
X176403000Y-115570000D03*
X175768000Y-116205000D03*
X138938000Y-101600000D03*
X138938000Y-104140000D03*
X135763000Y-102235000D03*
X152273000Y-111125000D03*
X166243000Y-79375000D03*
X156718000Y-114935000D03*
X166243000Y-82550000D03*
X168783000Y-82550000D03*
X163703000Y-82550000D03*
X149098000Y-95885000D03*
X150368000Y-95885000D03*
X151003000Y-96520000D03*
X149733000Y-96520000D03*
X150368000Y-97155000D03*
X151003000Y-97790000D03*
X151638000Y-98425000D03*
X152273000Y-99060000D03*
X152908000Y-99695000D03*
X152908000Y-98425000D03*
X152908000Y-97155000D03*
X152273000Y-96520000D03*
X151638000Y-97155000D03*
X152273000Y-97790000D03*
X153543000Y-99060000D03*
X153543000Y-100330000D03*
X151003000Y-95250000D03*
X149733000Y-95250000D03*
X148463000Y-95250000D03*
X126238000Y-99695000D03*
X125603000Y-100330000D03*
X125603000Y-102235000D03*
X126238000Y-101600000D03*
X126238000Y-102870000D03*
X126238000Y-104140000D03*
X124968000Y-104140000D03*
X128778000Y-108585000D03*
X137668000Y-109220000D03*
X153543000Y-106680000D03*
X131953000Y-102235000D03*
X130683000Y-102235000D03*
X129413000Y-102235000D03*
X133223000Y-102235000D03*
X131883686Y-100965000D03*
X153543000Y-97790000D03*
X153543000Y-96520000D03*
X154813000Y-96520000D03*
X154813000Y-97790000D03*
X155448000Y-97155000D03*
X156083000Y-96520000D03*
X157353000Y-96520000D03*
X157353000Y-97790000D03*
X156718000Y-97155000D03*
X156083000Y-97790000D03*
X157353000Y-99060000D03*
X157353000Y-100330000D03*
X157353000Y-101600000D03*
X157353000Y-102870000D03*
X157353000Y-104140000D03*
X156718000Y-104775000D03*
X156083000Y-105410000D03*
X155448000Y-106045000D03*
X154813000Y-106680000D03*
X154813000Y-105410000D03*
X154813000Y-104140000D03*
X154813000Y-102870000D03*
X154813000Y-101600000D03*
X154813000Y-100330000D03*
X154813000Y-99060000D03*
X155448000Y-98425000D03*
X155448000Y-99695000D03*
X155448000Y-100965000D03*
X155448000Y-102235000D03*
X155448000Y-103505000D03*
X155448000Y-104775000D03*
X156083000Y-104140000D03*
X156083000Y-102870000D03*
X156083000Y-101600000D03*
X156083000Y-100330000D03*
X156083000Y-99060000D03*
X156718000Y-98425000D03*
X156718000Y-99695000D03*
X156718000Y-100965000D03*
X156718000Y-102235000D03*
X156718000Y-103505000D03*
X144018000Y-91440000D03*
X144653000Y-92075000D03*
X145288000Y-92710000D03*
X145288000Y-91440000D03*
G04 #@! TO.N,+3V3*
X158623000Y-100330000D03*
X161343000Y-96100000D03*
X136398000Y-101600000D03*
X131318000Y-97790000D03*
X142748000Y-106680000D03*
X124968000Y-82550000D03*
X152908000Y-107950000D03*
X119888000Y-98425000D03*
X126873000Y-102235000D03*
X128778000Y-105410000D03*
X118618000Y-105410000D03*
X158273000Y-107665000D03*
X156718000Y-107950000D03*
X142748000Y-104140000D03*
X146558000Y-118745000D03*
G04 #@! TO.N,/13*
X154273000Y-92710000D03*
X140208000Y-110490000D03*
G04 #@! TO.N,/~RESET*
X123063000Y-95250000D03*
X124333000Y-96520000D03*
X130048000Y-106680000D03*
X142113000Y-107950000D03*
X143383000Y-109220000D03*
G04 #@! TO.N,+1V5*
X158623000Y-97155000D03*
X159258000Y-92075000D03*
X145923000Y-102870000D03*
X152273000Y-87630000D03*
X152908000Y-95885000D03*
X152302336Y-107344336D03*
G04 #@! TO.N,/FTDI*
X157988000Y-106680000D03*
G04 #@! TO.N,/FTDO*
X163068000Y-107315000D03*
G04 #@! TO.N,/FTRST*
X175133000Y-109855000D03*
G04 #@! TO.N,/CRST*
X128143000Y-104775000D03*
X124333000Y-103505000D03*
G04 #@! TO.N,/RA18*
X146558000Y-104775000D03*
X124968000Y-93980000D03*
G04 #@! TO.N,/RA16*
X147193000Y-105410000D03*
X126238000Y-93980000D03*
G04 #@! TO.N,/RA14*
X147828000Y-104775000D03*
X127508000Y-93980000D03*
G04 #@! TO.N,/RA12*
X148463000Y-105410000D03*
X128778000Y-93980000D03*
G04 #@! TO.N,/RA7*
X149098000Y-104775000D03*
X130048000Y-93980000D03*
G04 #@! TO.N,/RA6*
X149733000Y-105410000D03*
X131318000Y-93980000D03*
G04 #@! TO.N,/RA5*
X150368000Y-104775000D03*
X132588000Y-91440000D03*
G04 #@! TO.N,/RA4*
X151003000Y-105410000D03*
X133887336Y-93950664D03*
G04 #@! TO.N,/RA3*
X151638000Y-104775000D03*
X135128000Y-93980000D03*
G04 #@! TO.N,/RA2*
X152273000Y-105410000D03*
X136398000Y-93980000D03*
G04 #@! TO.N,/RA1*
X152908000Y-104775000D03*
X137668000Y-93980000D03*
G04 #@! TO.N,/RA0*
X153543000Y-105410000D03*
X138938000Y-91440000D03*
G04 #@! TO.N,Net-(R9-Pad2)*
X128778000Y-106680000D03*
X120523000Y-99060000D03*
G04 #@! TO.N,/RXL*
X131318000Y-106680000D03*
X127508000Y-99060000D03*
G04 #@! TO.N,/TXL*
X130683000Y-107315000D03*
X127508000Y-100330000D03*
G04 #@! TD*
D23*
G04 #@! TO.N,+5V*
X167513000Y-86360000D02*
X177038000Y-95885000D01*
X166243000Y-86360000D02*
X167513000Y-86360000D01*
X149098000Y-123977400D02*
X150215600Y-125095000D01*
X149098000Y-123825000D02*
X149098000Y-123977400D01*
X150215600Y-125095000D02*
X172593000Y-125095000D01*
X173418490Y-124269510D02*
X173418490Y-117284510D01*
X172593000Y-125095000D02*
X173418490Y-124269510D01*
X173418490Y-117284510D02*
X178943000Y-111760000D01*
X178943000Y-97790000D02*
X177038000Y-95885000D01*
X178943000Y-111760000D02*
X178943000Y-97790000D01*
X116078000Y-98425000D02*
X116713000Y-99060000D01*
X116713000Y-99060000D02*
X116713000Y-112395000D01*
X116713000Y-112395000D02*
X119253000Y-114935000D01*
X119253000Y-114935000D02*
X124968000Y-114935000D01*
X128778000Y-118745000D02*
X135128000Y-118745000D01*
X124968000Y-114935000D02*
X128778000Y-118745000D01*
G04 #@! TO.N,+3V3*
X161343000Y-97610000D02*
X158623000Y-100330000D01*
X161343000Y-96100000D02*
X161343000Y-97610000D01*
X136398000Y-101600000D02*
X137668000Y-102870000D01*
X141518000Y-102870000D02*
X142748000Y-104100000D01*
X137668000Y-102870000D02*
X141518000Y-102870000D01*
X131318000Y-97790000D02*
X132588000Y-97790000D01*
X132588000Y-97790000D02*
X136398000Y-101600000D01*
X131318000Y-97790000D02*
X126873000Y-97790000D01*
X126873000Y-97790000D02*
X124333000Y-95250000D01*
X124333000Y-95250000D02*
X124333000Y-83820000D01*
X124333000Y-83820000D02*
X124968000Y-83185000D01*
X124968000Y-80010000D02*
X126238000Y-78740000D01*
X126238000Y-78740000D02*
X134493000Y-78740000D01*
X124968000Y-82550000D02*
X124968000Y-80010000D01*
X124968000Y-83185000D02*
X124968000Y-82550000D01*
X143383000Y-107950000D02*
X142748000Y-107315000D01*
X142748000Y-107315000D02*
X142748000Y-106680000D01*
X152908000Y-107950000D02*
X143383000Y-107950000D01*
X134874000Y-78359000D02*
X134493000Y-78740000D01*
X134874000Y-75565000D02*
X134874000Y-78359000D01*
X121158000Y-98425000D02*
X124333000Y-95250000D01*
X119888000Y-98425000D02*
X121158000Y-98425000D01*
X126873000Y-102235000D02*
X126873000Y-97790000D01*
X126873000Y-102235000D02*
X128778000Y-104140000D01*
X128778000Y-104140000D02*
X128778000Y-105410000D01*
X119888000Y-104140000D02*
X118618000Y-105410000D01*
X119888000Y-98425000D02*
X119888000Y-104140000D01*
X146558000Y-122631200D02*
X145846800Y-121920000D01*
X146558000Y-123825000D02*
X146558000Y-122631200D01*
X145846800Y-121920000D02*
X142113000Y-121920000D01*
X141478000Y-122555000D02*
X141478000Y-123825000D01*
X142113000Y-121920000D02*
X141478000Y-122555000D01*
X157988000Y-107950000D02*
X158273000Y-107665000D01*
X156718000Y-107950000D02*
X157988000Y-107950000D01*
X142748000Y-104140000D02*
X142748000Y-104100000D01*
X142748000Y-106680000D02*
X142748000Y-104140000D01*
X145846800Y-119456200D02*
X146558000Y-118745000D01*
X145846800Y-121920000D02*
X145846800Y-119456200D01*
D24*
G04 #@! TO.N,/13*
X152998942Y-108585000D02*
X142113000Y-108585000D01*
X154273000Y-107310942D02*
X152998942Y-108585000D01*
X142113000Y-108585000D02*
X140208000Y-110490000D01*
X154273000Y-92710000D02*
X154273000Y-107310942D01*
G04 #@! TO.N,/~RESET*
X174498000Y-100965000D02*
X175768000Y-99695000D01*
X175768000Y-99695000D02*
X177673000Y-99695000D01*
X177673000Y-99695000D02*
X178308000Y-100330000D01*
X178308000Y-100330000D02*
X178308000Y-111760000D01*
X178308000Y-111760000D02*
X172593000Y-117475000D01*
X172593000Y-117475000D02*
X172593000Y-121285000D01*
X172593000Y-121285000D02*
X171958000Y-121920000D01*
X171958000Y-121920000D02*
X148463000Y-121920000D01*
X148463000Y-121920000D02*
X147828000Y-122555000D01*
X147828000Y-122555000D02*
X147828000Y-124460000D01*
X147828000Y-124460000D02*
X147193000Y-125095000D01*
X144018000Y-123977400D02*
X144018000Y-123825000D01*
X145135600Y-125095000D02*
X144018000Y-123977400D01*
X147193000Y-125095000D02*
X145135600Y-125095000D01*
X120523000Y-80010000D02*
X123063000Y-80010000D01*
X123063000Y-80010000D02*
X123698000Y-80645000D01*
X123698000Y-94615000D02*
X123063000Y-95250000D01*
X123698000Y-80645000D02*
X123698000Y-94615000D01*
X124333000Y-96520000D02*
X123698000Y-97155000D01*
X123698000Y-97155000D02*
X123698000Y-105410000D01*
X123698000Y-105410000D02*
X124333000Y-106045000D01*
X129413000Y-106045000D02*
X130048000Y-106680000D01*
X124333000Y-106045000D02*
X129413000Y-106045000D01*
X130048000Y-107405942D02*
X130592058Y-107950000D01*
X130048000Y-106680000D02*
X130048000Y-107405942D01*
X130592058Y-107950000D02*
X142113000Y-107950000D01*
X148463000Y-121920000D02*
X148463000Y-110490000D01*
X147193000Y-109220000D02*
X143383000Y-109220000D01*
X148463000Y-110490000D02*
X147193000Y-109220000D01*
D23*
G04 #@! TO.N,+1V5*
X158623000Y-92710000D02*
X158623000Y-97155000D01*
X159258000Y-92075000D02*
X158623000Y-92710000D01*
X152273000Y-87630000D02*
X152908000Y-88265000D01*
X152908000Y-88265000D02*
X152908000Y-95885000D01*
X145923000Y-106680000D02*
X145923000Y-102870000D01*
X146587336Y-107344336D02*
X145923000Y-106680000D01*
X152302336Y-107344336D02*
X146587336Y-107344336D01*
D24*
G04 #@! TO.N,/FTDI*
X163158942Y-106680000D02*
X163793942Y-107315000D01*
X157988000Y-106680000D02*
X163158942Y-106680000D01*
X166878000Y-107315000D02*
X168148000Y-106045000D01*
X163793942Y-107315000D02*
X166878000Y-107315000D01*
G04 #@! TO.N,/FTDO*
X163068000Y-107315000D02*
X163068000Y-111760000D01*
X163068000Y-111760000D02*
X163703000Y-112395000D01*
X163703000Y-112395000D02*
X166878000Y-112395000D01*
X166878000Y-112395000D02*
X168148000Y-113665000D01*
G04 #@! TO.N,/FTRST*
X175133000Y-109855000D02*
X166878000Y-109855000D01*
X166878000Y-109855000D02*
X165608000Y-108585000D01*
G04 #@! TO.N,/CRST*
X128143000Y-104775000D02*
X126873000Y-103505000D01*
X126873000Y-103505000D02*
X124333000Y-103505000D01*
G04 #@! TO.N,/RA18*
X146558000Y-104775000D02*
X146558000Y-101600000D01*
X146558000Y-101600000D02*
X145288000Y-100330000D01*
X132588000Y-97155000D02*
X126873000Y-97155000D01*
X124968000Y-95250000D02*
X124968000Y-93980000D01*
X126873000Y-97155000D02*
X124968000Y-95250000D01*
X145288000Y-100330000D02*
X135763000Y-100330000D01*
X135763000Y-100330000D02*
X132588000Y-97155000D01*
G04 #@! TO.N,/RA16*
X147193000Y-105410000D02*
X147193000Y-101600000D01*
X147193000Y-101600000D02*
X145288000Y-99695000D01*
X132588000Y-96520000D02*
X127508000Y-96520000D01*
X127508000Y-96520000D02*
X126238000Y-95250000D01*
X126238000Y-95250000D02*
X126238000Y-93980000D01*
X135763000Y-99695000D02*
X132588000Y-96520000D01*
X145288000Y-99695000D02*
X135763000Y-99695000D01*
G04 #@! TO.N,/RA14*
X147828000Y-104775000D02*
X147828000Y-101600000D01*
X147828000Y-101600000D02*
X145288000Y-99060000D01*
X132588000Y-95885000D02*
X128143000Y-95885000D01*
X127508000Y-95250000D02*
X127508000Y-93980000D01*
X128143000Y-95885000D02*
X127508000Y-95250000D01*
X132588000Y-95885000D02*
X135763000Y-99060000D01*
X135763000Y-99060000D02*
X145288000Y-99060000D01*
G04 #@! TO.N,/RA12*
X148463000Y-105410000D02*
X148463000Y-101600000D01*
X148463000Y-101600000D02*
X145288000Y-98425000D01*
X145288000Y-98425000D02*
X135763000Y-98425000D01*
X135763000Y-98425000D02*
X132588000Y-95250000D01*
X132588000Y-95250000D02*
X129413000Y-95250000D01*
X128778000Y-94615000D02*
X128778000Y-93980000D01*
X129413000Y-95250000D02*
X128778000Y-94615000D01*
G04 #@! TO.N,/RA7*
X149098000Y-104775000D02*
X149098000Y-101600000D01*
X149098000Y-101600000D02*
X145288000Y-97790000D01*
X145288000Y-97790000D02*
X135763000Y-97790000D01*
X135763000Y-97790000D02*
X132588000Y-94615000D01*
X130683000Y-94615000D02*
X130048000Y-93980000D01*
X132588000Y-94615000D02*
X130683000Y-94615000D01*
G04 #@! TO.N,/RA6*
X149733000Y-105410000D02*
X149733000Y-101600000D01*
X149733000Y-101600000D02*
X145288000Y-97155000D01*
X132588000Y-93980000D02*
X131318000Y-93980000D01*
X135763000Y-97155000D02*
X132588000Y-93980000D01*
X145288000Y-97155000D02*
X135763000Y-97155000D01*
G04 #@! TO.N,/RA5*
X150368000Y-104775000D02*
X150368000Y-101600000D01*
X150368000Y-101600000D02*
X145288000Y-96520000D01*
X145288000Y-96520000D02*
X135763000Y-96520000D01*
X132588000Y-93345000D02*
X132588000Y-91440000D01*
X135763000Y-96520000D02*
X132588000Y-93345000D01*
G04 #@! TO.N,/RA4*
X151003000Y-105410000D02*
X151003000Y-101600000D01*
X151003000Y-101600000D02*
X145288000Y-95885000D01*
X145288000Y-95885000D02*
X135763000Y-95885000D01*
X135763000Y-95826328D02*
X133887336Y-93950664D01*
X135763000Y-95885000D02*
X135763000Y-95826328D01*
G04 #@! TO.N,/RA3*
X151638000Y-104775000D02*
X151638000Y-101600000D01*
X151638000Y-101600000D02*
X145288000Y-95250000D01*
X145288000Y-95250000D02*
X135763000Y-95250000D01*
X135763000Y-95250000D02*
X135128000Y-94615000D01*
X135128000Y-94615000D02*
X135128000Y-93980000D01*
G04 #@! TO.N,/RA2*
X152273000Y-105410000D02*
X152273000Y-101600000D01*
X152273000Y-101600000D02*
X145288000Y-94615000D01*
X145288000Y-94615000D02*
X137033000Y-94615000D01*
X137033000Y-94615000D02*
X136398000Y-93980000D01*
G04 #@! TO.N,/RA1*
X152908000Y-104775000D02*
X152908000Y-101600000D01*
X152908000Y-101600000D02*
X145288000Y-93980000D01*
X145288000Y-93980000D02*
X137668000Y-93980000D01*
G04 #@! TO.N,/RA0*
X153543000Y-105410000D02*
X153543000Y-101600000D01*
X153543000Y-101600000D02*
X145288000Y-93345000D01*
X145288000Y-93345000D02*
X139573000Y-93345000D01*
X138938000Y-92710000D02*
X138938000Y-91440000D01*
X139573000Y-93345000D02*
X138938000Y-92710000D01*
G04 #@! TO.N,Net-(R9-Pad2)*
X128778000Y-106680000D02*
X122428000Y-106680000D01*
X120523000Y-104775000D02*
X120523000Y-99060000D01*
X122428000Y-106680000D02*
X120523000Y-104775000D01*
G04 #@! TO.N,/RXL*
X131318000Y-106680000D02*
X130048000Y-105410000D01*
X130048000Y-105410000D02*
X130048000Y-104415776D01*
X130048000Y-104415776D02*
X130048000Y-104140000D01*
X130048000Y-104140000D02*
X128143000Y-102235000D01*
X128143000Y-102235000D02*
X128143000Y-99695000D01*
X128143000Y-99695000D02*
X127508000Y-99060000D01*
G04 #@! TO.N,/TXL*
X130683000Y-106589058D02*
X129413000Y-105319058D01*
X130683000Y-107315000D02*
X130683000Y-106589058D01*
X129413000Y-105319058D02*
X129413000Y-104140000D01*
X127508000Y-102235000D02*
X127508000Y-100330000D01*
X129413000Y-104140000D02*
X127508000Y-102235000D01*
G04 #@! TD*
G04 #@! TO.N,GND*
G36*
X176772501Y-74658975D02*
X176772500Y-85952853D01*
X176767299Y-85979000D01*
X176772500Y-86005146D01*
X176787905Y-86082592D01*
X176846585Y-86170415D01*
X176868756Y-86185229D01*
X179312501Y-88628975D01*
X179312500Y-121175026D01*
X176868754Y-123618773D01*
X176846586Y-123633585D01*
X176831775Y-123655752D01*
X176787905Y-123721408D01*
X176767299Y-123825000D01*
X176772501Y-123851152D01*
X176772500Y-126099500D01*
X111263500Y-126099500D01*
X111263500Y-123740633D01*
X117255192Y-123740633D01*
X117310790Y-123938850D01*
X117538940Y-124298139D01*
X117887217Y-124542770D01*
X118302600Y-124635500D01*
X119402600Y-124635500D01*
X119402600Y-123570400D01*
X119453400Y-123570400D01*
X119453400Y-124635500D01*
X120553400Y-124635500D01*
X120968783Y-124542770D01*
X121317060Y-124298139D01*
X121545210Y-123938850D01*
X121600808Y-123740633D01*
X121570566Y-123570400D01*
X119453400Y-123570400D01*
X119402600Y-123570400D01*
X117285434Y-123570400D01*
X117255192Y-123740633D01*
X111263500Y-123740633D01*
X111263500Y-123349367D01*
X117255192Y-123349367D01*
X117285434Y-123519600D01*
X119402600Y-123519600D01*
X119402600Y-122454500D01*
X119453400Y-122454500D01*
X119453400Y-123519600D01*
X121570566Y-123519600D01*
X121594847Y-123382917D01*
X122745500Y-123382917D01*
X122745500Y-124267083D01*
X123083856Y-125083945D01*
X123709055Y-125709144D01*
X124525917Y-126047500D01*
X125410083Y-126047500D01*
X126226945Y-125709144D01*
X126852144Y-125083945D01*
X127190500Y-124267083D01*
X127190500Y-123568782D01*
X137883900Y-123568782D01*
X137883900Y-124081219D01*
X137945060Y-124388689D01*
X138178037Y-124737364D01*
X138526712Y-124970340D01*
X138938000Y-125052151D01*
X139349289Y-124970340D01*
X139697964Y-124737364D01*
X139930940Y-124388688D01*
X139992100Y-124081218D01*
X139992100Y-123568781D01*
X139930940Y-123261311D01*
X139697964Y-122912636D01*
X139349288Y-122679660D01*
X138938000Y-122597849D01*
X138526711Y-122679660D01*
X138178036Y-122912636D01*
X137945060Y-123261312D01*
X137883900Y-123568782D01*
X127190500Y-123568782D01*
X127190500Y-123382917D01*
X126852144Y-122566055D01*
X126226945Y-121940856D01*
X125410083Y-121602500D01*
X124525917Y-121602500D01*
X123709055Y-121940856D01*
X123083856Y-122566055D01*
X122745500Y-123382917D01*
X121594847Y-123382917D01*
X121600808Y-123349367D01*
X121545210Y-123151150D01*
X121317060Y-122791861D01*
X120968783Y-122547230D01*
X120553400Y-122454500D01*
X119453400Y-122454500D01*
X119402600Y-122454500D01*
X118302600Y-122454500D01*
X117887217Y-122547230D01*
X117538940Y-122791861D01*
X117310790Y-123151150D01*
X117255192Y-123349367D01*
X111263500Y-123349367D01*
X111263500Y-118770400D01*
X115537500Y-118770400D01*
X115537500Y-119870400D01*
X115630230Y-120285783D01*
X115874861Y-120634060D01*
X116234150Y-120862210D01*
X116432367Y-120917808D01*
X116602600Y-120887566D01*
X116602600Y-118770400D01*
X116653400Y-118770400D01*
X116653400Y-120887566D01*
X116823633Y-120917808D01*
X117021850Y-120862210D01*
X117381139Y-120634060D01*
X117625770Y-120285783D01*
X117718500Y-119870400D01*
X117718500Y-118770400D01*
X116653400Y-118770400D01*
X116602600Y-118770400D01*
X115537500Y-118770400D01*
X111263500Y-118770400D01*
X111263500Y-117619600D01*
X115537500Y-117619600D01*
X115537500Y-118719600D01*
X116602600Y-118719600D01*
X116602600Y-116602434D01*
X116653400Y-116602434D01*
X116653400Y-118719600D01*
X117718500Y-118719600D01*
X117718500Y-117619600D01*
X117625770Y-117204217D01*
X117381139Y-116855940D01*
X117021850Y-116627790D01*
X116823633Y-116572192D01*
X116653400Y-116602434D01*
X116602600Y-116602434D01*
X116432367Y-116572192D01*
X116234150Y-116627790D01*
X115874861Y-116855940D01*
X115630230Y-117204217D01*
X115537500Y-117619600D01*
X111263500Y-117619600D01*
X111263500Y-116545000D01*
X121333768Y-116545000D01*
X121333768Y-120945000D01*
X121348553Y-121019329D01*
X121390657Y-121082343D01*
X121453671Y-121124447D01*
X121528000Y-121139232D01*
X123328000Y-121139232D01*
X123402329Y-121124447D01*
X123465343Y-121082343D01*
X123507447Y-121019329D01*
X123522232Y-120945000D01*
X123522232Y-116545000D01*
X123507447Y-116470671D01*
X123465343Y-116407657D01*
X123402329Y-116365553D01*
X123328000Y-116350768D01*
X121528000Y-116350768D01*
X121453671Y-116365553D01*
X121390657Y-116407657D01*
X121348553Y-116470671D01*
X121333768Y-116545000D01*
X111263500Y-116545000D01*
X111263500Y-98327434D01*
X115587500Y-98327434D01*
X115587500Y-98522566D01*
X115662175Y-98702846D01*
X115800154Y-98840825D01*
X115980434Y-98915500D01*
X116173369Y-98915500D01*
X116433600Y-99175732D01*
X116433601Y-112367482D01*
X116428127Y-112395000D01*
X116447842Y-112494106D01*
X116449813Y-112504016D01*
X116511565Y-112596436D01*
X116534893Y-112612023D01*
X119035977Y-115113108D01*
X119051564Y-115136436D01*
X119143984Y-115198188D01*
X119225486Y-115214400D01*
X119252999Y-115219873D01*
X119280512Y-115214400D01*
X124852270Y-115214400D01*
X128560979Y-118923111D01*
X128576564Y-118946436D01*
X128599889Y-118962021D01*
X128668984Y-119008188D01*
X128778000Y-119029873D01*
X128805514Y-119024400D01*
X134713729Y-119024400D01*
X134850154Y-119160825D01*
X135030434Y-119235500D01*
X135225566Y-119235500D01*
X135405846Y-119160825D01*
X135543825Y-119022846D01*
X135618500Y-118842566D01*
X135618500Y-118647434D01*
X135543825Y-118467154D01*
X135405846Y-118329175D01*
X135225566Y-118254500D01*
X135030434Y-118254500D01*
X134850154Y-118329175D01*
X134713729Y-118465600D01*
X128893732Y-118465600D01*
X125185025Y-114756895D01*
X125169436Y-114733564D01*
X125077016Y-114671812D01*
X124995514Y-114655600D01*
X124995513Y-114655600D01*
X124968000Y-114650127D01*
X124940487Y-114655600D01*
X119368731Y-114655600D01*
X116992400Y-112279270D01*
X116992400Y-105312434D01*
X118127500Y-105312434D01*
X118127500Y-105507566D01*
X118202175Y-105687846D01*
X118340154Y-105825825D01*
X118520434Y-105900500D01*
X118715566Y-105900500D01*
X118895846Y-105825825D01*
X119033825Y-105687846D01*
X119108500Y-105507566D01*
X119108500Y-105314630D01*
X120066108Y-104357023D01*
X120089436Y-104341436D01*
X120151188Y-104249016D01*
X120167400Y-104167514D01*
X120167400Y-104167513D01*
X120172873Y-104140001D01*
X120167400Y-104112486D01*
X120167400Y-99398071D01*
X120245154Y-99475825D01*
X120269001Y-99485703D01*
X120269000Y-104749984D01*
X120264024Y-104775000D01*
X120269000Y-104800016D01*
X120283737Y-104874105D01*
X120339876Y-104958124D01*
X120361089Y-104972298D01*
X122230704Y-106841914D01*
X122244876Y-106863124D01*
X122328893Y-106919262D01*
X122328894Y-106919263D01*
X122428000Y-106938976D01*
X122453017Y-106934000D01*
X128352298Y-106934000D01*
X128362175Y-106957846D01*
X128500154Y-107095825D01*
X128680434Y-107170500D01*
X128875566Y-107170500D01*
X129055846Y-107095825D01*
X129193825Y-106957846D01*
X129268500Y-106777566D01*
X129268500Y-106582434D01*
X129193825Y-106402154D01*
X129090671Y-106299000D01*
X129307791Y-106299000D01*
X129567378Y-106558588D01*
X129557500Y-106582434D01*
X129557500Y-106777566D01*
X129632175Y-106957846D01*
X129770154Y-107095825D01*
X129794001Y-107105703D01*
X129794001Y-107380921D01*
X129789024Y-107405942D01*
X129808737Y-107505047D01*
X129813580Y-107512295D01*
X129864877Y-107589066D01*
X129886087Y-107603238D01*
X130394762Y-108111914D01*
X130408934Y-108133124D01*
X130492952Y-108189263D01*
X130567041Y-108204000D01*
X130567042Y-108204000D01*
X130592057Y-108208976D01*
X130617072Y-108204000D01*
X141687298Y-108204000D01*
X141697175Y-108227846D01*
X141835154Y-108365825D01*
X141928209Y-108404370D01*
X141915705Y-108423085D01*
X140329413Y-110009378D01*
X140305566Y-109999500D01*
X140110434Y-109999500D01*
X139930154Y-110074175D01*
X139792175Y-110212154D01*
X139717500Y-110392434D01*
X139717500Y-110587566D01*
X139792175Y-110767846D01*
X139930154Y-110905825D01*
X140110434Y-110980500D01*
X140305566Y-110980500D01*
X140485846Y-110905825D01*
X140623825Y-110767846D01*
X140698500Y-110587566D01*
X140698500Y-110392434D01*
X140688622Y-110368587D01*
X142218210Y-108839000D01*
X143070329Y-108839000D01*
X142967175Y-108942154D01*
X142892500Y-109122434D01*
X142892500Y-109317566D01*
X142967175Y-109497846D01*
X143105154Y-109635825D01*
X143285434Y-109710500D01*
X143480566Y-109710500D01*
X143660846Y-109635825D01*
X143798825Y-109497846D01*
X143808702Y-109474000D01*
X147087791Y-109474000D01*
X148209001Y-110595211D01*
X148209000Y-121814789D01*
X147666089Y-122357702D01*
X147644876Y-122371876D01*
X147606197Y-122429764D01*
X147588737Y-122455895D01*
X147569024Y-122555000D01*
X147574000Y-122580016D01*
X147574000Y-123377242D01*
X147550940Y-123261311D01*
X147317964Y-122912636D01*
X146969288Y-122679660D01*
X146838412Y-122653627D01*
X146842873Y-122631200D01*
X146821188Y-122522184D01*
X146775021Y-122453089D01*
X146759436Y-122429764D01*
X146736111Y-122414179D01*
X146126200Y-121804270D01*
X146126200Y-119571930D01*
X146462631Y-119235500D01*
X146655566Y-119235500D01*
X146835846Y-119160825D01*
X146973825Y-119022846D01*
X147048500Y-118842566D01*
X147048500Y-118647434D01*
X146973825Y-118467154D01*
X146835846Y-118329175D01*
X146655566Y-118254500D01*
X146460434Y-118254500D01*
X146280154Y-118329175D01*
X146142175Y-118467154D01*
X146067500Y-118647434D01*
X146067500Y-118840369D01*
X145668693Y-119239177D01*
X145645365Y-119254764D01*
X145583613Y-119347184D01*
X145561927Y-119456200D01*
X145567401Y-119483718D01*
X145567400Y-121640600D01*
X142140514Y-121640600D01*
X142113000Y-121635127D01*
X142085486Y-121640600D01*
X142003984Y-121656812D01*
X141911564Y-121718564D01*
X141895979Y-121741889D01*
X141299895Y-122337975D01*
X141276564Y-122353564D01*
X141214812Y-122445985D01*
X141212841Y-122455895D01*
X141193127Y-122555000D01*
X141198600Y-122582513D01*
X141198600Y-122653425D01*
X141066711Y-122679660D01*
X140718036Y-122912636D01*
X140485060Y-123261312D01*
X140423900Y-123568782D01*
X140423900Y-124081219D01*
X140485060Y-124388689D01*
X140718037Y-124737364D01*
X141066712Y-124970340D01*
X141478000Y-125052151D01*
X141889289Y-124970340D01*
X142237964Y-124737364D01*
X142470940Y-124388688D01*
X142532100Y-124081218D01*
X142532100Y-123568781D01*
X142470940Y-123261311D01*
X142237964Y-122912636D01*
X141889288Y-122679660D01*
X141771834Y-122656297D01*
X142228732Y-122199400D01*
X145731070Y-122199400D01*
X146200608Y-122668939D01*
X146146711Y-122679660D01*
X145798036Y-122912636D01*
X145565060Y-123261312D01*
X145503900Y-123568782D01*
X145503900Y-124081219D01*
X145565060Y-124388689D01*
X145798037Y-124737364D01*
X145953140Y-124841000D01*
X145240810Y-124841000D01*
X144921843Y-124522033D01*
X145010940Y-124388688D01*
X145072100Y-124081218D01*
X145072100Y-123568781D01*
X145010940Y-123261311D01*
X144777964Y-122912636D01*
X144429288Y-122679660D01*
X144018000Y-122597849D01*
X143606711Y-122679660D01*
X143258036Y-122912636D01*
X143025060Y-123261312D01*
X142963900Y-123568782D01*
X142963900Y-124081219D01*
X143025060Y-124388689D01*
X143258037Y-124737364D01*
X143606712Y-124970340D01*
X144018000Y-125052151D01*
X144429289Y-124970340D01*
X144562633Y-124881243D01*
X144938304Y-125256914D01*
X144952476Y-125278124D01*
X145036494Y-125334263D01*
X145110583Y-125349000D01*
X145110584Y-125349000D01*
X145135599Y-125353976D01*
X145160614Y-125349000D01*
X147167984Y-125349000D01*
X147193000Y-125353976D01*
X147218016Y-125349000D01*
X147218017Y-125349000D01*
X147292106Y-125334263D01*
X147376124Y-125278124D01*
X147390298Y-125256911D01*
X147989917Y-124657294D01*
X148011124Y-124643124D01*
X148067263Y-124559106D01*
X148082000Y-124485017D01*
X148086976Y-124460000D01*
X148082000Y-124434983D01*
X148082000Y-124272759D01*
X148105060Y-124388689D01*
X148338037Y-124737364D01*
X148686712Y-124970340D01*
X149098000Y-125052151D01*
X149509289Y-124970340D01*
X149621100Y-124895631D01*
X149998577Y-125273108D01*
X150014164Y-125296436D01*
X150106584Y-125358188D01*
X150188086Y-125374400D01*
X150215599Y-125379873D01*
X150243112Y-125374400D01*
X172565487Y-125374400D01*
X172593000Y-125379873D01*
X172620513Y-125374400D01*
X172620514Y-125374400D01*
X172702016Y-125358188D01*
X172794436Y-125296436D01*
X172810025Y-125273105D01*
X173580916Y-124502215D01*
X173738037Y-124737364D01*
X174086712Y-124970340D01*
X174498000Y-125052151D01*
X174909289Y-124970340D01*
X175257964Y-124737364D01*
X175490940Y-124388688D01*
X175552100Y-124081218D01*
X175552100Y-123568781D01*
X175490940Y-123261311D01*
X175257964Y-122912636D01*
X174909288Y-122679660D01*
X174498000Y-122597849D01*
X174086711Y-122679660D01*
X173738036Y-122912636D01*
X173697890Y-122972719D01*
X173697890Y-118302917D01*
X174815500Y-118302917D01*
X174815500Y-119187083D01*
X175153856Y-120003945D01*
X175779055Y-120629144D01*
X176595917Y-120967500D01*
X177480083Y-120967500D01*
X178296945Y-120629144D01*
X178922144Y-120003945D01*
X179260500Y-119187083D01*
X179260500Y-118302917D01*
X178922144Y-117486055D01*
X178296945Y-116860856D01*
X177480083Y-116522500D01*
X176595917Y-116522500D01*
X175779055Y-116860856D01*
X175153856Y-117486055D01*
X174815500Y-118302917D01*
X173697890Y-118302917D01*
X173697890Y-117400240D01*
X179121108Y-111977023D01*
X179144436Y-111961436D01*
X179206188Y-111869016D01*
X179222400Y-111787514D01*
X179222400Y-111787513D01*
X179227873Y-111760000D01*
X179222400Y-111732487D01*
X179222400Y-97817514D01*
X179227873Y-97790000D01*
X179206188Y-97680984D01*
X179160021Y-97611889D01*
X179144436Y-97588564D01*
X179121111Y-97572979D01*
X177946425Y-96398295D01*
X178018129Y-96290983D01*
X178098884Y-95885000D01*
X178018129Y-95479017D01*
X177788158Y-95134842D01*
X177443983Y-94904871D01*
X177140477Y-94844500D01*
X176935523Y-94844500D01*
X176632017Y-94904871D01*
X176524705Y-94976574D01*
X171911048Y-90362917D01*
X174815500Y-90362917D01*
X174815500Y-91247083D01*
X175153856Y-92063945D01*
X175779055Y-92689144D01*
X176595917Y-93027500D01*
X177480083Y-93027500D01*
X178296945Y-92689144D01*
X178922144Y-92063945D01*
X179260500Y-91247083D01*
X179260500Y-90362917D01*
X178922144Y-89546055D01*
X178296945Y-88920856D01*
X177480083Y-88582500D01*
X176595917Y-88582500D01*
X175779055Y-88920856D01*
X175153856Y-89546055D01*
X174815500Y-90362917D01*
X171911048Y-90362917D01*
X167730025Y-86181895D01*
X167714436Y-86158564D01*
X167622016Y-86096812D01*
X167540514Y-86080600D01*
X167540513Y-86080600D01*
X167513000Y-86075127D01*
X167485487Y-86080600D01*
X166657271Y-86080600D01*
X166520846Y-85944175D01*
X166340566Y-85869500D01*
X166145434Y-85869500D01*
X165965154Y-85944175D01*
X165827175Y-86082154D01*
X165752500Y-86262434D01*
X165752500Y-86457566D01*
X165827175Y-86637846D01*
X165965154Y-86775825D01*
X166145434Y-86850500D01*
X166340566Y-86850500D01*
X166520846Y-86775825D01*
X166657271Y-86639400D01*
X167397270Y-86639400D01*
X176129574Y-95371705D01*
X176057871Y-95479017D01*
X175977116Y-95885000D01*
X176057871Y-96290983D01*
X176287842Y-96635158D01*
X176632017Y-96865129D01*
X176935523Y-96925500D01*
X177140477Y-96925500D01*
X177443983Y-96865129D01*
X177551295Y-96793425D01*
X178663601Y-97905733D01*
X178663600Y-111644269D01*
X178563806Y-111744063D01*
X178562000Y-111734983D01*
X178562000Y-100355017D01*
X178566976Y-100330000D01*
X178547263Y-100230894D01*
X178505295Y-100168084D01*
X178505294Y-100168083D01*
X178491124Y-100146876D01*
X178469917Y-100132706D01*
X177870298Y-99533089D01*
X177856124Y-99511876D01*
X177772106Y-99455737D01*
X177698017Y-99441000D01*
X177698016Y-99441000D01*
X177673000Y-99436024D01*
X177647984Y-99441000D01*
X177263647Y-99441000D01*
X177443983Y-99405129D01*
X177788158Y-99175158D01*
X178018129Y-98830983D01*
X178098884Y-98425000D01*
X178018129Y-98019017D01*
X177788158Y-97674842D01*
X177443983Y-97444871D01*
X177140477Y-97384500D01*
X176935523Y-97384500D01*
X176632017Y-97444871D01*
X176287842Y-97674842D01*
X176057871Y-98019017D01*
X175977116Y-98425000D01*
X176057871Y-98830983D01*
X176287842Y-99175158D01*
X176632017Y-99405129D01*
X176812353Y-99441000D01*
X175793014Y-99441000D01*
X175767999Y-99436024D01*
X175742984Y-99441000D01*
X175742983Y-99441000D01*
X175668894Y-99455737D01*
X175584876Y-99511876D01*
X175570704Y-99533086D01*
X175032828Y-100070963D01*
X174903983Y-99984871D01*
X174600477Y-99924500D01*
X174395523Y-99924500D01*
X174092017Y-99984871D01*
X173747842Y-100214842D01*
X173517871Y-100559017D01*
X173437116Y-100965000D01*
X173517871Y-101370983D01*
X173747842Y-101715158D01*
X174092017Y-101945129D01*
X174395523Y-102005500D01*
X174600477Y-102005500D01*
X174903983Y-101945129D01*
X175248158Y-101715158D01*
X175478129Y-101370983D01*
X175521526Y-101152809D01*
X176014590Y-101152809D01*
X176020619Y-101183130D01*
X176181537Y-101555861D01*
X176472844Y-101838639D01*
X176850191Y-101988413D01*
X177012600Y-101957568D01*
X177012600Y-100990400D01*
X176045450Y-100990400D01*
X176014590Y-101152809D01*
X175521526Y-101152809D01*
X175558884Y-100965000D01*
X175478129Y-100559017D01*
X175392037Y-100430172D01*
X175873210Y-99949000D01*
X176831514Y-99949000D01*
X176472844Y-100091361D01*
X176181537Y-100374139D01*
X176020619Y-100746870D01*
X176014590Y-100777191D01*
X176045450Y-100939600D01*
X177012600Y-100939600D01*
X177012600Y-100919600D01*
X177063400Y-100919600D01*
X177063400Y-100939600D01*
X177083400Y-100939600D01*
X177083400Y-100990400D01*
X177063400Y-100990400D01*
X177063400Y-101957568D01*
X177225809Y-101988413D01*
X177603156Y-101838639D01*
X177894463Y-101555861D01*
X178054000Y-101186329D01*
X178054001Y-111654788D01*
X172431089Y-117277702D01*
X172409876Y-117291876D01*
X172353738Y-117375894D01*
X172353737Y-117375895D01*
X172334024Y-117475000D01*
X172339000Y-117500016D01*
X172339001Y-121179788D01*
X171852791Y-121666000D01*
X148717000Y-121666000D01*
X148717000Y-116394937D01*
X164571153Y-116394937D01*
X164577390Y-116426307D01*
X164740531Y-116803858D01*
X165035736Y-117090239D01*
X165418063Y-117241850D01*
X165582600Y-117211172D01*
X165582600Y-116230400D01*
X165633400Y-116230400D01*
X165633400Y-117211172D01*
X165797937Y-117241850D01*
X166180264Y-117090239D01*
X166475469Y-116803858D01*
X166638610Y-116426307D01*
X166644847Y-116394937D01*
X166614154Y-116230400D01*
X165633400Y-116230400D01*
X165582600Y-116230400D01*
X164601846Y-116230400D01*
X164571153Y-116394937D01*
X148717000Y-116394937D01*
X148717000Y-116015063D01*
X164571153Y-116015063D01*
X164601846Y-116179600D01*
X165582600Y-116179600D01*
X165582600Y-115198828D01*
X165633400Y-115198828D01*
X165633400Y-116179600D01*
X166614154Y-116179600D01*
X166644847Y-116015063D01*
X166638610Y-115983693D01*
X166475469Y-115606142D01*
X166202570Y-115341400D01*
X167090168Y-115341400D01*
X167090168Y-117068600D01*
X167104953Y-117142929D01*
X167147057Y-117205943D01*
X167210071Y-117248047D01*
X167284400Y-117262832D01*
X169011600Y-117262832D01*
X169085929Y-117248047D01*
X169148943Y-117205943D01*
X169191047Y-117142929D01*
X169205832Y-117068600D01*
X169205832Y-115341400D01*
X169191047Y-115267071D01*
X169148943Y-115204057D01*
X169085929Y-115161953D01*
X169011600Y-115147168D01*
X167284400Y-115147168D01*
X167210071Y-115161953D01*
X167147057Y-115204057D01*
X167104953Y-115267071D01*
X167090168Y-115341400D01*
X166202570Y-115341400D01*
X166180264Y-115319761D01*
X165797937Y-115168150D01*
X165633400Y-115198828D01*
X165582600Y-115198828D01*
X165418063Y-115168150D01*
X165035736Y-115319761D01*
X164740531Y-115606142D01*
X164577390Y-115983693D01*
X164571153Y-116015063D01*
X148717000Y-116015063D01*
X148717000Y-110515014D01*
X148721976Y-110489999D01*
X148702569Y-110392434D01*
X148702263Y-110390894D01*
X148646124Y-110306876D01*
X148624914Y-110292704D01*
X147390298Y-109058089D01*
X147376124Y-109036876D01*
X147292106Y-108980737D01*
X147218017Y-108966000D01*
X147218016Y-108966000D01*
X147193000Y-108961024D01*
X147167984Y-108966000D01*
X143808702Y-108966000D01*
X143798825Y-108942154D01*
X143695671Y-108839000D01*
X152973926Y-108839000D01*
X152998942Y-108843976D01*
X153023958Y-108839000D01*
X153023959Y-108839000D01*
X153098048Y-108824263D01*
X153182066Y-108768124D01*
X153196240Y-108746911D01*
X154090717Y-107852434D01*
X156227500Y-107852434D01*
X156227500Y-108047566D01*
X156302175Y-108227846D01*
X156440154Y-108365825D01*
X156620434Y-108440500D01*
X156815566Y-108440500D01*
X156995846Y-108365825D01*
X157132271Y-108229400D01*
X157960487Y-108229400D01*
X157988000Y-108234873D01*
X158015513Y-108229400D01*
X158015514Y-108229400D01*
X158097016Y-108213188D01*
X158183354Y-108155500D01*
X158370566Y-108155500D01*
X158550846Y-108080825D01*
X158688825Y-107942846D01*
X158763500Y-107762566D01*
X158763500Y-107567434D01*
X158688825Y-107387154D01*
X158550846Y-107249175D01*
X158370566Y-107174500D01*
X158175434Y-107174500D01*
X157995154Y-107249175D01*
X157857175Y-107387154D01*
X157782500Y-107567434D01*
X157782500Y-107670600D01*
X157132271Y-107670600D01*
X156995846Y-107534175D01*
X156815566Y-107459500D01*
X156620434Y-107459500D01*
X156440154Y-107534175D01*
X156302175Y-107672154D01*
X156227500Y-107852434D01*
X154090717Y-107852434D01*
X154434914Y-107508238D01*
X154456124Y-107494066D01*
X154512263Y-107410048D01*
X154527000Y-107335959D01*
X154527000Y-107335958D01*
X154531976Y-107310943D01*
X154527000Y-107285928D01*
X154527000Y-106582434D01*
X157497500Y-106582434D01*
X157497500Y-106777566D01*
X157572175Y-106957846D01*
X157710154Y-107095825D01*
X157890434Y-107170500D01*
X158085566Y-107170500D01*
X158265846Y-107095825D01*
X158403825Y-106957846D01*
X158413702Y-106934000D01*
X162755329Y-106934000D01*
X162652175Y-107037154D01*
X162577500Y-107217434D01*
X162577500Y-107412566D01*
X162652175Y-107592846D01*
X162790154Y-107730825D01*
X162814000Y-107740702D01*
X162814001Y-111734979D01*
X162809024Y-111760000D01*
X162828737Y-111859105D01*
X162835360Y-111869017D01*
X162884877Y-111943124D01*
X162906087Y-111957296D01*
X163505706Y-112556917D01*
X163519876Y-112578124D01*
X163541083Y-112592294D01*
X163541084Y-112592295D01*
X163603894Y-112634263D01*
X163703000Y-112653976D01*
X163728017Y-112649000D01*
X165312641Y-112649000D01*
X165196711Y-112672060D01*
X164848036Y-112905036D01*
X164615060Y-113253711D01*
X164533249Y-113665000D01*
X164615060Y-114076289D01*
X164848036Y-114424964D01*
X165196711Y-114657940D01*
X165504181Y-114719100D01*
X165711819Y-114719100D01*
X166019289Y-114657940D01*
X166367964Y-114424964D01*
X166600940Y-114076289D01*
X166682751Y-113665000D01*
X166600940Y-113253711D01*
X166367964Y-112905036D01*
X166019289Y-112672060D01*
X165903359Y-112649000D01*
X166772791Y-112649000D01*
X167244157Y-113120367D01*
X167155060Y-113253711D01*
X167073249Y-113665000D01*
X167155060Y-114076289D01*
X167388036Y-114424964D01*
X167736711Y-114657940D01*
X168044181Y-114719100D01*
X168251819Y-114719100D01*
X168559289Y-114657940D01*
X168907964Y-114424964D01*
X169140940Y-114076289D01*
X169222751Y-113665000D01*
X169140940Y-113253711D01*
X168907964Y-112905036D01*
X168559289Y-112672060D01*
X168251819Y-112610900D01*
X168044181Y-112610900D01*
X167736711Y-112672060D01*
X167603367Y-112761157D01*
X167075298Y-112233089D01*
X167061124Y-112211876D01*
X166977106Y-112155737D01*
X166903017Y-112141000D01*
X166903016Y-112141000D01*
X166878000Y-112136024D01*
X166852984Y-112141000D01*
X165903359Y-112141000D01*
X166019289Y-112117940D01*
X166367964Y-111884964D01*
X166600940Y-111536289D01*
X166682751Y-111125000D01*
X166600940Y-110713711D01*
X166367964Y-110365036D01*
X166019289Y-110132060D01*
X165711819Y-110070900D01*
X165504181Y-110070900D01*
X165196711Y-110132060D01*
X164848036Y-110365036D01*
X164615060Y-110713711D01*
X164533249Y-111125000D01*
X164615060Y-111536289D01*
X164848036Y-111884964D01*
X165196711Y-112117940D01*
X165312641Y-112141000D01*
X163808211Y-112141000D01*
X163322000Y-111654791D01*
X163322000Y-107740702D01*
X163345846Y-107730825D01*
X163483825Y-107592846D01*
X163550825Y-107431094D01*
X163596648Y-107476917D01*
X163610818Y-107498124D01*
X163632025Y-107512294D01*
X163632026Y-107512295D01*
X163659871Y-107530900D01*
X163694836Y-107554263D01*
X163730496Y-107561356D01*
X163793942Y-107573976D01*
X163818959Y-107569000D01*
X165312641Y-107569000D01*
X165196711Y-107592060D01*
X164848036Y-107825036D01*
X164615060Y-108173711D01*
X164533249Y-108585000D01*
X164615060Y-108996289D01*
X164848036Y-109344964D01*
X165196711Y-109577940D01*
X165504181Y-109639100D01*
X165711819Y-109639100D01*
X166019289Y-109577940D01*
X166152633Y-109488843D01*
X166680704Y-110016914D01*
X166694876Y-110038124D01*
X166778894Y-110094263D01*
X166852983Y-110109000D01*
X166852984Y-110109000D01*
X166877999Y-110113976D01*
X166903014Y-110109000D01*
X167852641Y-110109000D01*
X167736711Y-110132060D01*
X167388036Y-110365036D01*
X167155060Y-110713711D01*
X167073249Y-111125000D01*
X167155060Y-111536289D01*
X167388036Y-111884964D01*
X167736711Y-112117940D01*
X168044181Y-112179100D01*
X168251819Y-112179100D01*
X168559289Y-112117940D01*
X168907964Y-111884964D01*
X169140940Y-111536289D01*
X169222751Y-111125000D01*
X169140940Y-110713711D01*
X168907964Y-110365036D01*
X168559289Y-110132060D01*
X168443359Y-110109000D01*
X174707298Y-110109000D01*
X174717175Y-110132846D01*
X174855154Y-110270825D01*
X175035434Y-110345500D01*
X175230566Y-110345500D01*
X175410846Y-110270825D01*
X175548825Y-110132846D01*
X175623500Y-109952566D01*
X175623500Y-109757434D01*
X175548825Y-109577154D01*
X175410846Y-109439175D01*
X175230566Y-109364500D01*
X175035434Y-109364500D01*
X174855154Y-109439175D01*
X174717175Y-109577154D01*
X174707298Y-109601000D01*
X168443359Y-109601000D01*
X168559289Y-109577940D01*
X168907964Y-109344964D01*
X169140940Y-108996289D01*
X169222751Y-108585000D01*
X169140940Y-108173711D01*
X168907964Y-107825036D01*
X168559289Y-107592060D01*
X168251819Y-107530900D01*
X168044181Y-107530900D01*
X167736711Y-107592060D01*
X167388036Y-107825036D01*
X167155060Y-108173711D01*
X167073249Y-108585000D01*
X167155060Y-108996289D01*
X167388036Y-109344964D01*
X167736711Y-109577940D01*
X167852641Y-109601000D01*
X166983210Y-109601000D01*
X166511843Y-109129633D01*
X166600940Y-108996289D01*
X166682751Y-108585000D01*
X166600940Y-108173711D01*
X166367964Y-107825036D01*
X166019289Y-107592060D01*
X165903359Y-107569000D01*
X166852984Y-107569000D01*
X166878000Y-107573976D01*
X166903016Y-107569000D01*
X166903017Y-107569000D01*
X166977106Y-107554263D01*
X167061124Y-107498124D01*
X167075298Y-107476911D01*
X167603367Y-106948843D01*
X167736711Y-107037940D01*
X168044181Y-107099100D01*
X168251819Y-107099100D01*
X168559289Y-107037940D01*
X168907964Y-106804964D01*
X169140940Y-106456289D01*
X169222751Y-106045000D01*
X169140940Y-105633711D01*
X168907964Y-105285036D01*
X168559289Y-105052060D01*
X168251819Y-104990900D01*
X168044181Y-104990900D01*
X167736711Y-105052060D01*
X167388036Y-105285036D01*
X167155060Y-105633711D01*
X167073249Y-106045000D01*
X167155060Y-106456289D01*
X167244157Y-106589633D01*
X166772791Y-107061000D01*
X165850516Y-107061000D01*
X166180264Y-106930239D01*
X166475469Y-106643858D01*
X166638610Y-106266307D01*
X166644847Y-106234937D01*
X166614154Y-106070400D01*
X165633400Y-106070400D01*
X165633400Y-106090400D01*
X165582600Y-106090400D01*
X165582600Y-106070400D01*
X164601846Y-106070400D01*
X164571153Y-106234937D01*
X164577390Y-106266307D01*
X164740531Y-106643858D01*
X165035736Y-106930239D01*
X165365484Y-107061000D01*
X163899153Y-107061000D01*
X163356240Y-106518089D01*
X163342066Y-106496876D01*
X163258048Y-106440737D01*
X163183959Y-106426000D01*
X163183958Y-106426000D01*
X163158942Y-106421024D01*
X163133926Y-106426000D01*
X158413702Y-106426000D01*
X158403825Y-106402154D01*
X158265846Y-106264175D01*
X158085566Y-106189500D01*
X157890434Y-106189500D01*
X157710154Y-106264175D01*
X157572175Y-106402154D01*
X157497500Y-106582434D01*
X154527000Y-106582434D01*
X154527000Y-105855063D01*
X164571153Y-105855063D01*
X164601846Y-106019600D01*
X165582600Y-106019600D01*
X165582600Y-105038828D01*
X165633400Y-105038828D01*
X165633400Y-106019600D01*
X166614154Y-106019600D01*
X166644847Y-105855063D01*
X166638610Y-105823693D01*
X166475469Y-105446142D01*
X166180264Y-105159761D01*
X165797937Y-105008150D01*
X165633400Y-105038828D01*
X165582600Y-105038828D01*
X165418063Y-105008150D01*
X165035736Y-105159761D01*
X164740531Y-105446142D01*
X164577390Y-105823693D01*
X164571153Y-105855063D01*
X154527000Y-105855063D01*
X154527000Y-100232434D01*
X158132500Y-100232434D01*
X158132500Y-100427566D01*
X158207175Y-100607846D01*
X158345154Y-100745825D01*
X158525434Y-100820500D01*
X158720566Y-100820500D01*
X158900846Y-100745825D01*
X159038825Y-100607846D01*
X159113500Y-100427566D01*
X159113500Y-100234630D01*
X160923131Y-98425000D01*
X173437116Y-98425000D01*
X173517871Y-98830983D01*
X173747842Y-99175158D01*
X174092017Y-99405129D01*
X174395523Y-99465500D01*
X174600477Y-99465500D01*
X174903983Y-99405129D01*
X175248158Y-99175158D01*
X175478129Y-98830983D01*
X175558884Y-98425000D01*
X175478129Y-98019017D01*
X175248158Y-97674842D01*
X174903983Y-97444871D01*
X174600477Y-97384500D01*
X174395523Y-97384500D01*
X174092017Y-97444871D01*
X173747842Y-97674842D01*
X173517871Y-98019017D01*
X173437116Y-98425000D01*
X160923131Y-98425000D01*
X161521111Y-97827021D01*
X161544436Y-97811436D01*
X161606188Y-97719016D01*
X161622400Y-97637514D01*
X161627873Y-97610000D01*
X161622400Y-97582486D01*
X161622400Y-96514271D01*
X161758825Y-96377846D01*
X161833500Y-96197566D01*
X161833500Y-96002434D01*
X161758825Y-95822154D01*
X161620846Y-95684175D01*
X161440566Y-95609500D01*
X161245434Y-95609500D01*
X161065154Y-95684175D01*
X160927175Y-95822154D01*
X160852500Y-96002434D01*
X160852500Y-96197566D01*
X160927175Y-96377846D01*
X161063600Y-96514271D01*
X161063601Y-97494267D01*
X158718370Y-99839500D01*
X158525434Y-99839500D01*
X158345154Y-99914175D01*
X158207175Y-100052154D01*
X158132500Y-100232434D01*
X154527000Y-100232434D01*
X154527000Y-97057434D01*
X158132500Y-97057434D01*
X158132500Y-97252566D01*
X158207175Y-97432846D01*
X158345154Y-97570825D01*
X158525434Y-97645500D01*
X158720566Y-97645500D01*
X158900846Y-97570825D01*
X159038825Y-97432846D01*
X159113500Y-97252566D01*
X159113500Y-97057434D01*
X159038825Y-96877154D01*
X158902400Y-96740729D01*
X158902400Y-95035000D01*
X173453768Y-95035000D01*
X173453768Y-96735000D01*
X173468553Y-96809329D01*
X173510657Y-96872343D01*
X173573671Y-96914447D01*
X173648000Y-96929232D01*
X175348000Y-96929232D01*
X175422329Y-96914447D01*
X175485343Y-96872343D01*
X175527447Y-96809329D01*
X175542232Y-96735000D01*
X175542232Y-95035000D01*
X175527447Y-94960671D01*
X175485343Y-94897657D01*
X175422329Y-94855553D01*
X175348000Y-94840768D01*
X173648000Y-94840768D01*
X173573671Y-94855553D01*
X173510657Y-94897657D01*
X173468553Y-94960671D01*
X173453768Y-95035000D01*
X158902400Y-95035000D01*
X158902400Y-92825730D01*
X159162631Y-92565500D01*
X159355566Y-92565500D01*
X159535846Y-92490825D01*
X159673825Y-92352846D01*
X159748500Y-92172566D01*
X159748500Y-91977434D01*
X159673825Y-91797154D01*
X159535846Y-91659175D01*
X159355566Y-91584500D01*
X159160434Y-91584500D01*
X158980154Y-91659175D01*
X158842175Y-91797154D01*
X158767500Y-91977434D01*
X158767500Y-92170369D01*
X158444895Y-92492975D01*
X158421564Y-92508564D01*
X158359812Y-92600985D01*
X158357841Y-92610895D01*
X158338127Y-92710000D01*
X158343600Y-92737513D01*
X158343601Y-96740728D01*
X158207175Y-96877154D01*
X158132500Y-97057434D01*
X154527000Y-97057434D01*
X154527000Y-93135702D01*
X154550846Y-93125825D01*
X154688825Y-92987846D01*
X154763500Y-92807566D01*
X154763500Y-92612434D01*
X154688825Y-92432154D01*
X154550846Y-92294175D01*
X154370566Y-92219500D01*
X154175434Y-92219500D01*
X153995154Y-92294175D01*
X153857175Y-92432154D01*
X153782500Y-92612434D01*
X153782500Y-92807566D01*
X153857175Y-92987846D01*
X153995154Y-93125825D01*
X154019000Y-93135702D01*
X154019001Y-105277430D01*
X153958825Y-105132154D01*
X153820846Y-104994175D01*
X153797000Y-104984298D01*
X153797000Y-101625016D01*
X153801976Y-101600000D01*
X153782263Y-101500894D01*
X153775641Y-101490984D01*
X153726124Y-101416876D01*
X153704914Y-101402704D01*
X145485298Y-93183089D01*
X145471124Y-93161876D01*
X145387106Y-93105737D01*
X145313017Y-93091000D01*
X145313016Y-93091000D01*
X145288000Y-93086024D01*
X145262984Y-93091000D01*
X139678211Y-93091000D01*
X139192000Y-92604791D01*
X139192000Y-91865702D01*
X139215846Y-91855825D01*
X139353825Y-91717846D01*
X139428500Y-91537566D01*
X139428500Y-91342434D01*
X139353825Y-91162154D01*
X139215846Y-91024175D01*
X139035566Y-90949500D01*
X138840434Y-90949500D01*
X138660154Y-91024175D01*
X138522175Y-91162154D01*
X138447500Y-91342434D01*
X138447500Y-91537566D01*
X138522175Y-91717846D01*
X138660154Y-91855825D01*
X138684001Y-91865703D01*
X138684000Y-92684983D01*
X138679024Y-92710000D01*
X138684000Y-92735016D01*
X138698737Y-92809105D01*
X138754876Y-92893124D01*
X138776089Y-92907298D01*
X139375706Y-93506917D01*
X139389876Y-93528124D01*
X139411083Y-93542294D01*
X139411084Y-93542295D01*
X139473894Y-93584263D01*
X139573000Y-93603976D01*
X139598017Y-93599000D01*
X145182791Y-93599000D01*
X145308990Y-93725199D01*
X145288000Y-93721024D01*
X145262984Y-93726000D01*
X138093702Y-93726000D01*
X138083825Y-93702154D01*
X137945846Y-93564175D01*
X137765566Y-93489500D01*
X137570434Y-93489500D01*
X137390154Y-93564175D01*
X137252175Y-93702154D01*
X137177500Y-93882434D01*
X137177500Y-94077566D01*
X137252175Y-94257846D01*
X137355329Y-94361000D01*
X137138211Y-94361000D01*
X136878622Y-94101412D01*
X136888500Y-94077566D01*
X136888500Y-93882434D01*
X136813825Y-93702154D01*
X136675846Y-93564175D01*
X136495566Y-93489500D01*
X136300434Y-93489500D01*
X136120154Y-93564175D01*
X135982175Y-93702154D01*
X135907500Y-93882434D01*
X135907500Y-94077566D01*
X135982175Y-94257846D01*
X136120154Y-94395825D01*
X136300434Y-94470500D01*
X136495566Y-94470500D01*
X136519412Y-94460622D01*
X136835705Y-94776916D01*
X136849876Y-94798124D01*
X136871083Y-94812294D01*
X136871084Y-94812295D01*
X136933894Y-94854263D01*
X137033000Y-94873976D01*
X137058017Y-94869000D01*
X145182791Y-94869000D01*
X145308990Y-94995199D01*
X145288000Y-94991024D01*
X145262984Y-94996000D01*
X135868211Y-94996000D01*
X135382000Y-94509791D01*
X135382000Y-94405702D01*
X135405846Y-94395825D01*
X135543825Y-94257846D01*
X135618500Y-94077566D01*
X135618500Y-93882434D01*
X135543825Y-93702154D01*
X135405846Y-93564175D01*
X135225566Y-93489500D01*
X135030434Y-93489500D01*
X134850154Y-93564175D01*
X134712175Y-93702154D01*
X134637500Y-93882434D01*
X134637500Y-94077566D01*
X134712175Y-94257846D01*
X134850154Y-94395825D01*
X134874000Y-94405703D01*
X134874000Y-94578119D01*
X134367958Y-94072077D01*
X134377836Y-94048230D01*
X134377836Y-93853098D01*
X134303161Y-93672818D01*
X134165182Y-93534839D01*
X133984902Y-93460164D01*
X133789770Y-93460164D01*
X133609490Y-93534839D01*
X133471511Y-93672818D01*
X133413962Y-93811753D01*
X132842000Y-93239791D01*
X132842000Y-91865702D01*
X132865846Y-91855825D01*
X133003825Y-91717846D01*
X133078500Y-91537566D01*
X133078500Y-91342434D01*
X133003825Y-91162154D01*
X132865846Y-91024175D01*
X132685566Y-90949500D01*
X132490434Y-90949500D01*
X132310154Y-91024175D01*
X132172175Y-91162154D01*
X132097500Y-91342434D01*
X132097500Y-91537566D01*
X132172175Y-91717846D01*
X132310154Y-91855825D01*
X132334001Y-91865703D01*
X132334000Y-93319984D01*
X132329024Y-93345000D01*
X132334000Y-93370016D01*
X132348737Y-93444105D01*
X132404876Y-93528124D01*
X132426089Y-93542298D01*
X132608990Y-93725199D01*
X132588000Y-93721024D01*
X132562984Y-93726000D01*
X131743702Y-93726000D01*
X131733825Y-93702154D01*
X131595846Y-93564175D01*
X131415566Y-93489500D01*
X131220434Y-93489500D01*
X131040154Y-93564175D01*
X130902175Y-93702154D01*
X130827500Y-93882434D01*
X130827500Y-94077566D01*
X130902175Y-94257846D01*
X131005329Y-94361000D01*
X130788211Y-94361000D01*
X130528622Y-94101412D01*
X130538500Y-94077566D01*
X130538500Y-93882434D01*
X130463825Y-93702154D01*
X130325846Y-93564175D01*
X130145566Y-93489500D01*
X129950434Y-93489500D01*
X129770154Y-93564175D01*
X129632175Y-93702154D01*
X129557500Y-93882434D01*
X129557500Y-94077566D01*
X129632175Y-94257846D01*
X129770154Y-94395825D01*
X129950434Y-94470500D01*
X130145566Y-94470500D01*
X130169412Y-94460622D01*
X130485705Y-94776916D01*
X130499876Y-94798124D01*
X130521083Y-94812294D01*
X130521084Y-94812295D01*
X130583894Y-94854263D01*
X130683000Y-94873976D01*
X130708017Y-94869000D01*
X132482791Y-94869000D01*
X132608990Y-94995199D01*
X132588000Y-94991024D01*
X132562984Y-94996000D01*
X129518211Y-94996000D01*
X129032000Y-94509791D01*
X129032000Y-94405702D01*
X129055846Y-94395825D01*
X129193825Y-94257846D01*
X129268500Y-94077566D01*
X129268500Y-93882434D01*
X129193825Y-93702154D01*
X129055846Y-93564175D01*
X128875566Y-93489500D01*
X128680434Y-93489500D01*
X128500154Y-93564175D01*
X128362175Y-93702154D01*
X128287500Y-93882434D01*
X128287500Y-94077566D01*
X128362175Y-94257846D01*
X128500154Y-94395825D01*
X128524000Y-94405703D01*
X128524000Y-94589983D01*
X128519024Y-94615000D01*
X128524000Y-94640016D01*
X128538737Y-94714105D01*
X128594876Y-94798124D01*
X128616089Y-94812298D01*
X129215706Y-95411917D01*
X129229876Y-95433124D01*
X129251083Y-95447294D01*
X129251084Y-95447295D01*
X129313894Y-95489263D01*
X129413000Y-95508976D01*
X129438017Y-95504000D01*
X132482791Y-95504000D01*
X132608990Y-95630199D01*
X132588000Y-95626024D01*
X132562984Y-95631000D01*
X128248211Y-95631000D01*
X127762000Y-95144791D01*
X127762000Y-94405702D01*
X127785846Y-94395825D01*
X127923825Y-94257846D01*
X127998500Y-94077566D01*
X127998500Y-93882434D01*
X127923825Y-93702154D01*
X127785846Y-93564175D01*
X127605566Y-93489500D01*
X127410434Y-93489500D01*
X127230154Y-93564175D01*
X127092175Y-93702154D01*
X127017500Y-93882434D01*
X127017500Y-94077566D01*
X127092175Y-94257846D01*
X127230154Y-94395825D01*
X127254001Y-94405703D01*
X127254000Y-95224984D01*
X127249024Y-95250000D01*
X127254000Y-95275016D01*
X127268737Y-95349105D01*
X127324876Y-95433124D01*
X127346089Y-95447298D01*
X127945706Y-96046917D01*
X127959876Y-96068124D01*
X127981083Y-96082294D01*
X127981084Y-96082295D01*
X128043894Y-96124263D01*
X128143000Y-96143976D01*
X128168017Y-96139000D01*
X132482791Y-96139000D01*
X132608990Y-96265199D01*
X132588000Y-96261024D01*
X132562984Y-96266000D01*
X127613210Y-96266000D01*
X126492000Y-95144791D01*
X126492000Y-94405702D01*
X126515846Y-94395825D01*
X126653825Y-94257846D01*
X126728500Y-94077566D01*
X126728500Y-93882434D01*
X126653825Y-93702154D01*
X126515846Y-93564175D01*
X126335566Y-93489500D01*
X126140434Y-93489500D01*
X125960154Y-93564175D01*
X125822175Y-93702154D01*
X125747500Y-93882434D01*
X125747500Y-94077566D01*
X125822175Y-94257846D01*
X125960154Y-94395825D01*
X125984001Y-94405703D01*
X125984000Y-95224984D01*
X125979024Y-95250000D01*
X125984000Y-95275016D01*
X125998737Y-95349105D01*
X126054876Y-95433124D01*
X126076089Y-95447298D01*
X127310704Y-96681914D01*
X127324876Y-96703124D01*
X127408894Y-96759263D01*
X127482983Y-96774000D01*
X127482984Y-96774000D01*
X127507999Y-96778976D01*
X127533014Y-96774000D01*
X132482791Y-96774000D01*
X132608990Y-96900199D01*
X132588000Y-96896024D01*
X132562984Y-96901000D01*
X126978210Y-96901000D01*
X125222000Y-95144791D01*
X125222000Y-94405702D01*
X125245846Y-94395825D01*
X125383825Y-94257846D01*
X125458500Y-94077566D01*
X125458500Y-93882434D01*
X125383825Y-93702154D01*
X125245846Y-93564175D01*
X125065566Y-93489500D01*
X124870434Y-93489500D01*
X124690154Y-93564175D01*
X124612400Y-93641929D01*
X124612400Y-87532434D01*
X151782500Y-87532434D01*
X151782500Y-87727566D01*
X151857175Y-87907846D01*
X151995154Y-88045825D01*
X152175434Y-88120500D01*
X152368369Y-88120500D01*
X152628600Y-88380732D01*
X152628601Y-95470728D01*
X152492175Y-95607154D01*
X152417500Y-95787434D01*
X152417500Y-95982566D01*
X152492175Y-96162846D01*
X152630154Y-96300825D01*
X152810434Y-96375500D01*
X153005566Y-96375500D01*
X153185846Y-96300825D01*
X153323825Y-96162846D01*
X153398500Y-95982566D01*
X153398500Y-95787434D01*
X153323825Y-95607154D01*
X153187400Y-95470729D01*
X153187400Y-88292514D01*
X153192873Y-88265000D01*
X153171188Y-88155984D01*
X153125021Y-88086889D01*
X153109436Y-88063564D01*
X153086111Y-88047979D01*
X152763500Y-87725369D01*
X152763500Y-87532434D01*
X152688825Y-87352154D01*
X152550846Y-87214175D01*
X152370566Y-87139500D01*
X152175434Y-87139500D01*
X151995154Y-87214175D01*
X151857175Y-87352154D01*
X151782500Y-87532434D01*
X124612400Y-87532434D01*
X124612400Y-83935730D01*
X125146111Y-83402021D01*
X125169436Y-83386436D01*
X125231188Y-83294016D01*
X125247400Y-83212514D01*
X125247400Y-83212513D01*
X125252873Y-83185000D01*
X125247400Y-83157486D01*
X125247400Y-82964271D01*
X125383825Y-82827846D01*
X125458500Y-82647566D01*
X125458500Y-82452434D01*
X125383825Y-82272154D01*
X125247400Y-82135729D01*
X125247400Y-80125730D01*
X126353731Y-79019400D01*
X134465487Y-79019400D01*
X134493000Y-79024873D01*
X134520513Y-79019400D01*
X134520514Y-79019400D01*
X134602016Y-79003188D01*
X134694436Y-78941436D01*
X134710025Y-78918105D01*
X135052108Y-78576023D01*
X135075436Y-78560436D01*
X135137188Y-78468016D01*
X135153400Y-78386514D01*
X135158873Y-78359001D01*
X135153400Y-78331488D01*
X135153400Y-76736575D01*
X135285289Y-76710340D01*
X135633964Y-76477364D01*
X135866940Y-76128688D01*
X135928100Y-75821218D01*
X135928100Y-75590400D01*
X136359900Y-75590400D01*
X136359900Y-75742800D01*
X136449859Y-76144253D01*
X136686599Y-76480722D01*
X137034080Y-76700982D01*
X137224063Y-76754247D01*
X137388600Y-76723554D01*
X137388600Y-75590400D01*
X137439400Y-75590400D01*
X137439400Y-76723554D01*
X137603937Y-76754247D01*
X137793920Y-76700982D01*
X138141401Y-76480722D01*
X138378141Y-76144253D01*
X138468100Y-75742800D01*
X138468100Y-75590400D01*
X137439400Y-75590400D01*
X137388600Y-75590400D01*
X136359900Y-75590400D01*
X135928100Y-75590400D01*
X135928100Y-75387200D01*
X136359900Y-75387200D01*
X136359900Y-75539600D01*
X137388600Y-75539600D01*
X137388600Y-74406446D01*
X137439400Y-74406446D01*
X137439400Y-75539600D01*
X138468100Y-75539600D01*
X138468100Y-75387200D01*
X138450528Y-75308782D01*
X138899900Y-75308782D01*
X138899900Y-75821219D01*
X138961060Y-76128689D01*
X139194037Y-76477364D01*
X139542712Y-76710340D01*
X139954000Y-76792151D01*
X140365289Y-76710340D01*
X140713964Y-76477364D01*
X140946940Y-76128688D01*
X141008100Y-75821218D01*
X141008100Y-75308782D01*
X141439900Y-75308782D01*
X141439900Y-75821219D01*
X141501060Y-76128689D01*
X141734037Y-76477364D01*
X142082712Y-76710340D01*
X142494000Y-76792151D01*
X142905289Y-76710340D01*
X143253964Y-76477364D01*
X143486940Y-76128688D01*
X143548100Y-75821218D01*
X143548100Y-75308782D01*
X143979900Y-75308782D01*
X143979900Y-75821219D01*
X144041060Y-76128689D01*
X144274037Y-76477364D01*
X144622712Y-76710340D01*
X145034000Y-76792151D01*
X145445289Y-76710340D01*
X145793964Y-76477364D01*
X146026940Y-76128688D01*
X146088100Y-75821218D01*
X146088100Y-75308782D01*
X146519900Y-75308782D01*
X146519900Y-75821219D01*
X146581060Y-76128689D01*
X146814037Y-76477364D01*
X147162712Y-76710340D01*
X147574000Y-76792151D01*
X147985289Y-76710340D01*
X148333964Y-76477364D01*
X148566940Y-76128688D01*
X148628100Y-75821218D01*
X148628100Y-75308782D01*
X149059900Y-75308782D01*
X149059900Y-75821219D01*
X149121060Y-76128689D01*
X149354037Y-76477364D01*
X149702712Y-76710340D01*
X150114000Y-76792151D01*
X150525289Y-76710340D01*
X150873964Y-76477364D01*
X151106940Y-76128688D01*
X151168100Y-75821218D01*
X151168100Y-75308782D01*
X151599900Y-75308782D01*
X151599900Y-75821219D01*
X151661060Y-76128689D01*
X151894037Y-76477364D01*
X152242712Y-76710340D01*
X152654000Y-76792151D01*
X153065289Y-76710340D01*
X153413964Y-76477364D01*
X153646940Y-76128688D01*
X153708100Y-75821218D01*
X153708100Y-75308782D01*
X155663900Y-75308782D01*
X155663900Y-75821219D01*
X155725060Y-76128689D01*
X155958037Y-76477364D01*
X156306712Y-76710340D01*
X156718000Y-76792151D01*
X157129289Y-76710340D01*
X157477964Y-76477364D01*
X157710940Y-76128688D01*
X157772100Y-75821218D01*
X157772100Y-75308782D01*
X158203900Y-75308782D01*
X158203900Y-75821219D01*
X158265060Y-76128689D01*
X158498037Y-76477364D01*
X158846712Y-76710340D01*
X159258000Y-76792151D01*
X159669289Y-76710340D01*
X160017964Y-76477364D01*
X160250940Y-76128688D01*
X160312100Y-75821218D01*
X160312100Y-75308782D01*
X160743900Y-75308782D01*
X160743900Y-75821219D01*
X160805060Y-76128689D01*
X161038037Y-76477364D01*
X161386712Y-76710340D01*
X161798000Y-76792151D01*
X162209289Y-76710340D01*
X162557964Y-76477364D01*
X162790940Y-76128688D01*
X162852100Y-75821218D01*
X162852100Y-75308782D01*
X163283900Y-75308782D01*
X163283900Y-75821219D01*
X163345060Y-76128689D01*
X163578037Y-76477364D01*
X163926712Y-76710340D01*
X164338000Y-76792151D01*
X164749289Y-76710340D01*
X165097964Y-76477364D01*
X165330940Y-76128688D01*
X165392100Y-75821218D01*
X165392100Y-75308782D01*
X165823900Y-75308782D01*
X165823900Y-75821219D01*
X165885060Y-76128689D01*
X166118037Y-76477364D01*
X166466712Y-76710340D01*
X166878000Y-76792151D01*
X167289289Y-76710340D01*
X167637964Y-76477364D01*
X167870940Y-76128688D01*
X167932100Y-75821218D01*
X167932100Y-75308782D01*
X168363900Y-75308782D01*
X168363900Y-75821219D01*
X168425060Y-76128689D01*
X168658037Y-76477364D01*
X169006712Y-76710340D01*
X169418000Y-76792151D01*
X169829289Y-76710340D01*
X170177964Y-76477364D01*
X170410940Y-76128688D01*
X170472100Y-75821218D01*
X170472100Y-75308782D01*
X170903900Y-75308782D01*
X170903900Y-75821219D01*
X170965060Y-76128689D01*
X171198037Y-76477364D01*
X171546712Y-76710340D01*
X171958000Y-76792151D01*
X172369289Y-76710340D01*
X172717964Y-76477364D01*
X172950940Y-76128688D01*
X173012100Y-75821218D01*
X173012100Y-75308782D01*
X173443900Y-75308782D01*
X173443900Y-75821219D01*
X173505060Y-76128689D01*
X173738037Y-76477364D01*
X174086712Y-76710340D01*
X174498000Y-76792151D01*
X174909289Y-76710340D01*
X175257964Y-76477364D01*
X175490940Y-76128688D01*
X175552100Y-75821218D01*
X175552100Y-75308781D01*
X175490940Y-75001311D01*
X175257964Y-74652636D01*
X174909288Y-74419660D01*
X174498000Y-74337849D01*
X174086711Y-74419660D01*
X173738036Y-74652636D01*
X173505060Y-75001312D01*
X173443900Y-75308782D01*
X173012100Y-75308782D01*
X173012100Y-75308781D01*
X172950940Y-75001311D01*
X172717964Y-74652636D01*
X172369288Y-74419660D01*
X171958000Y-74337849D01*
X171546711Y-74419660D01*
X171198036Y-74652636D01*
X170965060Y-75001312D01*
X170903900Y-75308782D01*
X170472100Y-75308782D01*
X170472100Y-75308781D01*
X170410940Y-75001311D01*
X170177964Y-74652636D01*
X169829288Y-74419660D01*
X169418000Y-74337849D01*
X169006711Y-74419660D01*
X168658036Y-74652636D01*
X168425060Y-75001312D01*
X168363900Y-75308782D01*
X167932100Y-75308782D01*
X167932100Y-75308781D01*
X167870940Y-75001311D01*
X167637964Y-74652636D01*
X167289288Y-74419660D01*
X166878000Y-74337849D01*
X166466711Y-74419660D01*
X166118036Y-74652636D01*
X165885060Y-75001312D01*
X165823900Y-75308782D01*
X165392100Y-75308782D01*
X165392100Y-75308781D01*
X165330940Y-75001311D01*
X165097964Y-74652636D01*
X164749288Y-74419660D01*
X164338000Y-74337849D01*
X163926711Y-74419660D01*
X163578036Y-74652636D01*
X163345060Y-75001312D01*
X163283900Y-75308782D01*
X162852100Y-75308782D01*
X162852100Y-75308781D01*
X162790940Y-75001311D01*
X162557964Y-74652636D01*
X162209288Y-74419660D01*
X161798000Y-74337849D01*
X161386711Y-74419660D01*
X161038036Y-74652636D01*
X160805060Y-75001312D01*
X160743900Y-75308782D01*
X160312100Y-75308782D01*
X160312100Y-75308781D01*
X160250940Y-75001311D01*
X160017964Y-74652636D01*
X159669288Y-74419660D01*
X159258000Y-74337849D01*
X158846711Y-74419660D01*
X158498036Y-74652636D01*
X158265060Y-75001312D01*
X158203900Y-75308782D01*
X157772100Y-75308782D01*
X157772100Y-75308781D01*
X157710940Y-75001311D01*
X157477964Y-74652636D01*
X157129288Y-74419660D01*
X156718000Y-74337849D01*
X156306711Y-74419660D01*
X155958036Y-74652636D01*
X155725060Y-75001312D01*
X155663900Y-75308782D01*
X153708100Y-75308782D01*
X153708100Y-75308781D01*
X153646940Y-75001311D01*
X153413964Y-74652636D01*
X153065288Y-74419660D01*
X152654000Y-74337849D01*
X152242711Y-74419660D01*
X151894036Y-74652636D01*
X151661060Y-75001312D01*
X151599900Y-75308782D01*
X151168100Y-75308782D01*
X151168100Y-75308781D01*
X151106940Y-75001311D01*
X150873964Y-74652636D01*
X150525288Y-74419660D01*
X150114000Y-74337849D01*
X149702711Y-74419660D01*
X149354036Y-74652636D01*
X149121060Y-75001312D01*
X149059900Y-75308782D01*
X148628100Y-75308782D01*
X148628100Y-75308781D01*
X148566940Y-75001311D01*
X148333964Y-74652636D01*
X147985288Y-74419660D01*
X147574000Y-74337849D01*
X147162711Y-74419660D01*
X146814036Y-74652636D01*
X146581060Y-75001312D01*
X146519900Y-75308782D01*
X146088100Y-75308782D01*
X146088100Y-75308781D01*
X146026940Y-75001311D01*
X145793964Y-74652636D01*
X145445288Y-74419660D01*
X145034000Y-74337849D01*
X144622711Y-74419660D01*
X144274036Y-74652636D01*
X144041060Y-75001312D01*
X143979900Y-75308782D01*
X143548100Y-75308782D01*
X143548100Y-75308781D01*
X143486940Y-75001311D01*
X143253964Y-74652636D01*
X142905288Y-74419660D01*
X142494000Y-74337849D01*
X142082711Y-74419660D01*
X141734036Y-74652636D01*
X141501060Y-75001312D01*
X141439900Y-75308782D01*
X141008100Y-75308782D01*
X141008100Y-75308781D01*
X140946940Y-75001311D01*
X140713964Y-74652636D01*
X140365288Y-74419660D01*
X139954000Y-74337849D01*
X139542711Y-74419660D01*
X139194036Y-74652636D01*
X138961060Y-75001312D01*
X138899900Y-75308782D01*
X138450528Y-75308782D01*
X138378141Y-74985747D01*
X138141401Y-74649278D01*
X137793920Y-74429018D01*
X137603937Y-74375753D01*
X137439400Y-74406446D01*
X137388600Y-74406446D01*
X137224063Y-74375753D01*
X137034080Y-74429018D01*
X136686599Y-74649278D01*
X136449859Y-74985747D01*
X136359900Y-75387200D01*
X135928100Y-75387200D01*
X135928100Y-75308781D01*
X135866940Y-75001311D01*
X135633964Y-74652636D01*
X135285288Y-74419660D01*
X134874000Y-74337849D01*
X134462711Y-74419660D01*
X134114036Y-74652636D01*
X133881060Y-75001312D01*
X133819900Y-75308782D01*
X133819900Y-75821219D01*
X133881060Y-76128689D01*
X134114037Y-76477364D01*
X134462712Y-76710340D01*
X134594600Y-76736574D01*
X134594601Y-78243268D01*
X134377270Y-78460600D01*
X126265512Y-78460600D01*
X126237999Y-78455127D01*
X126210486Y-78460600D01*
X126128984Y-78476812D01*
X126036564Y-78538564D01*
X126020977Y-78561892D01*
X124789893Y-79792977D01*
X124766565Y-79808564D01*
X124704813Y-79900984D01*
X124683127Y-80010000D01*
X124688601Y-80037518D01*
X124688600Y-82135729D01*
X124552175Y-82272154D01*
X124477500Y-82452434D01*
X124477500Y-82647566D01*
X124552175Y-82827846D01*
X124688600Y-82964271D01*
X124688600Y-83069268D01*
X124154893Y-83602977D01*
X124131565Y-83618564D01*
X124069813Y-83710984D01*
X124048127Y-83820000D01*
X124053601Y-83847518D01*
X124053600Y-95134269D01*
X121042270Y-98145600D01*
X120302271Y-98145600D01*
X120165846Y-98009175D01*
X119985566Y-97934500D01*
X119790434Y-97934500D01*
X119610154Y-98009175D01*
X119472175Y-98147154D01*
X119397500Y-98327434D01*
X119397500Y-98522566D01*
X119472175Y-98702846D01*
X119608600Y-98839271D01*
X119608601Y-104024268D01*
X118713370Y-104919500D01*
X118520434Y-104919500D01*
X118340154Y-104994175D01*
X118202175Y-105132154D01*
X118127500Y-105312434D01*
X116992400Y-105312434D01*
X116992400Y-99087514D01*
X116997873Y-99060000D01*
X116976188Y-98950984D01*
X116930021Y-98881889D01*
X116914436Y-98858564D01*
X116891111Y-98842979D01*
X116568500Y-98520369D01*
X116568500Y-98327434D01*
X116493825Y-98147154D01*
X116355846Y-98009175D01*
X116175566Y-97934500D01*
X115980434Y-97934500D01*
X115800154Y-98009175D01*
X115662175Y-98147154D01*
X115587500Y-98327434D01*
X111263500Y-98327434D01*
X111263500Y-92129238D01*
X111373571Y-92306008D01*
X111624522Y-92485607D01*
X111925100Y-92555500D01*
X112275100Y-92555500D01*
X112275100Y-91790400D01*
X112325900Y-91790400D01*
X112325900Y-92555500D01*
X112675900Y-92555500D01*
X112976478Y-92485607D01*
X113227429Y-92306008D01*
X113390548Y-92044045D01*
X113426891Y-91913685D01*
X113392941Y-91790400D01*
X112325900Y-91790400D01*
X112275100Y-91790400D01*
X112255100Y-91790400D01*
X112255100Y-91739600D01*
X112275100Y-91739600D01*
X112275100Y-90974500D01*
X112325900Y-90974500D01*
X112325900Y-91739600D01*
X113392941Y-91739600D01*
X113426891Y-91616315D01*
X113390548Y-91485955D01*
X113342671Y-91409066D01*
X114392355Y-91409066D01*
X114472592Y-91534816D01*
X114807373Y-91678239D01*
X115171555Y-91682629D01*
X115509695Y-91547320D01*
X115528408Y-91534816D01*
X115608645Y-91409066D01*
X115000500Y-90800921D01*
X114392355Y-91409066D01*
X113342671Y-91409066D01*
X113227429Y-91223992D01*
X112976478Y-91044393D01*
X112675900Y-90974500D01*
X112325900Y-90974500D01*
X112275100Y-90974500D01*
X111925100Y-90974500D01*
X111624522Y-91044393D01*
X111373571Y-91223992D01*
X111263500Y-91400762D01*
X111263500Y-90936055D01*
X114082871Y-90936055D01*
X114218180Y-91274195D01*
X114230684Y-91292908D01*
X114356434Y-91373145D01*
X114964579Y-90765000D01*
X115036421Y-90765000D01*
X115644566Y-91373145D01*
X115770316Y-91292908D01*
X115913739Y-90958127D01*
X115918129Y-90593945D01*
X115782820Y-90255805D01*
X115770316Y-90237092D01*
X115644566Y-90156855D01*
X115036421Y-90765000D01*
X114964579Y-90765000D01*
X114356434Y-90156855D01*
X114230684Y-90237092D01*
X114087261Y-90571873D01*
X114082871Y-90936055D01*
X111263500Y-90936055D01*
X111263500Y-90120934D01*
X114392355Y-90120934D01*
X115000500Y-90729079D01*
X115608645Y-90120934D01*
X115528408Y-89995184D01*
X115193627Y-89851761D01*
X114829445Y-89847371D01*
X114491305Y-89982680D01*
X114472592Y-89995184D01*
X114392355Y-90120934D01*
X111263500Y-90120934D01*
X111263500Y-86409066D01*
X114392355Y-86409066D01*
X114472592Y-86534816D01*
X114807373Y-86678239D01*
X115171555Y-86682629D01*
X115509695Y-86547320D01*
X115528408Y-86534816D01*
X115608645Y-86409066D01*
X115000500Y-85800921D01*
X114392355Y-86409066D01*
X111263500Y-86409066D01*
X111263500Y-85936055D01*
X114082871Y-85936055D01*
X114218180Y-86274195D01*
X114230684Y-86292908D01*
X114356434Y-86373145D01*
X114964579Y-85765000D01*
X115036421Y-85765000D01*
X115644566Y-86373145D01*
X115770316Y-86292908D01*
X115913739Y-85958127D01*
X115918129Y-85593945D01*
X115782820Y-85255805D01*
X115770316Y-85237092D01*
X115644566Y-85156855D01*
X115036421Y-85765000D01*
X114964579Y-85765000D01*
X114356434Y-85156855D01*
X114230684Y-85237092D01*
X114087261Y-85571873D01*
X114082871Y-85936055D01*
X111263500Y-85936055D01*
X111263500Y-85129238D01*
X111373571Y-85306008D01*
X111624522Y-85485607D01*
X111925100Y-85555500D01*
X112275100Y-85555500D01*
X112275100Y-84790400D01*
X112325900Y-84790400D01*
X112325900Y-85555500D01*
X112675900Y-85555500D01*
X112976478Y-85485607D01*
X113227429Y-85306008D01*
X113342670Y-85120934D01*
X114392355Y-85120934D01*
X115000500Y-85729079D01*
X115608645Y-85120934D01*
X115528408Y-84995184D01*
X115193627Y-84851761D01*
X114829445Y-84847371D01*
X114491305Y-84982680D01*
X114472592Y-84995184D01*
X114392355Y-85120934D01*
X113342670Y-85120934D01*
X113390548Y-85044045D01*
X113426891Y-84913685D01*
X113392941Y-84790400D01*
X112325900Y-84790400D01*
X112275100Y-84790400D01*
X112255100Y-84790400D01*
X112255100Y-84739600D01*
X112275100Y-84739600D01*
X112275100Y-83974500D01*
X112325900Y-83974500D01*
X112325900Y-84739600D01*
X113392941Y-84739600D01*
X113426891Y-84616315D01*
X113390548Y-84485955D01*
X113227429Y-84223992D01*
X112976478Y-84044393D01*
X112675900Y-83974500D01*
X112325900Y-83974500D01*
X112275100Y-83974500D01*
X111925100Y-83974500D01*
X111624522Y-84044393D01*
X111373571Y-84223992D01*
X111263500Y-84400762D01*
X111263500Y-79773195D01*
X112832500Y-79773195D01*
X112832500Y-80246805D01*
X113013743Y-80684364D01*
X113348636Y-81019257D01*
X113786195Y-81200500D01*
X114259805Y-81200500D01*
X114697364Y-81019257D01*
X115032257Y-80684364D01*
X115213500Y-80246805D01*
X115213500Y-79773195D01*
X119332500Y-79773195D01*
X119332500Y-80246805D01*
X119513743Y-80684364D01*
X119848636Y-81019257D01*
X120286195Y-81200500D01*
X120759805Y-81200500D01*
X121197364Y-81019257D01*
X121532257Y-80684364D01*
X121706378Y-80264000D01*
X122957791Y-80264000D01*
X123444000Y-80750211D01*
X123444001Y-94509788D01*
X123184412Y-94769378D01*
X123160566Y-94759500D01*
X122965434Y-94759500D01*
X122785154Y-94834175D01*
X122647175Y-94972154D01*
X122572500Y-95152434D01*
X122572500Y-95347566D01*
X122647175Y-95527846D01*
X122785154Y-95665825D01*
X122965434Y-95740500D01*
X123160566Y-95740500D01*
X123340846Y-95665825D01*
X123478825Y-95527846D01*
X123553500Y-95347566D01*
X123553500Y-95152434D01*
X123543622Y-95128588D01*
X123859917Y-94812294D01*
X123881124Y-94798124D01*
X123895296Y-94776915D01*
X123937263Y-94714106D01*
X123956976Y-94615000D01*
X123952000Y-94589983D01*
X123952000Y-80670017D01*
X123956976Y-80645000D01*
X123937263Y-80545894D01*
X123895295Y-80483084D01*
X123895294Y-80483083D01*
X123881124Y-80461876D01*
X123859917Y-80447706D01*
X123260298Y-79848089D01*
X123246124Y-79826876D01*
X123162106Y-79770737D01*
X123088017Y-79756000D01*
X123088016Y-79756000D01*
X123063000Y-79751024D01*
X123037984Y-79756000D01*
X121706378Y-79756000D01*
X121532257Y-79335636D01*
X121197364Y-79000743D01*
X120759805Y-78819500D01*
X120286195Y-78819500D01*
X119848636Y-79000743D01*
X119513743Y-79335636D01*
X119332500Y-79773195D01*
X115213500Y-79773195D01*
X115032257Y-79335636D01*
X114697364Y-79000743D01*
X114259805Y-78819500D01*
X113786195Y-78819500D01*
X113348636Y-79000743D01*
X113013743Y-79335636D01*
X112832500Y-79773195D01*
X111263500Y-79773195D01*
X111263500Y-76352391D01*
X113216530Y-76352391D01*
X113330238Y-76506718D01*
X113764399Y-76695956D01*
X114237929Y-76704643D01*
X114678739Y-76531456D01*
X114715762Y-76506718D01*
X114829470Y-76352391D01*
X119716530Y-76352391D01*
X119830238Y-76506718D01*
X120264399Y-76695956D01*
X120737929Y-76704643D01*
X121178739Y-76531456D01*
X121215762Y-76506718D01*
X121329470Y-76352391D01*
X120523000Y-75545921D01*
X119716530Y-76352391D01*
X114829470Y-76352391D01*
X114023000Y-75545921D01*
X113216530Y-76352391D01*
X111263500Y-76352391D01*
X111263500Y-75724929D01*
X112828357Y-75724929D01*
X113001544Y-76165739D01*
X113026282Y-76202762D01*
X113180609Y-76316470D01*
X113987079Y-75510000D01*
X114058921Y-75510000D01*
X114865391Y-76316470D01*
X115019718Y-76202762D01*
X115208956Y-75768601D01*
X115209757Y-75724929D01*
X119328357Y-75724929D01*
X119501544Y-76165739D01*
X119526282Y-76202762D01*
X119680609Y-76316470D01*
X120487079Y-75510000D01*
X120558921Y-75510000D01*
X121365391Y-76316470D01*
X121519718Y-76202762D01*
X121708956Y-75768601D01*
X121717643Y-75295071D01*
X121650007Y-75122917D01*
X124015500Y-75122917D01*
X124015500Y-76007083D01*
X124353856Y-76823945D01*
X124979055Y-77449144D01*
X125795917Y-77787500D01*
X126680083Y-77787500D01*
X127496945Y-77449144D01*
X128122144Y-76823945D01*
X128460500Y-76007083D01*
X128460500Y-75308782D01*
X128739900Y-75308782D01*
X128739900Y-75821219D01*
X128801060Y-76128689D01*
X129034037Y-76477364D01*
X129382712Y-76710340D01*
X129794000Y-76792151D01*
X130205289Y-76710340D01*
X130553964Y-76477364D01*
X130786940Y-76128688D01*
X130848100Y-75821218D01*
X130848100Y-75308782D01*
X131279900Y-75308782D01*
X131279900Y-75821219D01*
X131341060Y-76128689D01*
X131574037Y-76477364D01*
X131922712Y-76710340D01*
X132334000Y-76792151D01*
X132745289Y-76710340D01*
X133093964Y-76477364D01*
X133326940Y-76128688D01*
X133388100Y-75821218D01*
X133388100Y-75308781D01*
X133326940Y-75001311D01*
X133093964Y-74652636D01*
X132745288Y-74419660D01*
X132334000Y-74337849D01*
X131922711Y-74419660D01*
X131574036Y-74652636D01*
X131341060Y-75001312D01*
X131279900Y-75308782D01*
X130848100Y-75308782D01*
X130848100Y-75308781D01*
X130786940Y-75001311D01*
X130553964Y-74652636D01*
X130205288Y-74419660D01*
X129794000Y-74337849D01*
X129382711Y-74419660D01*
X129034036Y-74652636D01*
X128801060Y-75001312D01*
X128739900Y-75308782D01*
X128460500Y-75308782D01*
X128460500Y-75122917D01*
X128122144Y-74306055D01*
X127496945Y-73680856D01*
X126680083Y-73342500D01*
X125795917Y-73342500D01*
X124979055Y-73680856D01*
X124353856Y-74306055D01*
X124015500Y-75122917D01*
X121650007Y-75122917D01*
X121544456Y-74854261D01*
X121519718Y-74817238D01*
X121365391Y-74703530D01*
X120558921Y-75510000D01*
X120487079Y-75510000D01*
X119680609Y-74703530D01*
X119526282Y-74817238D01*
X119337044Y-75251399D01*
X119328357Y-75724929D01*
X115209757Y-75724929D01*
X115217643Y-75295071D01*
X115044456Y-74854261D01*
X115019718Y-74817238D01*
X114865391Y-74703530D01*
X114058921Y-75510000D01*
X113987079Y-75510000D01*
X113180609Y-74703530D01*
X113026282Y-74817238D01*
X112837044Y-75251399D01*
X112828357Y-75724929D01*
X111263500Y-75724929D01*
X111263500Y-74667609D01*
X113216530Y-74667609D01*
X114023000Y-75474079D01*
X114829470Y-74667609D01*
X119716530Y-74667609D01*
X120523000Y-75474079D01*
X121329470Y-74667609D01*
X121215762Y-74513282D01*
X120781601Y-74324044D01*
X120308071Y-74315357D01*
X119867261Y-74488544D01*
X119830238Y-74513282D01*
X119716530Y-74667609D01*
X114829470Y-74667609D01*
X114715762Y-74513282D01*
X114281601Y-74324044D01*
X113808071Y-74315357D01*
X113367261Y-74488544D01*
X113330238Y-74513282D01*
X113216530Y-74667609D01*
X111263500Y-74667609D01*
X111263500Y-73290500D01*
X175404027Y-73290500D01*
X176772501Y-74658975D01*
X176772501Y-74658975D01*
G37*
X176772501Y-74658975D02*
X176772500Y-85952853D01*
X176767299Y-85979000D01*
X176772500Y-86005146D01*
X176787905Y-86082592D01*
X176846585Y-86170415D01*
X176868756Y-86185229D01*
X179312501Y-88628975D01*
X179312500Y-121175026D01*
X176868754Y-123618773D01*
X176846586Y-123633585D01*
X176831775Y-123655752D01*
X176787905Y-123721408D01*
X176767299Y-123825000D01*
X176772501Y-123851152D01*
X176772500Y-126099500D01*
X111263500Y-126099500D01*
X111263500Y-123740633D01*
X117255192Y-123740633D01*
X117310790Y-123938850D01*
X117538940Y-124298139D01*
X117887217Y-124542770D01*
X118302600Y-124635500D01*
X119402600Y-124635500D01*
X119402600Y-123570400D01*
X119453400Y-123570400D01*
X119453400Y-124635500D01*
X120553400Y-124635500D01*
X120968783Y-124542770D01*
X121317060Y-124298139D01*
X121545210Y-123938850D01*
X121600808Y-123740633D01*
X121570566Y-123570400D01*
X119453400Y-123570400D01*
X119402600Y-123570400D01*
X117285434Y-123570400D01*
X117255192Y-123740633D01*
X111263500Y-123740633D01*
X111263500Y-123349367D01*
X117255192Y-123349367D01*
X117285434Y-123519600D01*
X119402600Y-123519600D01*
X119402600Y-122454500D01*
X119453400Y-122454500D01*
X119453400Y-123519600D01*
X121570566Y-123519600D01*
X121594847Y-123382917D01*
X122745500Y-123382917D01*
X122745500Y-124267083D01*
X123083856Y-125083945D01*
X123709055Y-125709144D01*
X124525917Y-126047500D01*
X125410083Y-126047500D01*
X126226945Y-125709144D01*
X126852144Y-125083945D01*
X127190500Y-124267083D01*
X127190500Y-123568782D01*
X137883900Y-123568782D01*
X137883900Y-124081219D01*
X137945060Y-124388689D01*
X138178037Y-124737364D01*
X138526712Y-124970340D01*
X138938000Y-125052151D01*
X139349289Y-124970340D01*
X139697964Y-124737364D01*
X139930940Y-124388688D01*
X139992100Y-124081218D01*
X139992100Y-123568781D01*
X139930940Y-123261311D01*
X139697964Y-122912636D01*
X139349288Y-122679660D01*
X138938000Y-122597849D01*
X138526711Y-122679660D01*
X138178036Y-122912636D01*
X137945060Y-123261312D01*
X137883900Y-123568782D01*
X127190500Y-123568782D01*
X127190500Y-123382917D01*
X126852144Y-122566055D01*
X126226945Y-121940856D01*
X125410083Y-121602500D01*
X124525917Y-121602500D01*
X123709055Y-121940856D01*
X123083856Y-122566055D01*
X122745500Y-123382917D01*
X121594847Y-123382917D01*
X121600808Y-123349367D01*
X121545210Y-123151150D01*
X121317060Y-122791861D01*
X120968783Y-122547230D01*
X120553400Y-122454500D01*
X119453400Y-122454500D01*
X119402600Y-122454500D01*
X118302600Y-122454500D01*
X117887217Y-122547230D01*
X117538940Y-122791861D01*
X117310790Y-123151150D01*
X117255192Y-123349367D01*
X111263500Y-123349367D01*
X111263500Y-118770400D01*
X115537500Y-118770400D01*
X115537500Y-119870400D01*
X115630230Y-120285783D01*
X115874861Y-120634060D01*
X116234150Y-120862210D01*
X116432367Y-120917808D01*
X116602600Y-120887566D01*
X116602600Y-118770400D01*
X116653400Y-118770400D01*
X116653400Y-120887566D01*
X116823633Y-120917808D01*
X117021850Y-120862210D01*
X117381139Y-120634060D01*
X117625770Y-120285783D01*
X117718500Y-119870400D01*
X117718500Y-118770400D01*
X116653400Y-118770400D01*
X116602600Y-118770400D01*
X115537500Y-118770400D01*
X111263500Y-118770400D01*
X111263500Y-117619600D01*
X115537500Y-117619600D01*
X115537500Y-118719600D01*
X116602600Y-118719600D01*
X116602600Y-116602434D01*
X116653400Y-116602434D01*
X116653400Y-118719600D01*
X117718500Y-118719600D01*
X117718500Y-117619600D01*
X117625770Y-117204217D01*
X117381139Y-116855940D01*
X117021850Y-116627790D01*
X116823633Y-116572192D01*
X116653400Y-116602434D01*
X116602600Y-116602434D01*
X116432367Y-116572192D01*
X116234150Y-116627790D01*
X115874861Y-116855940D01*
X115630230Y-117204217D01*
X115537500Y-117619600D01*
X111263500Y-117619600D01*
X111263500Y-116545000D01*
X121333768Y-116545000D01*
X121333768Y-120945000D01*
X121348553Y-121019329D01*
X121390657Y-121082343D01*
X121453671Y-121124447D01*
X121528000Y-121139232D01*
X123328000Y-121139232D01*
X123402329Y-121124447D01*
X123465343Y-121082343D01*
X123507447Y-121019329D01*
X123522232Y-120945000D01*
X123522232Y-116545000D01*
X123507447Y-116470671D01*
X123465343Y-116407657D01*
X123402329Y-116365553D01*
X123328000Y-116350768D01*
X121528000Y-116350768D01*
X121453671Y-116365553D01*
X121390657Y-116407657D01*
X121348553Y-116470671D01*
X121333768Y-116545000D01*
X111263500Y-116545000D01*
X111263500Y-98327434D01*
X115587500Y-98327434D01*
X115587500Y-98522566D01*
X115662175Y-98702846D01*
X115800154Y-98840825D01*
X115980434Y-98915500D01*
X116173369Y-98915500D01*
X116433600Y-99175732D01*
X116433601Y-112367482D01*
X116428127Y-112395000D01*
X116447842Y-112494106D01*
X116449813Y-112504016D01*
X116511565Y-112596436D01*
X116534893Y-112612023D01*
X119035977Y-115113108D01*
X119051564Y-115136436D01*
X119143984Y-115198188D01*
X119225486Y-115214400D01*
X119252999Y-115219873D01*
X119280512Y-115214400D01*
X124852270Y-115214400D01*
X128560979Y-118923111D01*
X128576564Y-118946436D01*
X128599889Y-118962021D01*
X128668984Y-119008188D01*
X128778000Y-119029873D01*
X128805514Y-119024400D01*
X134713729Y-119024400D01*
X134850154Y-119160825D01*
X135030434Y-119235500D01*
X135225566Y-119235500D01*
X135405846Y-119160825D01*
X135543825Y-119022846D01*
X135618500Y-118842566D01*
X135618500Y-118647434D01*
X135543825Y-118467154D01*
X135405846Y-118329175D01*
X135225566Y-118254500D01*
X135030434Y-118254500D01*
X134850154Y-118329175D01*
X134713729Y-118465600D01*
X128893732Y-118465600D01*
X125185025Y-114756895D01*
X125169436Y-114733564D01*
X125077016Y-114671812D01*
X124995514Y-114655600D01*
X124995513Y-114655600D01*
X124968000Y-114650127D01*
X124940487Y-114655600D01*
X119368731Y-114655600D01*
X116992400Y-112279270D01*
X116992400Y-105312434D01*
X118127500Y-105312434D01*
X118127500Y-105507566D01*
X118202175Y-105687846D01*
X118340154Y-105825825D01*
X118520434Y-105900500D01*
X118715566Y-105900500D01*
X118895846Y-105825825D01*
X119033825Y-105687846D01*
X119108500Y-105507566D01*
X119108500Y-105314630D01*
X120066108Y-104357023D01*
X120089436Y-104341436D01*
X120151188Y-104249016D01*
X120167400Y-104167514D01*
X120167400Y-104167513D01*
X120172873Y-104140001D01*
X120167400Y-104112486D01*
X120167400Y-99398071D01*
X120245154Y-99475825D01*
X120269001Y-99485703D01*
X120269000Y-104749984D01*
X120264024Y-104775000D01*
X120269000Y-104800016D01*
X120283737Y-104874105D01*
X120339876Y-104958124D01*
X120361089Y-104972298D01*
X122230704Y-106841914D01*
X122244876Y-106863124D01*
X122328893Y-106919262D01*
X122328894Y-106919263D01*
X122428000Y-106938976D01*
X122453017Y-106934000D01*
X128352298Y-106934000D01*
X128362175Y-106957846D01*
X128500154Y-107095825D01*
X128680434Y-107170500D01*
X128875566Y-107170500D01*
X129055846Y-107095825D01*
X129193825Y-106957846D01*
X129268500Y-106777566D01*
X129268500Y-106582434D01*
X129193825Y-106402154D01*
X129090671Y-106299000D01*
X129307791Y-106299000D01*
X129567378Y-106558588D01*
X129557500Y-106582434D01*
X129557500Y-106777566D01*
X129632175Y-106957846D01*
X129770154Y-107095825D01*
X129794001Y-107105703D01*
X129794001Y-107380921D01*
X129789024Y-107405942D01*
X129808737Y-107505047D01*
X129813580Y-107512295D01*
X129864877Y-107589066D01*
X129886087Y-107603238D01*
X130394762Y-108111914D01*
X130408934Y-108133124D01*
X130492952Y-108189263D01*
X130567041Y-108204000D01*
X130567042Y-108204000D01*
X130592057Y-108208976D01*
X130617072Y-108204000D01*
X141687298Y-108204000D01*
X141697175Y-108227846D01*
X141835154Y-108365825D01*
X141928209Y-108404370D01*
X141915705Y-108423085D01*
X140329413Y-110009378D01*
X140305566Y-109999500D01*
X140110434Y-109999500D01*
X139930154Y-110074175D01*
X139792175Y-110212154D01*
X139717500Y-110392434D01*
X139717500Y-110587566D01*
X139792175Y-110767846D01*
X139930154Y-110905825D01*
X140110434Y-110980500D01*
X140305566Y-110980500D01*
X140485846Y-110905825D01*
X140623825Y-110767846D01*
X140698500Y-110587566D01*
X140698500Y-110392434D01*
X140688622Y-110368587D01*
X142218210Y-108839000D01*
X143070329Y-108839000D01*
X142967175Y-108942154D01*
X142892500Y-109122434D01*
X142892500Y-109317566D01*
X142967175Y-109497846D01*
X143105154Y-109635825D01*
X143285434Y-109710500D01*
X143480566Y-109710500D01*
X143660846Y-109635825D01*
X143798825Y-109497846D01*
X143808702Y-109474000D01*
X147087791Y-109474000D01*
X148209001Y-110595211D01*
X148209000Y-121814789D01*
X147666089Y-122357702D01*
X147644876Y-122371876D01*
X147606197Y-122429764D01*
X147588737Y-122455895D01*
X147569024Y-122555000D01*
X147574000Y-122580016D01*
X147574000Y-123377242D01*
X147550940Y-123261311D01*
X147317964Y-122912636D01*
X146969288Y-122679660D01*
X146838412Y-122653627D01*
X146842873Y-122631200D01*
X146821188Y-122522184D01*
X146775021Y-122453089D01*
X146759436Y-122429764D01*
X146736111Y-122414179D01*
X146126200Y-121804270D01*
X146126200Y-119571930D01*
X146462631Y-119235500D01*
X146655566Y-119235500D01*
X146835846Y-119160825D01*
X146973825Y-119022846D01*
X147048500Y-118842566D01*
X147048500Y-118647434D01*
X146973825Y-118467154D01*
X146835846Y-118329175D01*
X146655566Y-118254500D01*
X146460434Y-118254500D01*
X146280154Y-118329175D01*
X146142175Y-118467154D01*
X146067500Y-118647434D01*
X146067500Y-118840369D01*
X145668693Y-119239177D01*
X145645365Y-119254764D01*
X145583613Y-119347184D01*
X145561927Y-119456200D01*
X145567401Y-119483718D01*
X145567400Y-121640600D01*
X142140514Y-121640600D01*
X142113000Y-121635127D01*
X142085486Y-121640600D01*
X142003984Y-121656812D01*
X141911564Y-121718564D01*
X141895979Y-121741889D01*
X141299895Y-122337975D01*
X141276564Y-122353564D01*
X141214812Y-122445985D01*
X141212841Y-122455895D01*
X141193127Y-122555000D01*
X141198600Y-122582513D01*
X141198600Y-122653425D01*
X141066711Y-122679660D01*
X140718036Y-122912636D01*
X140485060Y-123261312D01*
X140423900Y-123568782D01*
X140423900Y-124081219D01*
X140485060Y-124388689D01*
X140718037Y-124737364D01*
X141066712Y-124970340D01*
X141478000Y-125052151D01*
X141889289Y-124970340D01*
X142237964Y-124737364D01*
X142470940Y-124388688D01*
X142532100Y-124081218D01*
X142532100Y-123568781D01*
X142470940Y-123261311D01*
X142237964Y-122912636D01*
X141889288Y-122679660D01*
X141771834Y-122656297D01*
X142228732Y-122199400D01*
X145731070Y-122199400D01*
X146200608Y-122668939D01*
X146146711Y-122679660D01*
X145798036Y-122912636D01*
X145565060Y-123261312D01*
X145503900Y-123568782D01*
X145503900Y-124081219D01*
X145565060Y-124388689D01*
X145798037Y-124737364D01*
X145953140Y-124841000D01*
X145240810Y-124841000D01*
X144921843Y-124522033D01*
X145010940Y-124388688D01*
X145072100Y-124081218D01*
X145072100Y-123568781D01*
X145010940Y-123261311D01*
X144777964Y-122912636D01*
X144429288Y-122679660D01*
X144018000Y-122597849D01*
X143606711Y-122679660D01*
X143258036Y-122912636D01*
X143025060Y-123261312D01*
X142963900Y-123568782D01*
X142963900Y-124081219D01*
X143025060Y-124388689D01*
X143258037Y-124737364D01*
X143606712Y-124970340D01*
X144018000Y-125052151D01*
X144429289Y-124970340D01*
X144562633Y-124881243D01*
X144938304Y-125256914D01*
X144952476Y-125278124D01*
X145036494Y-125334263D01*
X145110583Y-125349000D01*
X145110584Y-125349000D01*
X145135599Y-125353976D01*
X145160614Y-125349000D01*
X147167984Y-125349000D01*
X147193000Y-125353976D01*
X147218016Y-125349000D01*
X147218017Y-125349000D01*
X147292106Y-125334263D01*
X147376124Y-125278124D01*
X147390298Y-125256911D01*
X147989917Y-124657294D01*
X148011124Y-124643124D01*
X148067263Y-124559106D01*
X148082000Y-124485017D01*
X148086976Y-124460000D01*
X148082000Y-124434983D01*
X148082000Y-124272759D01*
X148105060Y-124388689D01*
X148338037Y-124737364D01*
X148686712Y-124970340D01*
X149098000Y-125052151D01*
X149509289Y-124970340D01*
X149621100Y-124895631D01*
X149998577Y-125273108D01*
X150014164Y-125296436D01*
X150106584Y-125358188D01*
X150188086Y-125374400D01*
X150215599Y-125379873D01*
X150243112Y-125374400D01*
X172565487Y-125374400D01*
X172593000Y-125379873D01*
X172620513Y-125374400D01*
X172620514Y-125374400D01*
X172702016Y-125358188D01*
X172794436Y-125296436D01*
X172810025Y-125273105D01*
X173580916Y-124502215D01*
X173738037Y-124737364D01*
X174086712Y-124970340D01*
X174498000Y-125052151D01*
X174909289Y-124970340D01*
X175257964Y-124737364D01*
X175490940Y-124388688D01*
X175552100Y-124081218D01*
X175552100Y-123568781D01*
X175490940Y-123261311D01*
X175257964Y-122912636D01*
X174909288Y-122679660D01*
X174498000Y-122597849D01*
X174086711Y-122679660D01*
X173738036Y-122912636D01*
X173697890Y-122972719D01*
X173697890Y-118302917D01*
X174815500Y-118302917D01*
X174815500Y-119187083D01*
X175153856Y-120003945D01*
X175779055Y-120629144D01*
X176595917Y-120967500D01*
X177480083Y-120967500D01*
X178296945Y-120629144D01*
X178922144Y-120003945D01*
X179260500Y-119187083D01*
X179260500Y-118302917D01*
X178922144Y-117486055D01*
X178296945Y-116860856D01*
X177480083Y-116522500D01*
X176595917Y-116522500D01*
X175779055Y-116860856D01*
X175153856Y-117486055D01*
X174815500Y-118302917D01*
X173697890Y-118302917D01*
X173697890Y-117400240D01*
X179121108Y-111977023D01*
X179144436Y-111961436D01*
X179206188Y-111869016D01*
X179222400Y-111787514D01*
X179222400Y-111787513D01*
X179227873Y-111760000D01*
X179222400Y-111732487D01*
X179222400Y-97817514D01*
X179227873Y-97790000D01*
X179206188Y-97680984D01*
X179160021Y-97611889D01*
X179144436Y-97588564D01*
X179121111Y-97572979D01*
X177946425Y-96398295D01*
X178018129Y-96290983D01*
X178098884Y-95885000D01*
X178018129Y-95479017D01*
X177788158Y-95134842D01*
X177443983Y-94904871D01*
X177140477Y-94844500D01*
X176935523Y-94844500D01*
X176632017Y-94904871D01*
X176524705Y-94976574D01*
X171911048Y-90362917D01*
X174815500Y-90362917D01*
X174815500Y-91247083D01*
X175153856Y-92063945D01*
X175779055Y-92689144D01*
X176595917Y-93027500D01*
X177480083Y-93027500D01*
X178296945Y-92689144D01*
X178922144Y-92063945D01*
X179260500Y-91247083D01*
X179260500Y-90362917D01*
X178922144Y-89546055D01*
X178296945Y-88920856D01*
X177480083Y-88582500D01*
X176595917Y-88582500D01*
X175779055Y-88920856D01*
X175153856Y-89546055D01*
X174815500Y-90362917D01*
X171911048Y-90362917D01*
X167730025Y-86181895D01*
X167714436Y-86158564D01*
X167622016Y-86096812D01*
X167540514Y-86080600D01*
X167540513Y-86080600D01*
X167513000Y-86075127D01*
X167485487Y-86080600D01*
X166657271Y-86080600D01*
X166520846Y-85944175D01*
X166340566Y-85869500D01*
X166145434Y-85869500D01*
X165965154Y-85944175D01*
X165827175Y-86082154D01*
X165752500Y-86262434D01*
X165752500Y-86457566D01*
X165827175Y-86637846D01*
X165965154Y-86775825D01*
X166145434Y-86850500D01*
X166340566Y-86850500D01*
X166520846Y-86775825D01*
X166657271Y-86639400D01*
X167397270Y-86639400D01*
X176129574Y-95371705D01*
X176057871Y-95479017D01*
X175977116Y-95885000D01*
X176057871Y-96290983D01*
X176287842Y-96635158D01*
X176632017Y-96865129D01*
X176935523Y-96925500D01*
X177140477Y-96925500D01*
X177443983Y-96865129D01*
X177551295Y-96793425D01*
X178663601Y-97905733D01*
X178663600Y-111644269D01*
X178563806Y-111744063D01*
X178562000Y-111734983D01*
X178562000Y-100355017D01*
X178566976Y-100330000D01*
X178547263Y-100230894D01*
X178505295Y-100168084D01*
X178505294Y-100168083D01*
X178491124Y-100146876D01*
X178469917Y-100132706D01*
X177870298Y-99533089D01*
X177856124Y-99511876D01*
X177772106Y-99455737D01*
X177698017Y-99441000D01*
X177698016Y-99441000D01*
X177673000Y-99436024D01*
X177647984Y-99441000D01*
X177263647Y-99441000D01*
X177443983Y-99405129D01*
X177788158Y-99175158D01*
X178018129Y-98830983D01*
X178098884Y-98425000D01*
X178018129Y-98019017D01*
X177788158Y-97674842D01*
X177443983Y-97444871D01*
X177140477Y-97384500D01*
X176935523Y-97384500D01*
X176632017Y-97444871D01*
X176287842Y-97674842D01*
X176057871Y-98019017D01*
X175977116Y-98425000D01*
X176057871Y-98830983D01*
X176287842Y-99175158D01*
X176632017Y-99405129D01*
X176812353Y-99441000D01*
X175793014Y-99441000D01*
X175767999Y-99436024D01*
X175742984Y-99441000D01*
X175742983Y-99441000D01*
X175668894Y-99455737D01*
X175584876Y-99511876D01*
X175570704Y-99533086D01*
X175032828Y-100070963D01*
X174903983Y-99984871D01*
X174600477Y-99924500D01*
X174395523Y-99924500D01*
X174092017Y-99984871D01*
X173747842Y-100214842D01*
X173517871Y-100559017D01*
X173437116Y-100965000D01*
X173517871Y-101370983D01*
X173747842Y-101715158D01*
X174092017Y-101945129D01*
X174395523Y-102005500D01*
X174600477Y-102005500D01*
X174903983Y-101945129D01*
X175248158Y-101715158D01*
X175478129Y-101370983D01*
X175521526Y-101152809D01*
X176014590Y-101152809D01*
X176020619Y-101183130D01*
X176181537Y-101555861D01*
X176472844Y-101838639D01*
X176850191Y-101988413D01*
X177012600Y-101957568D01*
X177012600Y-100990400D01*
X176045450Y-100990400D01*
X176014590Y-101152809D01*
X175521526Y-101152809D01*
X175558884Y-100965000D01*
X175478129Y-100559017D01*
X175392037Y-100430172D01*
X175873210Y-99949000D01*
X176831514Y-99949000D01*
X176472844Y-100091361D01*
X176181537Y-100374139D01*
X176020619Y-100746870D01*
X176014590Y-100777191D01*
X176045450Y-100939600D01*
X177012600Y-100939600D01*
X177012600Y-100919600D01*
X177063400Y-100919600D01*
X177063400Y-100939600D01*
X177083400Y-100939600D01*
X177083400Y-100990400D01*
X177063400Y-100990400D01*
X177063400Y-101957568D01*
X177225809Y-101988413D01*
X177603156Y-101838639D01*
X177894463Y-101555861D01*
X178054000Y-101186329D01*
X178054001Y-111654788D01*
X172431089Y-117277702D01*
X172409876Y-117291876D01*
X172353738Y-117375894D01*
X172353737Y-117375895D01*
X172334024Y-117475000D01*
X172339000Y-117500016D01*
X172339001Y-121179788D01*
X171852791Y-121666000D01*
X148717000Y-121666000D01*
X148717000Y-116394937D01*
X164571153Y-116394937D01*
X164577390Y-116426307D01*
X164740531Y-116803858D01*
X165035736Y-117090239D01*
X165418063Y-117241850D01*
X165582600Y-117211172D01*
X165582600Y-116230400D01*
X165633400Y-116230400D01*
X165633400Y-117211172D01*
X165797937Y-117241850D01*
X166180264Y-117090239D01*
X166475469Y-116803858D01*
X166638610Y-116426307D01*
X166644847Y-116394937D01*
X166614154Y-116230400D01*
X165633400Y-116230400D01*
X165582600Y-116230400D01*
X164601846Y-116230400D01*
X164571153Y-116394937D01*
X148717000Y-116394937D01*
X148717000Y-116015063D01*
X164571153Y-116015063D01*
X164601846Y-116179600D01*
X165582600Y-116179600D01*
X165582600Y-115198828D01*
X165633400Y-115198828D01*
X165633400Y-116179600D01*
X166614154Y-116179600D01*
X166644847Y-116015063D01*
X166638610Y-115983693D01*
X166475469Y-115606142D01*
X166202570Y-115341400D01*
X167090168Y-115341400D01*
X167090168Y-117068600D01*
X167104953Y-117142929D01*
X167147057Y-117205943D01*
X167210071Y-117248047D01*
X167284400Y-117262832D01*
X169011600Y-117262832D01*
X169085929Y-117248047D01*
X169148943Y-117205943D01*
X169191047Y-117142929D01*
X169205832Y-117068600D01*
X169205832Y-115341400D01*
X169191047Y-115267071D01*
X169148943Y-115204057D01*
X169085929Y-115161953D01*
X169011600Y-115147168D01*
X167284400Y-115147168D01*
X167210071Y-115161953D01*
X167147057Y-115204057D01*
X167104953Y-115267071D01*
X167090168Y-115341400D01*
X166202570Y-115341400D01*
X166180264Y-115319761D01*
X165797937Y-115168150D01*
X165633400Y-115198828D01*
X165582600Y-115198828D01*
X165418063Y-115168150D01*
X165035736Y-115319761D01*
X164740531Y-115606142D01*
X164577390Y-115983693D01*
X164571153Y-116015063D01*
X148717000Y-116015063D01*
X148717000Y-110515014D01*
X148721976Y-110489999D01*
X148702569Y-110392434D01*
X148702263Y-110390894D01*
X148646124Y-110306876D01*
X148624914Y-110292704D01*
X147390298Y-109058089D01*
X147376124Y-109036876D01*
X147292106Y-108980737D01*
X147218017Y-108966000D01*
X147218016Y-108966000D01*
X147193000Y-108961024D01*
X147167984Y-108966000D01*
X143808702Y-108966000D01*
X143798825Y-108942154D01*
X143695671Y-108839000D01*
X152973926Y-108839000D01*
X152998942Y-108843976D01*
X153023958Y-108839000D01*
X153023959Y-108839000D01*
X153098048Y-108824263D01*
X153182066Y-108768124D01*
X153196240Y-108746911D01*
X154090717Y-107852434D01*
X156227500Y-107852434D01*
X156227500Y-108047566D01*
X156302175Y-108227846D01*
X156440154Y-108365825D01*
X156620434Y-108440500D01*
X156815566Y-108440500D01*
X156995846Y-108365825D01*
X157132271Y-108229400D01*
X157960487Y-108229400D01*
X157988000Y-108234873D01*
X158015513Y-108229400D01*
X158015514Y-108229400D01*
X158097016Y-108213188D01*
X158183354Y-108155500D01*
X158370566Y-108155500D01*
X158550846Y-108080825D01*
X158688825Y-107942846D01*
X158763500Y-107762566D01*
X158763500Y-107567434D01*
X158688825Y-107387154D01*
X158550846Y-107249175D01*
X158370566Y-107174500D01*
X158175434Y-107174500D01*
X157995154Y-107249175D01*
X157857175Y-107387154D01*
X157782500Y-107567434D01*
X157782500Y-107670600D01*
X157132271Y-107670600D01*
X156995846Y-107534175D01*
X156815566Y-107459500D01*
X156620434Y-107459500D01*
X156440154Y-107534175D01*
X156302175Y-107672154D01*
X156227500Y-107852434D01*
X154090717Y-107852434D01*
X154434914Y-107508238D01*
X154456124Y-107494066D01*
X154512263Y-107410048D01*
X154527000Y-107335959D01*
X154527000Y-107335958D01*
X154531976Y-107310943D01*
X154527000Y-107285928D01*
X154527000Y-106582434D01*
X157497500Y-106582434D01*
X157497500Y-106777566D01*
X157572175Y-106957846D01*
X157710154Y-107095825D01*
X157890434Y-107170500D01*
X158085566Y-107170500D01*
X158265846Y-107095825D01*
X158403825Y-106957846D01*
X158413702Y-106934000D01*
X162755329Y-106934000D01*
X162652175Y-107037154D01*
X162577500Y-107217434D01*
X162577500Y-107412566D01*
X162652175Y-107592846D01*
X162790154Y-107730825D01*
X162814000Y-107740702D01*
X162814001Y-111734979D01*
X162809024Y-111760000D01*
X162828737Y-111859105D01*
X162835360Y-111869017D01*
X162884877Y-111943124D01*
X162906087Y-111957296D01*
X163505706Y-112556917D01*
X163519876Y-112578124D01*
X163541083Y-112592294D01*
X163541084Y-112592295D01*
X163603894Y-112634263D01*
X163703000Y-112653976D01*
X163728017Y-112649000D01*
X165312641Y-112649000D01*
X165196711Y-112672060D01*
X164848036Y-112905036D01*
X164615060Y-113253711D01*
X164533249Y-113665000D01*
X164615060Y-114076289D01*
X164848036Y-114424964D01*
X165196711Y-114657940D01*
X165504181Y-114719100D01*
X165711819Y-114719100D01*
X166019289Y-114657940D01*
X166367964Y-114424964D01*
X166600940Y-114076289D01*
X166682751Y-113665000D01*
X166600940Y-113253711D01*
X166367964Y-112905036D01*
X166019289Y-112672060D01*
X165903359Y-112649000D01*
X166772791Y-112649000D01*
X167244157Y-113120367D01*
X167155060Y-113253711D01*
X167073249Y-113665000D01*
X167155060Y-114076289D01*
X167388036Y-114424964D01*
X167736711Y-114657940D01*
X168044181Y-114719100D01*
X168251819Y-114719100D01*
X168559289Y-114657940D01*
X168907964Y-114424964D01*
X169140940Y-114076289D01*
X169222751Y-113665000D01*
X169140940Y-113253711D01*
X168907964Y-112905036D01*
X168559289Y-112672060D01*
X168251819Y-112610900D01*
X168044181Y-112610900D01*
X167736711Y-112672060D01*
X167603367Y-112761157D01*
X167075298Y-112233089D01*
X167061124Y-112211876D01*
X166977106Y-112155737D01*
X166903017Y-112141000D01*
X166903016Y-112141000D01*
X166878000Y-112136024D01*
X166852984Y-112141000D01*
X165903359Y-112141000D01*
X166019289Y-112117940D01*
X166367964Y-111884964D01*
X166600940Y-111536289D01*
X166682751Y-111125000D01*
X166600940Y-110713711D01*
X166367964Y-110365036D01*
X166019289Y-110132060D01*
X165711819Y-110070900D01*
X165504181Y-110070900D01*
X165196711Y-110132060D01*
X164848036Y-110365036D01*
X164615060Y-110713711D01*
X164533249Y-111125000D01*
X164615060Y-111536289D01*
X164848036Y-111884964D01*
X165196711Y-112117940D01*
X165312641Y-112141000D01*
X163808211Y-112141000D01*
X163322000Y-111654791D01*
X163322000Y-107740702D01*
X163345846Y-107730825D01*
X163483825Y-107592846D01*
X163550825Y-107431094D01*
X163596648Y-107476917D01*
X163610818Y-107498124D01*
X163632025Y-107512294D01*
X163632026Y-107512295D01*
X163659871Y-107530900D01*
X163694836Y-107554263D01*
X163730496Y-107561356D01*
X163793942Y-107573976D01*
X163818959Y-107569000D01*
X165312641Y-107569000D01*
X165196711Y-107592060D01*
X164848036Y-107825036D01*
X164615060Y-108173711D01*
X164533249Y-108585000D01*
X164615060Y-108996289D01*
X164848036Y-109344964D01*
X165196711Y-109577940D01*
X165504181Y-109639100D01*
X165711819Y-109639100D01*
X166019289Y-109577940D01*
X166152633Y-109488843D01*
X166680704Y-110016914D01*
X166694876Y-110038124D01*
X166778894Y-110094263D01*
X166852983Y-110109000D01*
X166852984Y-110109000D01*
X166877999Y-110113976D01*
X166903014Y-110109000D01*
X167852641Y-110109000D01*
X167736711Y-110132060D01*
X167388036Y-110365036D01*
X167155060Y-110713711D01*
X167073249Y-111125000D01*
X167155060Y-111536289D01*
X167388036Y-111884964D01*
X167736711Y-112117940D01*
X168044181Y-112179100D01*
X168251819Y-112179100D01*
X168559289Y-112117940D01*
X168907964Y-111884964D01*
X169140940Y-111536289D01*
X169222751Y-111125000D01*
X169140940Y-110713711D01*
X168907964Y-110365036D01*
X168559289Y-110132060D01*
X168443359Y-110109000D01*
X174707298Y-110109000D01*
X174717175Y-110132846D01*
X174855154Y-110270825D01*
X175035434Y-110345500D01*
X175230566Y-110345500D01*
X175410846Y-110270825D01*
X175548825Y-110132846D01*
X175623500Y-109952566D01*
X175623500Y-109757434D01*
X175548825Y-109577154D01*
X175410846Y-109439175D01*
X175230566Y-109364500D01*
X175035434Y-109364500D01*
X174855154Y-109439175D01*
X174717175Y-109577154D01*
X174707298Y-109601000D01*
X168443359Y-109601000D01*
X168559289Y-109577940D01*
X168907964Y-109344964D01*
X169140940Y-108996289D01*
X169222751Y-108585000D01*
X169140940Y-108173711D01*
X168907964Y-107825036D01*
X168559289Y-107592060D01*
X168251819Y-107530900D01*
X168044181Y-107530900D01*
X167736711Y-107592060D01*
X167388036Y-107825036D01*
X167155060Y-108173711D01*
X167073249Y-108585000D01*
X167155060Y-108996289D01*
X167388036Y-109344964D01*
X167736711Y-109577940D01*
X167852641Y-109601000D01*
X166983210Y-109601000D01*
X166511843Y-109129633D01*
X166600940Y-108996289D01*
X166682751Y-108585000D01*
X166600940Y-108173711D01*
X166367964Y-107825036D01*
X166019289Y-107592060D01*
X165903359Y-107569000D01*
X166852984Y-107569000D01*
X166878000Y-107573976D01*
X166903016Y-107569000D01*
X166903017Y-107569000D01*
X166977106Y-107554263D01*
X167061124Y-107498124D01*
X167075298Y-107476911D01*
X167603367Y-106948843D01*
X167736711Y-107037940D01*
X168044181Y-107099100D01*
X168251819Y-107099100D01*
X168559289Y-107037940D01*
X168907964Y-106804964D01*
X169140940Y-106456289D01*
X169222751Y-106045000D01*
X169140940Y-105633711D01*
X168907964Y-105285036D01*
X168559289Y-105052060D01*
X168251819Y-104990900D01*
X168044181Y-104990900D01*
X167736711Y-105052060D01*
X167388036Y-105285036D01*
X167155060Y-105633711D01*
X167073249Y-106045000D01*
X167155060Y-106456289D01*
X167244157Y-106589633D01*
X166772791Y-107061000D01*
X165850516Y-107061000D01*
X166180264Y-106930239D01*
X166475469Y-106643858D01*
X166638610Y-106266307D01*
X166644847Y-106234937D01*
X166614154Y-106070400D01*
X165633400Y-106070400D01*
X165633400Y-106090400D01*
X165582600Y-106090400D01*
X165582600Y-106070400D01*
X164601846Y-106070400D01*
X164571153Y-106234937D01*
X164577390Y-106266307D01*
X164740531Y-106643858D01*
X165035736Y-106930239D01*
X165365484Y-107061000D01*
X163899153Y-107061000D01*
X163356240Y-106518089D01*
X163342066Y-106496876D01*
X163258048Y-106440737D01*
X163183959Y-106426000D01*
X163183958Y-106426000D01*
X163158942Y-106421024D01*
X163133926Y-106426000D01*
X158413702Y-106426000D01*
X158403825Y-106402154D01*
X158265846Y-106264175D01*
X158085566Y-106189500D01*
X157890434Y-106189500D01*
X157710154Y-106264175D01*
X157572175Y-106402154D01*
X157497500Y-106582434D01*
X154527000Y-106582434D01*
X154527000Y-105855063D01*
X164571153Y-105855063D01*
X164601846Y-106019600D01*
X165582600Y-106019600D01*
X165582600Y-105038828D01*
X165633400Y-105038828D01*
X165633400Y-106019600D01*
X166614154Y-106019600D01*
X166644847Y-105855063D01*
X166638610Y-105823693D01*
X166475469Y-105446142D01*
X166180264Y-105159761D01*
X165797937Y-105008150D01*
X165633400Y-105038828D01*
X165582600Y-105038828D01*
X165418063Y-105008150D01*
X165035736Y-105159761D01*
X164740531Y-105446142D01*
X164577390Y-105823693D01*
X164571153Y-105855063D01*
X154527000Y-105855063D01*
X154527000Y-100232434D01*
X158132500Y-100232434D01*
X158132500Y-100427566D01*
X158207175Y-100607846D01*
X158345154Y-100745825D01*
X158525434Y-100820500D01*
X158720566Y-100820500D01*
X158900846Y-100745825D01*
X159038825Y-100607846D01*
X159113500Y-100427566D01*
X159113500Y-100234630D01*
X160923131Y-98425000D01*
X173437116Y-98425000D01*
X173517871Y-98830983D01*
X173747842Y-99175158D01*
X174092017Y-99405129D01*
X174395523Y-99465500D01*
X174600477Y-99465500D01*
X174903983Y-99405129D01*
X175248158Y-99175158D01*
X175478129Y-98830983D01*
X175558884Y-98425000D01*
X175478129Y-98019017D01*
X175248158Y-97674842D01*
X174903983Y-97444871D01*
X174600477Y-97384500D01*
X174395523Y-97384500D01*
X174092017Y-97444871D01*
X173747842Y-97674842D01*
X173517871Y-98019017D01*
X173437116Y-98425000D01*
X160923131Y-98425000D01*
X161521111Y-97827021D01*
X161544436Y-97811436D01*
X161606188Y-97719016D01*
X161622400Y-97637514D01*
X161627873Y-97610000D01*
X161622400Y-97582486D01*
X161622400Y-96514271D01*
X161758825Y-96377846D01*
X161833500Y-96197566D01*
X161833500Y-96002434D01*
X161758825Y-95822154D01*
X161620846Y-95684175D01*
X161440566Y-95609500D01*
X161245434Y-95609500D01*
X161065154Y-95684175D01*
X160927175Y-95822154D01*
X160852500Y-96002434D01*
X160852500Y-96197566D01*
X160927175Y-96377846D01*
X161063600Y-96514271D01*
X161063601Y-97494267D01*
X158718370Y-99839500D01*
X158525434Y-99839500D01*
X158345154Y-99914175D01*
X158207175Y-100052154D01*
X158132500Y-100232434D01*
X154527000Y-100232434D01*
X154527000Y-97057434D01*
X158132500Y-97057434D01*
X158132500Y-97252566D01*
X158207175Y-97432846D01*
X158345154Y-97570825D01*
X158525434Y-97645500D01*
X158720566Y-97645500D01*
X158900846Y-97570825D01*
X159038825Y-97432846D01*
X159113500Y-97252566D01*
X159113500Y-97057434D01*
X159038825Y-96877154D01*
X158902400Y-96740729D01*
X158902400Y-95035000D01*
X173453768Y-95035000D01*
X173453768Y-96735000D01*
X173468553Y-96809329D01*
X173510657Y-96872343D01*
X173573671Y-96914447D01*
X173648000Y-96929232D01*
X175348000Y-96929232D01*
X175422329Y-96914447D01*
X175485343Y-96872343D01*
X175527447Y-96809329D01*
X175542232Y-96735000D01*
X175542232Y-95035000D01*
X175527447Y-94960671D01*
X175485343Y-94897657D01*
X175422329Y-94855553D01*
X175348000Y-94840768D01*
X173648000Y-94840768D01*
X173573671Y-94855553D01*
X173510657Y-94897657D01*
X173468553Y-94960671D01*
X173453768Y-95035000D01*
X158902400Y-95035000D01*
X158902400Y-92825730D01*
X159162631Y-92565500D01*
X159355566Y-92565500D01*
X159535846Y-92490825D01*
X159673825Y-92352846D01*
X159748500Y-92172566D01*
X159748500Y-91977434D01*
X159673825Y-91797154D01*
X159535846Y-91659175D01*
X159355566Y-91584500D01*
X159160434Y-91584500D01*
X158980154Y-91659175D01*
X158842175Y-91797154D01*
X158767500Y-91977434D01*
X158767500Y-92170369D01*
X158444895Y-92492975D01*
X158421564Y-92508564D01*
X158359812Y-92600985D01*
X158357841Y-92610895D01*
X158338127Y-92710000D01*
X158343600Y-92737513D01*
X158343601Y-96740728D01*
X158207175Y-96877154D01*
X158132500Y-97057434D01*
X154527000Y-97057434D01*
X154527000Y-93135702D01*
X154550846Y-93125825D01*
X154688825Y-92987846D01*
X154763500Y-92807566D01*
X154763500Y-92612434D01*
X154688825Y-92432154D01*
X154550846Y-92294175D01*
X154370566Y-92219500D01*
X154175434Y-92219500D01*
X153995154Y-92294175D01*
X153857175Y-92432154D01*
X153782500Y-92612434D01*
X153782500Y-92807566D01*
X153857175Y-92987846D01*
X153995154Y-93125825D01*
X154019000Y-93135702D01*
X154019001Y-105277430D01*
X153958825Y-105132154D01*
X153820846Y-104994175D01*
X153797000Y-104984298D01*
X153797000Y-101625016D01*
X153801976Y-101600000D01*
X153782263Y-101500894D01*
X153775641Y-101490984D01*
X153726124Y-101416876D01*
X153704914Y-101402704D01*
X145485298Y-93183089D01*
X145471124Y-93161876D01*
X145387106Y-93105737D01*
X145313017Y-93091000D01*
X145313016Y-93091000D01*
X145288000Y-93086024D01*
X145262984Y-93091000D01*
X139678211Y-93091000D01*
X139192000Y-92604791D01*
X139192000Y-91865702D01*
X139215846Y-91855825D01*
X139353825Y-91717846D01*
X139428500Y-91537566D01*
X139428500Y-91342434D01*
X139353825Y-91162154D01*
X139215846Y-91024175D01*
X139035566Y-90949500D01*
X138840434Y-90949500D01*
X138660154Y-91024175D01*
X138522175Y-91162154D01*
X138447500Y-91342434D01*
X138447500Y-91537566D01*
X138522175Y-91717846D01*
X138660154Y-91855825D01*
X138684001Y-91865703D01*
X138684000Y-92684983D01*
X138679024Y-92710000D01*
X138684000Y-92735016D01*
X138698737Y-92809105D01*
X138754876Y-92893124D01*
X138776089Y-92907298D01*
X139375706Y-93506917D01*
X139389876Y-93528124D01*
X139411083Y-93542294D01*
X139411084Y-93542295D01*
X139473894Y-93584263D01*
X139573000Y-93603976D01*
X139598017Y-93599000D01*
X145182791Y-93599000D01*
X145308990Y-93725199D01*
X145288000Y-93721024D01*
X145262984Y-93726000D01*
X138093702Y-93726000D01*
X138083825Y-93702154D01*
X137945846Y-93564175D01*
X137765566Y-93489500D01*
X137570434Y-93489500D01*
X137390154Y-93564175D01*
X137252175Y-93702154D01*
X137177500Y-93882434D01*
X137177500Y-94077566D01*
X137252175Y-94257846D01*
X137355329Y-94361000D01*
X137138211Y-94361000D01*
X136878622Y-94101412D01*
X136888500Y-94077566D01*
X136888500Y-93882434D01*
X136813825Y-93702154D01*
X136675846Y-93564175D01*
X136495566Y-93489500D01*
X136300434Y-93489500D01*
X136120154Y-93564175D01*
X135982175Y-93702154D01*
X135907500Y-93882434D01*
X135907500Y-94077566D01*
X135982175Y-94257846D01*
X136120154Y-94395825D01*
X136300434Y-94470500D01*
X136495566Y-94470500D01*
X136519412Y-94460622D01*
X136835705Y-94776916D01*
X136849876Y-94798124D01*
X136871083Y-94812294D01*
X136871084Y-94812295D01*
X136933894Y-94854263D01*
X137033000Y-94873976D01*
X137058017Y-94869000D01*
X145182791Y-94869000D01*
X145308990Y-94995199D01*
X145288000Y-94991024D01*
X145262984Y-94996000D01*
X135868211Y-94996000D01*
X135382000Y-94509791D01*
X135382000Y-94405702D01*
X135405846Y-94395825D01*
X135543825Y-94257846D01*
X135618500Y-94077566D01*
X135618500Y-93882434D01*
X135543825Y-93702154D01*
X135405846Y-93564175D01*
X135225566Y-93489500D01*
X135030434Y-93489500D01*
X134850154Y-93564175D01*
X134712175Y-93702154D01*
X134637500Y-93882434D01*
X134637500Y-94077566D01*
X134712175Y-94257846D01*
X134850154Y-94395825D01*
X134874000Y-94405703D01*
X134874000Y-94578119D01*
X134367958Y-94072077D01*
X134377836Y-94048230D01*
X134377836Y-93853098D01*
X134303161Y-93672818D01*
X134165182Y-93534839D01*
X133984902Y-93460164D01*
X133789770Y-93460164D01*
X133609490Y-93534839D01*
X133471511Y-93672818D01*
X133413962Y-93811753D01*
X132842000Y-93239791D01*
X132842000Y-91865702D01*
X132865846Y-91855825D01*
X133003825Y-91717846D01*
X133078500Y-91537566D01*
X133078500Y-91342434D01*
X133003825Y-91162154D01*
X132865846Y-91024175D01*
X132685566Y-90949500D01*
X132490434Y-90949500D01*
X132310154Y-91024175D01*
X132172175Y-91162154D01*
X132097500Y-91342434D01*
X132097500Y-91537566D01*
X132172175Y-91717846D01*
X132310154Y-91855825D01*
X132334001Y-91865703D01*
X132334000Y-93319984D01*
X132329024Y-93345000D01*
X132334000Y-93370016D01*
X132348737Y-93444105D01*
X132404876Y-93528124D01*
X132426089Y-93542298D01*
X132608990Y-93725199D01*
X132588000Y-93721024D01*
X132562984Y-93726000D01*
X131743702Y-93726000D01*
X131733825Y-93702154D01*
X131595846Y-93564175D01*
X131415566Y-93489500D01*
X131220434Y-93489500D01*
X131040154Y-93564175D01*
X130902175Y-93702154D01*
X130827500Y-93882434D01*
X130827500Y-94077566D01*
X130902175Y-94257846D01*
X131005329Y-94361000D01*
X130788211Y-94361000D01*
X130528622Y-94101412D01*
X130538500Y-94077566D01*
X130538500Y-93882434D01*
X130463825Y-93702154D01*
X130325846Y-93564175D01*
X130145566Y-93489500D01*
X129950434Y-93489500D01*
X129770154Y-93564175D01*
X129632175Y-93702154D01*
X129557500Y-93882434D01*
X129557500Y-94077566D01*
X129632175Y-94257846D01*
X129770154Y-94395825D01*
X129950434Y-94470500D01*
X130145566Y-94470500D01*
X130169412Y-94460622D01*
X130485705Y-94776916D01*
X130499876Y-94798124D01*
X130521083Y-94812294D01*
X130521084Y-94812295D01*
X130583894Y-94854263D01*
X130683000Y-94873976D01*
X130708017Y-94869000D01*
X132482791Y-94869000D01*
X132608990Y-94995199D01*
X132588000Y-94991024D01*
X132562984Y-94996000D01*
X129518211Y-94996000D01*
X129032000Y-94509791D01*
X129032000Y-94405702D01*
X129055846Y-94395825D01*
X129193825Y-94257846D01*
X129268500Y-94077566D01*
X129268500Y-93882434D01*
X129193825Y-93702154D01*
X129055846Y-93564175D01*
X128875566Y-93489500D01*
X128680434Y-93489500D01*
X128500154Y-93564175D01*
X128362175Y-93702154D01*
X128287500Y-93882434D01*
X128287500Y-94077566D01*
X128362175Y-94257846D01*
X128500154Y-94395825D01*
X128524000Y-94405703D01*
X128524000Y-94589983D01*
X128519024Y-94615000D01*
X128524000Y-94640016D01*
X128538737Y-94714105D01*
X128594876Y-94798124D01*
X128616089Y-94812298D01*
X129215706Y-95411917D01*
X129229876Y-95433124D01*
X129251083Y-95447294D01*
X129251084Y-95447295D01*
X129313894Y-95489263D01*
X129413000Y-95508976D01*
X129438017Y-95504000D01*
X132482791Y-95504000D01*
X132608990Y-95630199D01*
X132588000Y-95626024D01*
X132562984Y-95631000D01*
X128248211Y-95631000D01*
X127762000Y-95144791D01*
X127762000Y-94405702D01*
X127785846Y-94395825D01*
X127923825Y-94257846D01*
X127998500Y-94077566D01*
X127998500Y-93882434D01*
X127923825Y-93702154D01*
X127785846Y-93564175D01*
X127605566Y-93489500D01*
X127410434Y-93489500D01*
X127230154Y-93564175D01*
X127092175Y-93702154D01*
X127017500Y-93882434D01*
X127017500Y-94077566D01*
X127092175Y-94257846D01*
X127230154Y-94395825D01*
X127254001Y-94405703D01*
X127254000Y-95224984D01*
X127249024Y-95250000D01*
X127254000Y-95275016D01*
X127268737Y-95349105D01*
X127324876Y-95433124D01*
X127346089Y-95447298D01*
X127945706Y-96046917D01*
X127959876Y-96068124D01*
X127981083Y-96082294D01*
X127981084Y-96082295D01*
X128043894Y-96124263D01*
X128143000Y-96143976D01*
X128168017Y-96139000D01*
X132482791Y-96139000D01*
X132608990Y-96265199D01*
X132588000Y-96261024D01*
X132562984Y-96266000D01*
X127613210Y-96266000D01*
X126492000Y-95144791D01*
X126492000Y-94405702D01*
X126515846Y-94395825D01*
X126653825Y-94257846D01*
X126728500Y-94077566D01*
X126728500Y-93882434D01*
X126653825Y-93702154D01*
X126515846Y-93564175D01*
X126335566Y-93489500D01*
X126140434Y-93489500D01*
X125960154Y-93564175D01*
X125822175Y-93702154D01*
X125747500Y-93882434D01*
X125747500Y-94077566D01*
X125822175Y-94257846D01*
X125960154Y-94395825D01*
X125984001Y-94405703D01*
X125984000Y-95224984D01*
X125979024Y-95250000D01*
X125984000Y-95275016D01*
X125998737Y-95349105D01*
X126054876Y-95433124D01*
X126076089Y-95447298D01*
X127310704Y-96681914D01*
X127324876Y-96703124D01*
X127408894Y-96759263D01*
X127482983Y-96774000D01*
X127482984Y-96774000D01*
X127507999Y-96778976D01*
X127533014Y-96774000D01*
X132482791Y-96774000D01*
X132608990Y-96900199D01*
X132588000Y-96896024D01*
X132562984Y-96901000D01*
X126978210Y-96901000D01*
X125222000Y-95144791D01*
X125222000Y-94405702D01*
X125245846Y-94395825D01*
X125383825Y-94257846D01*
X125458500Y-94077566D01*
X125458500Y-93882434D01*
X125383825Y-93702154D01*
X125245846Y-93564175D01*
X125065566Y-93489500D01*
X124870434Y-93489500D01*
X124690154Y-93564175D01*
X124612400Y-93641929D01*
X124612400Y-87532434D01*
X151782500Y-87532434D01*
X151782500Y-87727566D01*
X151857175Y-87907846D01*
X151995154Y-88045825D01*
X152175434Y-88120500D01*
X152368369Y-88120500D01*
X152628600Y-88380732D01*
X152628601Y-95470728D01*
X152492175Y-95607154D01*
X152417500Y-95787434D01*
X152417500Y-95982566D01*
X152492175Y-96162846D01*
X152630154Y-96300825D01*
X152810434Y-96375500D01*
X153005566Y-96375500D01*
X153185846Y-96300825D01*
X153323825Y-96162846D01*
X153398500Y-95982566D01*
X153398500Y-95787434D01*
X153323825Y-95607154D01*
X153187400Y-95470729D01*
X153187400Y-88292514D01*
X153192873Y-88265000D01*
X153171188Y-88155984D01*
X153125021Y-88086889D01*
X153109436Y-88063564D01*
X153086111Y-88047979D01*
X152763500Y-87725369D01*
X152763500Y-87532434D01*
X152688825Y-87352154D01*
X152550846Y-87214175D01*
X152370566Y-87139500D01*
X152175434Y-87139500D01*
X151995154Y-87214175D01*
X151857175Y-87352154D01*
X151782500Y-87532434D01*
X124612400Y-87532434D01*
X124612400Y-83935730D01*
X125146111Y-83402021D01*
X125169436Y-83386436D01*
X125231188Y-83294016D01*
X125247400Y-83212514D01*
X125247400Y-83212513D01*
X125252873Y-83185000D01*
X125247400Y-83157486D01*
X125247400Y-82964271D01*
X125383825Y-82827846D01*
X125458500Y-82647566D01*
X125458500Y-82452434D01*
X125383825Y-82272154D01*
X125247400Y-82135729D01*
X125247400Y-80125730D01*
X126353731Y-79019400D01*
X134465487Y-79019400D01*
X134493000Y-79024873D01*
X134520513Y-79019400D01*
X134520514Y-79019400D01*
X134602016Y-79003188D01*
X134694436Y-78941436D01*
X134710025Y-78918105D01*
X135052108Y-78576023D01*
X135075436Y-78560436D01*
X135137188Y-78468016D01*
X135153400Y-78386514D01*
X135158873Y-78359001D01*
X135153400Y-78331488D01*
X135153400Y-76736575D01*
X135285289Y-76710340D01*
X135633964Y-76477364D01*
X135866940Y-76128688D01*
X135928100Y-75821218D01*
X135928100Y-75590400D01*
X136359900Y-75590400D01*
X136359900Y-75742800D01*
X136449859Y-76144253D01*
X136686599Y-76480722D01*
X137034080Y-76700982D01*
X137224063Y-76754247D01*
X137388600Y-76723554D01*
X137388600Y-75590400D01*
X137439400Y-75590400D01*
X137439400Y-76723554D01*
X137603937Y-76754247D01*
X137793920Y-76700982D01*
X138141401Y-76480722D01*
X138378141Y-76144253D01*
X138468100Y-75742800D01*
X138468100Y-75590400D01*
X137439400Y-75590400D01*
X137388600Y-75590400D01*
X136359900Y-75590400D01*
X135928100Y-75590400D01*
X135928100Y-75387200D01*
X136359900Y-75387200D01*
X136359900Y-75539600D01*
X137388600Y-75539600D01*
X137388600Y-74406446D01*
X137439400Y-74406446D01*
X137439400Y-75539600D01*
X138468100Y-75539600D01*
X138468100Y-75387200D01*
X138450528Y-75308782D01*
X138899900Y-75308782D01*
X138899900Y-75821219D01*
X138961060Y-76128689D01*
X139194037Y-76477364D01*
X139542712Y-76710340D01*
X139954000Y-76792151D01*
X140365289Y-76710340D01*
X140713964Y-76477364D01*
X140946940Y-76128688D01*
X141008100Y-75821218D01*
X141008100Y-75308782D01*
X141439900Y-75308782D01*
X141439900Y-75821219D01*
X141501060Y-76128689D01*
X141734037Y-76477364D01*
X142082712Y-76710340D01*
X142494000Y-76792151D01*
X142905289Y-76710340D01*
X143253964Y-76477364D01*
X143486940Y-76128688D01*
X143548100Y-75821218D01*
X143548100Y-75308782D01*
X143979900Y-75308782D01*
X143979900Y-75821219D01*
X144041060Y-76128689D01*
X144274037Y-76477364D01*
X144622712Y-76710340D01*
X145034000Y-76792151D01*
X145445289Y-76710340D01*
X145793964Y-76477364D01*
X146026940Y-76128688D01*
X146088100Y-75821218D01*
X146088100Y-75308782D01*
X146519900Y-75308782D01*
X146519900Y-75821219D01*
X146581060Y-76128689D01*
X146814037Y-76477364D01*
X147162712Y-76710340D01*
X147574000Y-76792151D01*
X147985289Y-76710340D01*
X148333964Y-76477364D01*
X148566940Y-76128688D01*
X148628100Y-75821218D01*
X148628100Y-75308782D01*
X149059900Y-75308782D01*
X149059900Y-75821219D01*
X149121060Y-76128689D01*
X149354037Y-76477364D01*
X149702712Y-76710340D01*
X150114000Y-76792151D01*
X150525289Y-76710340D01*
X150873964Y-76477364D01*
X151106940Y-76128688D01*
X151168100Y-75821218D01*
X151168100Y-75308782D01*
X151599900Y-75308782D01*
X151599900Y-75821219D01*
X151661060Y-76128689D01*
X151894037Y-76477364D01*
X152242712Y-76710340D01*
X152654000Y-76792151D01*
X153065289Y-76710340D01*
X153413964Y-76477364D01*
X153646940Y-76128688D01*
X153708100Y-75821218D01*
X153708100Y-75308782D01*
X155663900Y-75308782D01*
X155663900Y-75821219D01*
X155725060Y-76128689D01*
X155958037Y-76477364D01*
X156306712Y-76710340D01*
X156718000Y-76792151D01*
X157129289Y-76710340D01*
X157477964Y-76477364D01*
X157710940Y-76128688D01*
X157772100Y-75821218D01*
X157772100Y-75308782D01*
X158203900Y-75308782D01*
X158203900Y-75821219D01*
X158265060Y-76128689D01*
X158498037Y-76477364D01*
X158846712Y-76710340D01*
X159258000Y-76792151D01*
X159669289Y-76710340D01*
X160017964Y-76477364D01*
X160250940Y-76128688D01*
X160312100Y-75821218D01*
X160312100Y-75308782D01*
X160743900Y-75308782D01*
X160743900Y-75821219D01*
X160805060Y-76128689D01*
X161038037Y-76477364D01*
X161386712Y-76710340D01*
X161798000Y-76792151D01*
X162209289Y-76710340D01*
X162557964Y-76477364D01*
X162790940Y-76128688D01*
X162852100Y-75821218D01*
X162852100Y-75308782D01*
X163283900Y-75308782D01*
X163283900Y-75821219D01*
X163345060Y-76128689D01*
X163578037Y-76477364D01*
X163926712Y-76710340D01*
X164338000Y-76792151D01*
X164749289Y-76710340D01*
X165097964Y-76477364D01*
X165330940Y-76128688D01*
X165392100Y-75821218D01*
X165392100Y-75308782D01*
X165823900Y-75308782D01*
X165823900Y-75821219D01*
X165885060Y-76128689D01*
X166118037Y-76477364D01*
X166466712Y-76710340D01*
X166878000Y-76792151D01*
X167289289Y-76710340D01*
X167637964Y-76477364D01*
X167870940Y-76128688D01*
X167932100Y-75821218D01*
X167932100Y-75308782D01*
X168363900Y-75308782D01*
X168363900Y-75821219D01*
X168425060Y-76128689D01*
X168658037Y-76477364D01*
X169006712Y-76710340D01*
X169418000Y-76792151D01*
X169829289Y-76710340D01*
X170177964Y-76477364D01*
X170410940Y-76128688D01*
X170472100Y-75821218D01*
X170472100Y-75308782D01*
X170903900Y-75308782D01*
X170903900Y-75821219D01*
X170965060Y-76128689D01*
X171198037Y-76477364D01*
X171546712Y-76710340D01*
X171958000Y-76792151D01*
X172369289Y-76710340D01*
X172717964Y-76477364D01*
X172950940Y-76128688D01*
X173012100Y-75821218D01*
X173012100Y-75308782D01*
X173443900Y-75308782D01*
X173443900Y-75821219D01*
X173505060Y-76128689D01*
X173738037Y-76477364D01*
X174086712Y-76710340D01*
X174498000Y-76792151D01*
X174909289Y-76710340D01*
X175257964Y-76477364D01*
X175490940Y-76128688D01*
X175552100Y-75821218D01*
X175552100Y-75308781D01*
X175490940Y-75001311D01*
X175257964Y-74652636D01*
X174909288Y-74419660D01*
X174498000Y-74337849D01*
X174086711Y-74419660D01*
X173738036Y-74652636D01*
X173505060Y-75001312D01*
X173443900Y-75308782D01*
X173012100Y-75308782D01*
X173012100Y-75308781D01*
X172950940Y-75001311D01*
X172717964Y-74652636D01*
X172369288Y-74419660D01*
X171958000Y-74337849D01*
X171546711Y-74419660D01*
X171198036Y-74652636D01*
X170965060Y-75001312D01*
X170903900Y-75308782D01*
X170472100Y-75308782D01*
X170472100Y-75308781D01*
X170410940Y-75001311D01*
X170177964Y-74652636D01*
X169829288Y-74419660D01*
X169418000Y-74337849D01*
X169006711Y-74419660D01*
X168658036Y-74652636D01*
X168425060Y-75001312D01*
X168363900Y-75308782D01*
X167932100Y-75308782D01*
X167932100Y-75308781D01*
X167870940Y-75001311D01*
X167637964Y-74652636D01*
X167289288Y-74419660D01*
X166878000Y-74337849D01*
X166466711Y-74419660D01*
X166118036Y-74652636D01*
X165885060Y-75001312D01*
X165823900Y-75308782D01*
X165392100Y-75308782D01*
X165392100Y-75308781D01*
X165330940Y-75001311D01*
X165097964Y-74652636D01*
X164749288Y-74419660D01*
X164338000Y-74337849D01*
X163926711Y-74419660D01*
X163578036Y-74652636D01*
X163345060Y-75001312D01*
X163283900Y-75308782D01*
X162852100Y-75308782D01*
X162852100Y-75308781D01*
X162790940Y-75001311D01*
X162557964Y-74652636D01*
X162209288Y-74419660D01*
X161798000Y-74337849D01*
X161386711Y-74419660D01*
X161038036Y-74652636D01*
X160805060Y-75001312D01*
X160743900Y-75308782D01*
X160312100Y-75308782D01*
X160312100Y-75308781D01*
X160250940Y-75001311D01*
X160017964Y-74652636D01*
X159669288Y-74419660D01*
X159258000Y-74337849D01*
X158846711Y-74419660D01*
X158498036Y-74652636D01*
X158265060Y-75001312D01*
X158203900Y-75308782D01*
X157772100Y-75308782D01*
X157772100Y-75308781D01*
X157710940Y-75001311D01*
X157477964Y-74652636D01*
X157129288Y-74419660D01*
X156718000Y-74337849D01*
X156306711Y-74419660D01*
X155958036Y-74652636D01*
X155725060Y-75001312D01*
X155663900Y-75308782D01*
X153708100Y-75308782D01*
X153708100Y-75308781D01*
X153646940Y-75001311D01*
X153413964Y-74652636D01*
X153065288Y-74419660D01*
X152654000Y-74337849D01*
X152242711Y-74419660D01*
X151894036Y-74652636D01*
X151661060Y-75001312D01*
X151599900Y-75308782D01*
X151168100Y-75308782D01*
X151168100Y-75308781D01*
X151106940Y-75001311D01*
X150873964Y-74652636D01*
X150525288Y-74419660D01*
X150114000Y-74337849D01*
X149702711Y-74419660D01*
X149354036Y-74652636D01*
X149121060Y-75001312D01*
X149059900Y-75308782D01*
X148628100Y-75308782D01*
X148628100Y-75308781D01*
X148566940Y-75001311D01*
X148333964Y-74652636D01*
X147985288Y-74419660D01*
X147574000Y-74337849D01*
X147162711Y-74419660D01*
X146814036Y-74652636D01*
X146581060Y-75001312D01*
X146519900Y-75308782D01*
X146088100Y-75308782D01*
X146088100Y-75308781D01*
X146026940Y-75001311D01*
X145793964Y-74652636D01*
X145445288Y-74419660D01*
X145034000Y-74337849D01*
X144622711Y-74419660D01*
X144274036Y-74652636D01*
X144041060Y-75001312D01*
X143979900Y-75308782D01*
X143548100Y-75308782D01*
X143548100Y-75308781D01*
X143486940Y-75001311D01*
X143253964Y-74652636D01*
X142905288Y-74419660D01*
X142494000Y-74337849D01*
X142082711Y-74419660D01*
X141734036Y-74652636D01*
X141501060Y-75001312D01*
X141439900Y-75308782D01*
X141008100Y-75308782D01*
X141008100Y-75308781D01*
X140946940Y-75001311D01*
X140713964Y-74652636D01*
X140365288Y-74419660D01*
X139954000Y-74337849D01*
X139542711Y-74419660D01*
X139194036Y-74652636D01*
X138961060Y-75001312D01*
X138899900Y-75308782D01*
X138450528Y-75308782D01*
X138378141Y-74985747D01*
X138141401Y-74649278D01*
X137793920Y-74429018D01*
X137603937Y-74375753D01*
X137439400Y-74406446D01*
X137388600Y-74406446D01*
X137224063Y-74375753D01*
X137034080Y-74429018D01*
X136686599Y-74649278D01*
X136449859Y-74985747D01*
X136359900Y-75387200D01*
X135928100Y-75387200D01*
X135928100Y-75308781D01*
X135866940Y-75001311D01*
X135633964Y-74652636D01*
X135285288Y-74419660D01*
X134874000Y-74337849D01*
X134462711Y-74419660D01*
X134114036Y-74652636D01*
X133881060Y-75001312D01*
X133819900Y-75308782D01*
X133819900Y-75821219D01*
X133881060Y-76128689D01*
X134114037Y-76477364D01*
X134462712Y-76710340D01*
X134594600Y-76736574D01*
X134594601Y-78243268D01*
X134377270Y-78460600D01*
X126265512Y-78460600D01*
X126237999Y-78455127D01*
X126210486Y-78460600D01*
X126128984Y-78476812D01*
X126036564Y-78538564D01*
X126020977Y-78561892D01*
X124789893Y-79792977D01*
X124766565Y-79808564D01*
X124704813Y-79900984D01*
X124683127Y-80010000D01*
X124688601Y-80037518D01*
X124688600Y-82135729D01*
X124552175Y-82272154D01*
X124477500Y-82452434D01*
X124477500Y-82647566D01*
X124552175Y-82827846D01*
X124688600Y-82964271D01*
X124688600Y-83069268D01*
X124154893Y-83602977D01*
X124131565Y-83618564D01*
X124069813Y-83710984D01*
X124048127Y-83820000D01*
X124053601Y-83847518D01*
X124053600Y-95134269D01*
X121042270Y-98145600D01*
X120302271Y-98145600D01*
X120165846Y-98009175D01*
X119985566Y-97934500D01*
X119790434Y-97934500D01*
X119610154Y-98009175D01*
X119472175Y-98147154D01*
X119397500Y-98327434D01*
X119397500Y-98522566D01*
X119472175Y-98702846D01*
X119608600Y-98839271D01*
X119608601Y-104024268D01*
X118713370Y-104919500D01*
X118520434Y-104919500D01*
X118340154Y-104994175D01*
X118202175Y-105132154D01*
X118127500Y-105312434D01*
X116992400Y-105312434D01*
X116992400Y-99087514D01*
X116997873Y-99060000D01*
X116976188Y-98950984D01*
X116930021Y-98881889D01*
X116914436Y-98858564D01*
X116891111Y-98842979D01*
X116568500Y-98520369D01*
X116568500Y-98327434D01*
X116493825Y-98147154D01*
X116355846Y-98009175D01*
X116175566Y-97934500D01*
X115980434Y-97934500D01*
X115800154Y-98009175D01*
X115662175Y-98147154D01*
X115587500Y-98327434D01*
X111263500Y-98327434D01*
X111263500Y-92129238D01*
X111373571Y-92306008D01*
X111624522Y-92485607D01*
X111925100Y-92555500D01*
X112275100Y-92555500D01*
X112275100Y-91790400D01*
X112325900Y-91790400D01*
X112325900Y-92555500D01*
X112675900Y-92555500D01*
X112976478Y-92485607D01*
X113227429Y-92306008D01*
X113390548Y-92044045D01*
X113426891Y-91913685D01*
X113392941Y-91790400D01*
X112325900Y-91790400D01*
X112275100Y-91790400D01*
X112255100Y-91790400D01*
X112255100Y-91739600D01*
X112275100Y-91739600D01*
X112275100Y-90974500D01*
X112325900Y-90974500D01*
X112325900Y-91739600D01*
X113392941Y-91739600D01*
X113426891Y-91616315D01*
X113390548Y-91485955D01*
X113342671Y-91409066D01*
X114392355Y-91409066D01*
X114472592Y-91534816D01*
X114807373Y-91678239D01*
X115171555Y-91682629D01*
X115509695Y-91547320D01*
X115528408Y-91534816D01*
X115608645Y-91409066D01*
X115000500Y-90800921D01*
X114392355Y-91409066D01*
X113342671Y-91409066D01*
X113227429Y-91223992D01*
X112976478Y-91044393D01*
X112675900Y-90974500D01*
X112325900Y-90974500D01*
X112275100Y-90974500D01*
X111925100Y-90974500D01*
X111624522Y-91044393D01*
X111373571Y-91223992D01*
X111263500Y-91400762D01*
X111263500Y-90936055D01*
X114082871Y-90936055D01*
X114218180Y-91274195D01*
X114230684Y-91292908D01*
X114356434Y-91373145D01*
X114964579Y-90765000D01*
X115036421Y-90765000D01*
X115644566Y-91373145D01*
X115770316Y-91292908D01*
X115913739Y-90958127D01*
X115918129Y-90593945D01*
X115782820Y-90255805D01*
X115770316Y-90237092D01*
X115644566Y-90156855D01*
X115036421Y-90765000D01*
X114964579Y-90765000D01*
X114356434Y-90156855D01*
X114230684Y-90237092D01*
X114087261Y-90571873D01*
X114082871Y-90936055D01*
X111263500Y-90936055D01*
X111263500Y-90120934D01*
X114392355Y-90120934D01*
X115000500Y-90729079D01*
X115608645Y-90120934D01*
X115528408Y-89995184D01*
X115193627Y-89851761D01*
X114829445Y-89847371D01*
X114491305Y-89982680D01*
X114472592Y-89995184D01*
X114392355Y-90120934D01*
X111263500Y-90120934D01*
X111263500Y-86409066D01*
X114392355Y-86409066D01*
X114472592Y-86534816D01*
X114807373Y-86678239D01*
X115171555Y-86682629D01*
X115509695Y-86547320D01*
X115528408Y-86534816D01*
X115608645Y-86409066D01*
X115000500Y-85800921D01*
X114392355Y-86409066D01*
X111263500Y-86409066D01*
X111263500Y-85936055D01*
X114082871Y-85936055D01*
X114218180Y-86274195D01*
X114230684Y-86292908D01*
X114356434Y-86373145D01*
X114964579Y-85765000D01*
X115036421Y-85765000D01*
X115644566Y-86373145D01*
X115770316Y-86292908D01*
X115913739Y-85958127D01*
X115918129Y-85593945D01*
X115782820Y-85255805D01*
X115770316Y-85237092D01*
X115644566Y-85156855D01*
X115036421Y-85765000D01*
X114964579Y-85765000D01*
X114356434Y-85156855D01*
X114230684Y-85237092D01*
X114087261Y-85571873D01*
X114082871Y-85936055D01*
X111263500Y-85936055D01*
X111263500Y-85129238D01*
X111373571Y-85306008D01*
X111624522Y-85485607D01*
X111925100Y-85555500D01*
X112275100Y-85555500D01*
X112275100Y-84790400D01*
X112325900Y-84790400D01*
X112325900Y-85555500D01*
X112675900Y-85555500D01*
X112976478Y-85485607D01*
X113227429Y-85306008D01*
X113342670Y-85120934D01*
X114392355Y-85120934D01*
X115000500Y-85729079D01*
X115608645Y-85120934D01*
X115528408Y-84995184D01*
X115193627Y-84851761D01*
X114829445Y-84847371D01*
X114491305Y-84982680D01*
X114472592Y-84995184D01*
X114392355Y-85120934D01*
X113342670Y-85120934D01*
X113390548Y-85044045D01*
X113426891Y-84913685D01*
X113392941Y-84790400D01*
X112325900Y-84790400D01*
X112275100Y-84790400D01*
X112255100Y-84790400D01*
X112255100Y-84739600D01*
X112275100Y-84739600D01*
X112275100Y-83974500D01*
X112325900Y-83974500D01*
X112325900Y-84739600D01*
X113392941Y-84739600D01*
X113426891Y-84616315D01*
X113390548Y-84485955D01*
X113227429Y-84223992D01*
X112976478Y-84044393D01*
X112675900Y-83974500D01*
X112325900Y-83974500D01*
X112275100Y-83974500D01*
X111925100Y-83974500D01*
X111624522Y-84044393D01*
X111373571Y-84223992D01*
X111263500Y-84400762D01*
X111263500Y-79773195D01*
X112832500Y-79773195D01*
X112832500Y-80246805D01*
X113013743Y-80684364D01*
X113348636Y-81019257D01*
X113786195Y-81200500D01*
X114259805Y-81200500D01*
X114697364Y-81019257D01*
X115032257Y-80684364D01*
X115213500Y-80246805D01*
X115213500Y-79773195D01*
X119332500Y-79773195D01*
X119332500Y-80246805D01*
X119513743Y-80684364D01*
X119848636Y-81019257D01*
X120286195Y-81200500D01*
X120759805Y-81200500D01*
X121197364Y-81019257D01*
X121532257Y-80684364D01*
X121706378Y-80264000D01*
X122957791Y-80264000D01*
X123444000Y-80750211D01*
X123444001Y-94509788D01*
X123184412Y-94769378D01*
X123160566Y-94759500D01*
X122965434Y-94759500D01*
X122785154Y-94834175D01*
X122647175Y-94972154D01*
X122572500Y-95152434D01*
X122572500Y-95347566D01*
X122647175Y-95527846D01*
X122785154Y-95665825D01*
X122965434Y-95740500D01*
X123160566Y-95740500D01*
X123340846Y-95665825D01*
X123478825Y-95527846D01*
X123553500Y-95347566D01*
X123553500Y-95152434D01*
X123543622Y-95128588D01*
X123859917Y-94812294D01*
X123881124Y-94798124D01*
X123895296Y-94776915D01*
X123937263Y-94714106D01*
X123956976Y-94615000D01*
X123952000Y-94589983D01*
X123952000Y-80670017D01*
X123956976Y-80645000D01*
X123937263Y-80545894D01*
X123895295Y-80483084D01*
X123895294Y-80483083D01*
X123881124Y-80461876D01*
X123859917Y-80447706D01*
X123260298Y-79848089D01*
X123246124Y-79826876D01*
X123162106Y-79770737D01*
X123088017Y-79756000D01*
X123088016Y-79756000D01*
X123063000Y-79751024D01*
X123037984Y-79756000D01*
X121706378Y-79756000D01*
X121532257Y-79335636D01*
X121197364Y-79000743D01*
X120759805Y-78819500D01*
X120286195Y-78819500D01*
X119848636Y-79000743D01*
X119513743Y-79335636D01*
X119332500Y-79773195D01*
X115213500Y-79773195D01*
X115032257Y-79335636D01*
X114697364Y-79000743D01*
X114259805Y-78819500D01*
X113786195Y-78819500D01*
X113348636Y-79000743D01*
X113013743Y-79335636D01*
X112832500Y-79773195D01*
X111263500Y-79773195D01*
X111263500Y-76352391D01*
X113216530Y-76352391D01*
X113330238Y-76506718D01*
X113764399Y-76695956D01*
X114237929Y-76704643D01*
X114678739Y-76531456D01*
X114715762Y-76506718D01*
X114829470Y-76352391D01*
X119716530Y-76352391D01*
X119830238Y-76506718D01*
X120264399Y-76695956D01*
X120737929Y-76704643D01*
X121178739Y-76531456D01*
X121215762Y-76506718D01*
X121329470Y-76352391D01*
X120523000Y-75545921D01*
X119716530Y-76352391D01*
X114829470Y-76352391D01*
X114023000Y-75545921D01*
X113216530Y-76352391D01*
X111263500Y-76352391D01*
X111263500Y-75724929D01*
X112828357Y-75724929D01*
X113001544Y-76165739D01*
X113026282Y-76202762D01*
X113180609Y-76316470D01*
X113987079Y-75510000D01*
X114058921Y-75510000D01*
X114865391Y-76316470D01*
X115019718Y-76202762D01*
X115208956Y-75768601D01*
X115209757Y-75724929D01*
X119328357Y-75724929D01*
X119501544Y-76165739D01*
X119526282Y-76202762D01*
X119680609Y-76316470D01*
X120487079Y-75510000D01*
X120558921Y-75510000D01*
X121365391Y-76316470D01*
X121519718Y-76202762D01*
X121708956Y-75768601D01*
X121717643Y-75295071D01*
X121650007Y-75122917D01*
X124015500Y-75122917D01*
X124015500Y-76007083D01*
X124353856Y-76823945D01*
X124979055Y-77449144D01*
X125795917Y-77787500D01*
X126680083Y-77787500D01*
X127496945Y-77449144D01*
X128122144Y-76823945D01*
X128460500Y-76007083D01*
X128460500Y-75308782D01*
X128739900Y-75308782D01*
X128739900Y-75821219D01*
X128801060Y-76128689D01*
X129034037Y-76477364D01*
X129382712Y-76710340D01*
X129794000Y-76792151D01*
X130205289Y-76710340D01*
X130553964Y-76477364D01*
X130786940Y-76128688D01*
X130848100Y-75821218D01*
X130848100Y-75308782D01*
X131279900Y-75308782D01*
X131279900Y-75821219D01*
X131341060Y-76128689D01*
X131574037Y-76477364D01*
X131922712Y-76710340D01*
X132334000Y-76792151D01*
X132745289Y-76710340D01*
X133093964Y-76477364D01*
X133326940Y-76128688D01*
X133388100Y-75821218D01*
X133388100Y-75308781D01*
X133326940Y-75001311D01*
X133093964Y-74652636D01*
X132745288Y-74419660D01*
X132334000Y-74337849D01*
X131922711Y-74419660D01*
X131574036Y-74652636D01*
X131341060Y-75001312D01*
X131279900Y-75308782D01*
X130848100Y-75308782D01*
X130848100Y-75308781D01*
X130786940Y-75001311D01*
X130553964Y-74652636D01*
X130205288Y-74419660D01*
X129794000Y-74337849D01*
X129382711Y-74419660D01*
X129034036Y-74652636D01*
X128801060Y-75001312D01*
X128739900Y-75308782D01*
X128460500Y-75308782D01*
X128460500Y-75122917D01*
X128122144Y-74306055D01*
X127496945Y-73680856D01*
X126680083Y-73342500D01*
X125795917Y-73342500D01*
X124979055Y-73680856D01*
X124353856Y-74306055D01*
X124015500Y-75122917D01*
X121650007Y-75122917D01*
X121544456Y-74854261D01*
X121519718Y-74817238D01*
X121365391Y-74703530D01*
X120558921Y-75510000D01*
X120487079Y-75510000D01*
X119680609Y-74703530D01*
X119526282Y-74817238D01*
X119337044Y-75251399D01*
X119328357Y-75724929D01*
X115209757Y-75724929D01*
X115217643Y-75295071D01*
X115044456Y-74854261D01*
X115019718Y-74817238D01*
X114865391Y-74703530D01*
X114058921Y-75510000D01*
X113987079Y-75510000D01*
X113180609Y-74703530D01*
X113026282Y-74817238D01*
X112837044Y-75251399D01*
X112828357Y-75724929D01*
X111263500Y-75724929D01*
X111263500Y-74667609D01*
X113216530Y-74667609D01*
X114023000Y-75474079D01*
X114829470Y-74667609D01*
X119716530Y-74667609D01*
X120523000Y-75474079D01*
X121329470Y-74667609D01*
X121215762Y-74513282D01*
X120781601Y-74324044D01*
X120308071Y-74315357D01*
X119867261Y-74488544D01*
X119830238Y-74513282D01*
X119716530Y-74667609D01*
X114829470Y-74667609D01*
X114715762Y-74513282D01*
X114281601Y-74324044D01*
X113808071Y-74315357D01*
X113367261Y-74488544D01*
X113330238Y-74513282D01*
X113216530Y-74667609D01*
X111263500Y-74667609D01*
X111263500Y-73290500D01*
X175404027Y-73290500D01*
X176772501Y-74658975D01*
G36*
X173139091Y-117312028D02*
X173139090Y-124153779D01*
X172962550Y-124330319D01*
X173012100Y-124081218D01*
X173012100Y-123568781D01*
X172950940Y-123261311D01*
X172717964Y-122912636D01*
X172369288Y-122679660D01*
X171958000Y-122597849D01*
X171546711Y-122679660D01*
X171198036Y-122912636D01*
X170965060Y-123261312D01*
X170903900Y-123568782D01*
X170903900Y-124081219D01*
X170965060Y-124388689D01*
X171198037Y-124737364D01*
X171315126Y-124815600D01*
X170060875Y-124815600D01*
X170177964Y-124737364D01*
X170410940Y-124388688D01*
X170472100Y-124081218D01*
X170472100Y-123568781D01*
X170410940Y-123261311D01*
X170177964Y-122912636D01*
X169829288Y-122679660D01*
X169418000Y-122597849D01*
X169006711Y-122679660D01*
X168658036Y-122912636D01*
X168425060Y-123261312D01*
X168363900Y-123568782D01*
X168363900Y-124081219D01*
X168425060Y-124388689D01*
X168658037Y-124737364D01*
X168775126Y-124815600D01*
X167520875Y-124815600D01*
X167637964Y-124737364D01*
X167870940Y-124388688D01*
X167932100Y-124081218D01*
X167932100Y-123568781D01*
X167870940Y-123261311D01*
X167637964Y-122912636D01*
X167289288Y-122679660D01*
X166878000Y-122597849D01*
X166466711Y-122679660D01*
X166118036Y-122912636D01*
X165885060Y-123261312D01*
X165823900Y-123568782D01*
X165823900Y-124081219D01*
X165885060Y-124388689D01*
X166118037Y-124737364D01*
X166235126Y-124815600D01*
X164980875Y-124815600D01*
X165097964Y-124737364D01*
X165330940Y-124388688D01*
X165392100Y-124081218D01*
X165392100Y-123568781D01*
X165330940Y-123261311D01*
X165097964Y-122912636D01*
X164749288Y-122679660D01*
X164338000Y-122597849D01*
X163926711Y-122679660D01*
X163578036Y-122912636D01*
X163345060Y-123261312D01*
X163283900Y-123568782D01*
X163283900Y-124081219D01*
X163345060Y-124388689D01*
X163578037Y-124737364D01*
X163695126Y-124815600D01*
X162440875Y-124815600D01*
X162557964Y-124737364D01*
X162790940Y-124388688D01*
X162852100Y-124081218D01*
X162852100Y-123568781D01*
X162790940Y-123261311D01*
X162557964Y-122912636D01*
X162209288Y-122679660D01*
X161798000Y-122597849D01*
X161386711Y-122679660D01*
X161038036Y-122912636D01*
X160805060Y-123261312D01*
X160743900Y-123568782D01*
X160743900Y-124081219D01*
X160805060Y-124388689D01*
X161038037Y-124737364D01*
X161155126Y-124815600D01*
X157360875Y-124815600D01*
X157477964Y-124737364D01*
X157710940Y-124388688D01*
X157772100Y-124081218D01*
X157772100Y-123568781D01*
X157710940Y-123261311D01*
X157477964Y-122912636D01*
X157129288Y-122679660D01*
X156718000Y-122597849D01*
X156306711Y-122679660D01*
X155958036Y-122912636D01*
X155725060Y-123261312D01*
X155663900Y-123568782D01*
X155663900Y-124081219D01*
X155725060Y-124388689D01*
X155958037Y-124737364D01*
X156075126Y-124815600D01*
X154787274Y-124815600D01*
X154905401Y-124740722D01*
X155142141Y-124404253D01*
X155232100Y-124002800D01*
X155232100Y-123850400D01*
X154203400Y-123850400D01*
X154203400Y-123870400D01*
X154152600Y-123870400D01*
X154152600Y-123850400D01*
X153123900Y-123850400D01*
X153123900Y-124002800D01*
X153213859Y-124404253D01*
X153450599Y-124740722D01*
X153568726Y-124815600D01*
X152247274Y-124815600D01*
X152365401Y-124740722D01*
X152602141Y-124404253D01*
X152692100Y-124002800D01*
X152692100Y-123850400D01*
X151663400Y-123850400D01*
X151663400Y-123870400D01*
X151612600Y-123870400D01*
X151612600Y-123850400D01*
X150583900Y-123850400D01*
X150583900Y-124002800D01*
X150673859Y-124404253D01*
X150910599Y-124740722D01*
X151028726Y-124815600D01*
X150331331Y-124815600D01*
X150016230Y-124500500D01*
X150090940Y-124388688D01*
X150152100Y-124081218D01*
X150152100Y-123647200D01*
X150583900Y-123647200D01*
X150583900Y-123799600D01*
X151612600Y-123799600D01*
X151612600Y-122666446D01*
X151663400Y-122666446D01*
X151663400Y-123799600D01*
X152692100Y-123799600D01*
X152692100Y-123647200D01*
X153123900Y-123647200D01*
X153123900Y-123799600D01*
X154152600Y-123799600D01*
X154152600Y-122666446D01*
X154203400Y-122666446D01*
X154203400Y-123799600D01*
X155232100Y-123799600D01*
X155232100Y-123647200D01*
X155142141Y-123245747D01*
X154905401Y-122909278D01*
X154557920Y-122689018D01*
X154367937Y-122635753D01*
X154203400Y-122666446D01*
X154152600Y-122666446D01*
X153988063Y-122635753D01*
X153798080Y-122689018D01*
X153450599Y-122909278D01*
X153213859Y-123245747D01*
X153123900Y-123647200D01*
X152692100Y-123647200D01*
X152602141Y-123245747D01*
X152365401Y-122909278D01*
X152017920Y-122689018D01*
X151827937Y-122635753D01*
X151663400Y-122666446D01*
X151612600Y-122666446D01*
X151448063Y-122635753D01*
X151258080Y-122689018D01*
X150910599Y-122909278D01*
X150673859Y-123245747D01*
X150583900Y-123647200D01*
X150152100Y-123647200D01*
X150152100Y-123568781D01*
X150090940Y-123261311D01*
X149857964Y-122912636D01*
X149509288Y-122679660D01*
X149098000Y-122597849D01*
X148686711Y-122679660D01*
X148338036Y-122912636D01*
X148105060Y-123261312D01*
X148082000Y-123377242D01*
X148082000Y-122660209D01*
X148568211Y-122174000D01*
X171932984Y-122174000D01*
X171958000Y-122178976D01*
X171983016Y-122174000D01*
X171983017Y-122174000D01*
X172057106Y-122159263D01*
X172141124Y-122103124D01*
X172155298Y-122081911D01*
X172754917Y-121482294D01*
X172776124Y-121468124D01*
X172832263Y-121384106D01*
X172847000Y-121310017D01*
X172851976Y-121285000D01*
X172847000Y-121259983D01*
X172847000Y-117580209D01*
X173135124Y-117292085D01*
X173139091Y-117312028D01*
X173139091Y-117312028D01*
G37*
X173139091Y-117312028D02*
X173139090Y-124153779D01*
X172962550Y-124330319D01*
X173012100Y-124081218D01*
X173012100Y-123568781D01*
X172950940Y-123261311D01*
X172717964Y-122912636D01*
X172369288Y-122679660D01*
X171958000Y-122597849D01*
X171546711Y-122679660D01*
X171198036Y-122912636D01*
X170965060Y-123261312D01*
X170903900Y-123568782D01*
X170903900Y-124081219D01*
X170965060Y-124388689D01*
X171198037Y-124737364D01*
X171315126Y-124815600D01*
X170060875Y-124815600D01*
X170177964Y-124737364D01*
X170410940Y-124388688D01*
X170472100Y-124081218D01*
X170472100Y-123568781D01*
X170410940Y-123261311D01*
X170177964Y-122912636D01*
X169829288Y-122679660D01*
X169418000Y-122597849D01*
X169006711Y-122679660D01*
X168658036Y-122912636D01*
X168425060Y-123261312D01*
X168363900Y-123568782D01*
X168363900Y-124081219D01*
X168425060Y-124388689D01*
X168658037Y-124737364D01*
X168775126Y-124815600D01*
X167520875Y-124815600D01*
X167637964Y-124737364D01*
X167870940Y-124388688D01*
X167932100Y-124081218D01*
X167932100Y-123568781D01*
X167870940Y-123261311D01*
X167637964Y-122912636D01*
X167289288Y-122679660D01*
X166878000Y-122597849D01*
X166466711Y-122679660D01*
X166118036Y-122912636D01*
X165885060Y-123261312D01*
X165823900Y-123568782D01*
X165823900Y-124081219D01*
X165885060Y-124388689D01*
X166118037Y-124737364D01*
X166235126Y-124815600D01*
X164980875Y-124815600D01*
X165097964Y-124737364D01*
X165330940Y-124388688D01*
X165392100Y-124081218D01*
X165392100Y-123568781D01*
X165330940Y-123261311D01*
X165097964Y-122912636D01*
X164749288Y-122679660D01*
X164338000Y-122597849D01*
X163926711Y-122679660D01*
X163578036Y-122912636D01*
X163345060Y-123261312D01*
X163283900Y-123568782D01*
X163283900Y-124081219D01*
X163345060Y-124388689D01*
X163578037Y-124737364D01*
X163695126Y-124815600D01*
X162440875Y-124815600D01*
X162557964Y-124737364D01*
X162790940Y-124388688D01*
X162852100Y-124081218D01*
X162852100Y-123568781D01*
X162790940Y-123261311D01*
X162557964Y-122912636D01*
X162209288Y-122679660D01*
X161798000Y-122597849D01*
X161386711Y-122679660D01*
X161038036Y-122912636D01*
X160805060Y-123261312D01*
X160743900Y-123568782D01*
X160743900Y-124081219D01*
X160805060Y-124388689D01*
X161038037Y-124737364D01*
X161155126Y-124815600D01*
X157360875Y-124815600D01*
X157477964Y-124737364D01*
X157710940Y-124388688D01*
X157772100Y-124081218D01*
X157772100Y-123568781D01*
X157710940Y-123261311D01*
X157477964Y-122912636D01*
X157129288Y-122679660D01*
X156718000Y-122597849D01*
X156306711Y-122679660D01*
X155958036Y-122912636D01*
X155725060Y-123261312D01*
X155663900Y-123568782D01*
X155663900Y-124081219D01*
X155725060Y-124388689D01*
X155958037Y-124737364D01*
X156075126Y-124815600D01*
X154787274Y-124815600D01*
X154905401Y-124740722D01*
X155142141Y-124404253D01*
X155232100Y-124002800D01*
X155232100Y-123850400D01*
X154203400Y-123850400D01*
X154203400Y-123870400D01*
X154152600Y-123870400D01*
X154152600Y-123850400D01*
X153123900Y-123850400D01*
X153123900Y-124002800D01*
X153213859Y-124404253D01*
X153450599Y-124740722D01*
X153568726Y-124815600D01*
X152247274Y-124815600D01*
X152365401Y-124740722D01*
X152602141Y-124404253D01*
X152692100Y-124002800D01*
X152692100Y-123850400D01*
X151663400Y-123850400D01*
X151663400Y-123870400D01*
X151612600Y-123870400D01*
X151612600Y-123850400D01*
X150583900Y-123850400D01*
X150583900Y-124002800D01*
X150673859Y-124404253D01*
X150910599Y-124740722D01*
X151028726Y-124815600D01*
X150331331Y-124815600D01*
X150016230Y-124500500D01*
X150090940Y-124388688D01*
X150152100Y-124081218D01*
X150152100Y-123647200D01*
X150583900Y-123647200D01*
X150583900Y-123799600D01*
X151612600Y-123799600D01*
X151612600Y-122666446D01*
X151663400Y-122666446D01*
X151663400Y-123799600D01*
X152692100Y-123799600D01*
X152692100Y-123647200D01*
X153123900Y-123647200D01*
X153123900Y-123799600D01*
X154152600Y-123799600D01*
X154152600Y-122666446D01*
X154203400Y-122666446D01*
X154203400Y-123799600D01*
X155232100Y-123799600D01*
X155232100Y-123647200D01*
X155142141Y-123245747D01*
X154905401Y-122909278D01*
X154557920Y-122689018D01*
X154367937Y-122635753D01*
X154203400Y-122666446D01*
X154152600Y-122666446D01*
X153988063Y-122635753D01*
X153798080Y-122689018D01*
X153450599Y-122909278D01*
X153213859Y-123245747D01*
X153123900Y-123647200D01*
X152692100Y-123647200D01*
X152602141Y-123245747D01*
X152365401Y-122909278D01*
X152017920Y-122689018D01*
X151827937Y-122635753D01*
X151663400Y-122666446D01*
X151612600Y-122666446D01*
X151448063Y-122635753D01*
X151258080Y-122689018D01*
X150910599Y-122909278D01*
X150673859Y-123245747D01*
X150583900Y-123647200D01*
X150152100Y-123647200D01*
X150152100Y-123568781D01*
X150090940Y-123261311D01*
X149857964Y-122912636D01*
X149509288Y-122679660D01*
X149098000Y-122597849D01*
X148686711Y-122679660D01*
X148338036Y-122912636D01*
X148105060Y-123261312D01*
X148082000Y-123377242D01*
X148082000Y-122660209D01*
X148568211Y-122174000D01*
X171932984Y-122174000D01*
X171958000Y-122178976D01*
X171983016Y-122174000D01*
X171983017Y-122174000D01*
X172057106Y-122159263D01*
X172141124Y-122103124D01*
X172155298Y-122081911D01*
X172754917Y-121482294D01*
X172776124Y-121468124D01*
X172832263Y-121384106D01*
X172847000Y-121310017D01*
X172851976Y-121285000D01*
X172847000Y-121259983D01*
X172847000Y-117580209D01*
X173135124Y-117292085D01*
X173139091Y-117312028D01*
G36*
X131040154Y-98205825D02*
X131220434Y-98280500D01*
X131415566Y-98280500D01*
X131595846Y-98205825D01*
X131732271Y-98069400D01*
X132472270Y-98069400D01*
X135907500Y-101504632D01*
X135907500Y-101697566D01*
X135982175Y-101877846D01*
X136120154Y-102015825D01*
X136300434Y-102090500D01*
X136493370Y-102090500D01*
X137450977Y-103048108D01*
X137466564Y-103071436D01*
X137558984Y-103133188D01*
X137640486Y-103149400D01*
X137667999Y-103154873D01*
X137695512Y-103149400D01*
X141402270Y-103149400D01*
X142268572Y-104015704D01*
X142257500Y-104042434D01*
X142257500Y-104237566D01*
X142332175Y-104417846D01*
X142468601Y-104554272D01*
X142468600Y-106265729D01*
X142332175Y-106402154D01*
X142257500Y-106582434D01*
X142257500Y-106777566D01*
X142332175Y-106957846D01*
X142468600Y-107094271D01*
X142468600Y-107287487D01*
X142463127Y-107315000D01*
X142468600Y-107342513D01*
X142484812Y-107424015D01*
X142546564Y-107516436D01*
X142569895Y-107532025D01*
X143165979Y-108128111D01*
X143181564Y-108151436D01*
X143204888Y-108167020D01*
X143204889Y-108167021D01*
X143273984Y-108213188D01*
X143383000Y-108234873D01*
X143410514Y-108229400D01*
X152493729Y-108229400D01*
X152595329Y-108331000D01*
X142425671Y-108331000D01*
X142528825Y-108227846D01*
X142603500Y-108047566D01*
X142603500Y-107852434D01*
X142528825Y-107672154D01*
X142390846Y-107534175D01*
X142210566Y-107459500D01*
X142015434Y-107459500D01*
X141835154Y-107534175D01*
X141697175Y-107672154D01*
X141687298Y-107696000D01*
X130995671Y-107696000D01*
X131098825Y-107592846D01*
X131173500Y-107412566D01*
X131173500Y-107217434D01*
X131140312Y-107137312D01*
X131220434Y-107170500D01*
X131415566Y-107170500D01*
X131595846Y-107095825D01*
X131733825Y-106957846D01*
X131808500Y-106777566D01*
X131808500Y-106582434D01*
X131733825Y-106402154D01*
X131595846Y-106264175D01*
X131415566Y-106189500D01*
X131220434Y-106189500D01*
X131196587Y-106199378D01*
X130302000Y-105304791D01*
X130302000Y-104165017D01*
X130306976Y-104140000D01*
X130301504Y-104112487D01*
X130287263Y-104040894D01*
X130231124Y-103956876D01*
X130209914Y-103942704D01*
X128397000Y-102129791D01*
X128397000Y-99720017D01*
X128401976Y-99695000D01*
X128382263Y-99595894D01*
X128340295Y-99533084D01*
X128340294Y-99533083D01*
X128326124Y-99511876D01*
X128304917Y-99497706D01*
X127988622Y-99181412D01*
X127998500Y-99157566D01*
X127998500Y-98962434D01*
X127923825Y-98782154D01*
X127785846Y-98644175D01*
X127605566Y-98569500D01*
X127410434Y-98569500D01*
X127230154Y-98644175D01*
X127152400Y-98721929D01*
X127152400Y-98069400D01*
X130903729Y-98069400D01*
X131040154Y-98205825D01*
X131040154Y-98205825D01*
G37*
X131040154Y-98205825D02*
X131220434Y-98280500D01*
X131415566Y-98280500D01*
X131595846Y-98205825D01*
X131732271Y-98069400D01*
X132472270Y-98069400D01*
X135907500Y-101504632D01*
X135907500Y-101697566D01*
X135982175Y-101877846D01*
X136120154Y-102015825D01*
X136300434Y-102090500D01*
X136493370Y-102090500D01*
X137450977Y-103048108D01*
X137466564Y-103071436D01*
X137558984Y-103133188D01*
X137640486Y-103149400D01*
X137667999Y-103154873D01*
X137695512Y-103149400D01*
X141402270Y-103149400D01*
X142268572Y-104015704D01*
X142257500Y-104042434D01*
X142257500Y-104237566D01*
X142332175Y-104417846D01*
X142468601Y-104554272D01*
X142468600Y-106265729D01*
X142332175Y-106402154D01*
X142257500Y-106582434D01*
X142257500Y-106777566D01*
X142332175Y-106957846D01*
X142468600Y-107094271D01*
X142468600Y-107287487D01*
X142463127Y-107315000D01*
X142468600Y-107342513D01*
X142484812Y-107424015D01*
X142546564Y-107516436D01*
X142569895Y-107532025D01*
X143165979Y-108128111D01*
X143181564Y-108151436D01*
X143204888Y-108167020D01*
X143204889Y-108167021D01*
X143273984Y-108213188D01*
X143383000Y-108234873D01*
X143410514Y-108229400D01*
X152493729Y-108229400D01*
X152595329Y-108331000D01*
X142425671Y-108331000D01*
X142528825Y-108227846D01*
X142603500Y-108047566D01*
X142603500Y-107852434D01*
X142528825Y-107672154D01*
X142390846Y-107534175D01*
X142210566Y-107459500D01*
X142015434Y-107459500D01*
X141835154Y-107534175D01*
X141697175Y-107672154D01*
X141687298Y-107696000D01*
X130995671Y-107696000D01*
X131098825Y-107592846D01*
X131173500Y-107412566D01*
X131173500Y-107217434D01*
X131140312Y-107137312D01*
X131220434Y-107170500D01*
X131415566Y-107170500D01*
X131595846Y-107095825D01*
X131733825Y-106957846D01*
X131808500Y-106777566D01*
X131808500Y-106582434D01*
X131733825Y-106402154D01*
X131595846Y-106264175D01*
X131415566Y-106189500D01*
X131220434Y-106189500D01*
X131196587Y-106199378D01*
X130302000Y-105304791D01*
X130302000Y-104165017D01*
X130306976Y-104140000D01*
X130301504Y-104112487D01*
X130287263Y-104040894D01*
X130231124Y-103956876D01*
X130209914Y-103942704D01*
X128397000Y-102129791D01*
X128397000Y-99720017D01*
X128401976Y-99695000D01*
X128382263Y-99595894D01*
X128340295Y-99533084D01*
X128340294Y-99533083D01*
X128326124Y-99511876D01*
X128304917Y-99497706D01*
X127988622Y-99181412D01*
X127998500Y-99157566D01*
X127998500Y-98962434D01*
X127923825Y-98782154D01*
X127785846Y-98644175D01*
X127605566Y-98569500D01*
X127410434Y-98569500D01*
X127230154Y-98644175D01*
X127152400Y-98721929D01*
X127152400Y-98069400D01*
X130903729Y-98069400D01*
X131040154Y-98205825D01*
G36*
X146280154Y-105190825D02*
X146460434Y-105265500D01*
X146655566Y-105265500D01*
X146735688Y-105232312D01*
X146702500Y-105312434D01*
X146702500Y-105507566D01*
X146777175Y-105687846D01*
X146915154Y-105825825D01*
X147095434Y-105900500D01*
X147290566Y-105900500D01*
X147470846Y-105825825D01*
X147608825Y-105687846D01*
X147683500Y-105507566D01*
X147683500Y-105312434D01*
X147650312Y-105232312D01*
X147730434Y-105265500D01*
X147925566Y-105265500D01*
X148005688Y-105232312D01*
X147972500Y-105312434D01*
X147972500Y-105507566D01*
X148047175Y-105687846D01*
X148185154Y-105825825D01*
X148365434Y-105900500D01*
X148560566Y-105900500D01*
X148740846Y-105825825D01*
X148878825Y-105687846D01*
X148953500Y-105507566D01*
X148953500Y-105312434D01*
X148920312Y-105232312D01*
X149000434Y-105265500D01*
X149195566Y-105265500D01*
X149275688Y-105232312D01*
X149242500Y-105312434D01*
X149242500Y-105507566D01*
X149317175Y-105687846D01*
X149455154Y-105825825D01*
X149635434Y-105900500D01*
X149830566Y-105900500D01*
X150010846Y-105825825D01*
X150148825Y-105687846D01*
X150223500Y-105507566D01*
X150223500Y-105312434D01*
X150190312Y-105232312D01*
X150270434Y-105265500D01*
X150465566Y-105265500D01*
X150545688Y-105232312D01*
X150512500Y-105312434D01*
X150512500Y-105507566D01*
X150587175Y-105687846D01*
X150725154Y-105825825D01*
X150905434Y-105900500D01*
X151100566Y-105900500D01*
X151280846Y-105825825D01*
X151418825Y-105687846D01*
X151493500Y-105507566D01*
X151493500Y-105312434D01*
X151460312Y-105232312D01*
X151540434Y-105265500D01*
X151735566Y-105265500D01*
X151815688Y-105232312D01*
X151782500Y-105312434D01*
X151782500Y-105507566D01*
X151857175Y-105687846D01*
X151995154Y-105825825D01*
X152175434Y-105900500D01*
X152370566Y-105900500D01*
X152550846Y-105825825D01*
X152688825Y-105687846D01*
X152763500Y-105507566D01*
X152763500Y-105312434D01*
X152730312Y-105232312D01*
X152810434Y-105265500D01*
X153005566Y-105265500D01*
X153085688Y-105232312D01*
X153052500Y-105312434D01*
X153052500Y-105507566D01*
X153127175Y-105687846D01*
X153265154Y-105825825D01*
X153445434Y-105900500D01*
X153640566Y-105900500D01*
X153820846Y-105825825D01*
X153958825Y-105687846D01*
X154019001Y-105542570D01*
X154019001Y-107205731D01*
X153390826Y-107833907D01*
X153323825Y-107672154D01*
X153185846Y-107534175D01*
X153005566Y-107459500D01*
X152810434Y-107459500D01*
X152780392Y-107471944D01*
X152792836Y-107441902D01*
X152792836Y-107246770D01*
X152718161Y-107066490D01*
X152580182Y-106928511D01*
X152399902Y-106853836D01*
X152204770Y-106853836D01*
X152024490Y-106928511D01*
X151888065Y-107064936D01*
X146703067Y-107064936D01*
X146202400Y-106564270D01*
X146202400Y-105113071D01*
X146280154Y-105190825D01*
X146280154Y-105190825D01*
G37*
X146280154Y-105190825D02*
X146460434Y-105265500D01*
X146655566Y-105265500D01*
X146735688Y-105232312D01*
X146702500Y-105312434D01*
X146702500Y-105507566D01*
X146777175Y-105687846D01*
X146915154Y-105825825D01*
X147095434Y-105900500D01*
X147290566Y-105900500D01*
X147470846Y-105825825D01*
X147608825Y-105687846D01*
X147683500Y-105507566D01*
X147683500Y-105312434D01*
X147650312Y-105232312D01*
X147730434Y-105265500D01*
X147925566Y-105265500D01*
X148005688Y-105232312D01*
X147972500Y-105312434D01*
X147972500Y-105507566D01*
X148047175Y-105687846D01*
X148185154Y-105825825D01*
X148365434Y-105900500D01*
X148560566Y-105900500D01*
X148740846Y-105825825D01*
X148878825Y-105687846D01*
X148953500Y-105507566D01*
X148953500Y-105312434D01*
X148920312Y-105232312D01*
X149000434Y-105265500D01*
X149195566Y-105265500D01*
X149275688Y-105232312D01*
X149242500Y-105312434D01*
X149242500Y-105507566D01*
X149317175Y-105687846D01*
X149455154Y-105825825D01*
X149635434Y-105900500D01*
X149830566Y-105900500D01*
X150010846Y-105825825D01*
X150148825Y-105687846D01*
X150223500Y-105507566D01*
X150223500Y-105312434D01*
X150190312Y-105232312D01*
X150270434Y-105265500D01*
X150465566Y-105265500D01*
X150545688Y-105232312D01*
X150512500Y-105312434D01*
X150512500Y-105507566D01*
X150587175Y-105687846D01*
X150725154Y-105825825D01*
X150905434Y-105900500D01*
X151100566Y-105900500D01*
X151280846Y-105825825D01*
X151418825Y-105687846D01*
X151493500Y-105507566D01*
X151493500Y-105312434D01*
X151460312Y-105232312D01*
X151540434Y-105265500D01*
X151735566Y-105265500D01*
X151815688Y-105232312D01*
X151782500Y-105312434D01*
X151782500Y-105507566D01*
X151857175Y-105687846D01*
X151995154Y-105825825D01*
X152175434Y-105900500D01*
X152370566Y-105900500D01*
X152550846Y-105825825D01*
X152688825Y-105687846D01*
X152763500Y-105507566D01*
X152763500Y-105312434D01*
X152730312Y-105232312D01*
X152810434Y-105265500D01*
X153005566Y-105265500D01*
X153085688Y-105232312D01*
X153052500Y-105312434D01*
X153052500Y-105507566D01*
X153127175Y-105687846D01*
X153265154Y-105825825D01*
X153445434Y-105900500D01*
X153640566Y-105900500D01*
X153820846Y-105825825D01*
X153958825Y-105687846D01*
X154019001Y-105542570D01*
X154019001Y-107205731D01*
X153390826Y-107833907D01*
X153323825Y-107672154D01*
X153185846Y-107534175D01*
X153005566Y-107459500D01*
X152810434Y-107459500D01*
X152780392Y-107471944D01*
X152792836Y-107441902D01*
X152792836Y-107246770D01*
X152718161Y-107066490D01*
X152580182Y-106928511D01*
X152399902Y-106853836D01*
X152204770Y-106853836D01*
X152024490Y-106928511D01*
X151888065Y-107064936D01*
X146703067Y-107064936D01*
X146202400Y-106564270D01*
X146202400Y-105113071D01*
X146280154Y-105190825D01*
G36*
X146304001Y-101705211D02*
X146304001Y-102557330D01*
X146200846Y-102454175D01*
X146020566Y-102379500D01*
X145825434Y-102379500D01*
X145645154Y-102454175D01*
X145507175Y-102592154D01*
X145432500Y-102772434D01*
X145432500Y-102967566D01*
X145507175Y-103147846D01*
X145643601Y-103284272D01*
X145643600Y-106652486D01*
X145638127Y-106680000D01*
X145643600Y-106707513D01*
X145659812Y-106789015D01*
X145721564Y-106881436D01*
X145744895Y-106897025D01*
X146370313Y-107522444D01*
X146385900Y-107545772D01*
X146478320Y-107607524D01*
X146559822Y-107623736D01*
X146559823Y-107623736D01*
X146587336Y-107629209D01*
X146614849Y-107623736D01*
X151888065Y-107623736D01*
X151934929Y-107670600D01*
X143498732Y-107670600D01*
X143027400Y-107199270D01*
X143027400Y-107094271D01*
X143163825Y-106957846D01*
X143238500Y-106777566D01*
X143238500Y-106582434D01*
X143163825Y-106402154D01*
X143027400Y-106265729D01*
X143027400Y-104554271D01*
X143163825Y-104417846D01*
X143238500Y-104237566D01*
X143238500Y-104042434D01*
X143163825Y-103862154D01*
X143025846Y-103724175D01*
X142845566Y-103649500D01*
X142692632Y-103649500D01*
X141735025Y-102691895D01*
X141719436Y-102668564D01*
X141627016Y-102606812D01*
X141545514Y-102590600D01*
X141545513Y-102590600D01*
X141518000Y-102585127D01*
X141490487Y-102590600D01*
X137783731Y-102590600D01*
X136888500Y-101695370D01*
X136888500Y-101502434D01*
X136813825Y-101322154D01*
X136675846Y-101184175D01*
X136495566Y-101109500D01*
X136302632Y-101109500D01*
X135778937Y-100585806D01*
X135788014Y-100584000D01*
X145182791Y-100584000D01*
X146304001Y-101705211D01*
X146304001Y-101705211D01*
G37*
X146304001Y-101705211D02*
X146304001Y-102557330D01*
X146200846Y-102454175D01*
X146020566Y-102379500D01*
X145825434Y-102379500D01*
X145645154Y-102454175D01*
X145507175Y-102592154D01*
X145432500Y-102772434D01*
X145432500Y-102967566D01*
X145507175Y-103147846D01*
X145643601Y-103284272D01*
X145643600Y-106652486D01*
X145638127Y-106680000D01*
X145643600Y-106707513D01*
X145659812Y-106789015D01*
X145721564Y-106881436D01*
X145744895Y-106897025D01*
X146370313Y-107522444D01*
X146385900Y-107545772D01*
X146478320Y-107607524D01*
X146559822Y-107623736D01*
X146559823Y-107623736D01*
X146587336Y-107629209D01*
X146614849Y-107623736D01*
X151888065Y-107623736D01*
X151934929Y-107670600D01*
X143498732Y-107670600D01*
X143027400Y-107199270D01*
X143027400Y-107094271D01*
X143163825Y-106957846D01*
X143238500Y-106777566D01*
X143238500Y-106582434D01*
X143163825Y-106402154D01*
X143027400Y-106265729D01*
X143027400Y-104554271D01*
X143163825Y-104417846D01*
X143238500Y-104237566D01*
X143238500Y-104042434D01*
X143163825Y-103862154D01*
X143025846Y-103724175D01*
X142845566Y-103649500D01*
X142692632Y-103649500D01*
X141735025Y-102691895D01*
X141719436Y-102668564D01*
X141627016Y-102606812D01*
X141545514Y-102590600D01*
X141545513Y-102590600D01*
X141518000Y-102585127D01*
X141490487Y-102590600D01*
X137783731Y-102590600D01*
X136888500Y-101695370D01*
X136888500Y-101502434D01*
X136813825Y-101322154D01*
X136675846Y-101184175D01*
X136495566Y-101109500D01*
X136302632Y-101109500D01*
X135778937Y-100585806D01*
X135788014Y-100584000D01*
X145182791Y-100584000D01*
X146304001Y-101705211D01*
G36*
X126593601Y-97905732D02*
X126593600Y-101820729D01*
X126457175Y-101957154D01*
X126382500Y-102137434D01*
X126382500Y-102332566D01*
X126457175Y-102512846D01*
X126595154Y-102650825D01*
X126775434Y-102725500D01*
X126968370Y-102725500D01*
X128498600Y-104255732D01*
X128498600Y-104436929D01*
X128420846Y-104359175D01*
X128240566Y-104284500D01*
X128045434Y-104284500D01*
X128021587Y-104294378D01*
X127070298Y-103343089D01*
X127056124Y-103321876D01*
X126972106Y-103265737D01*
X126898017Y-103251000D01*
X126898016Y-103251000D01*
X126873000Y-103246024D01*
X126847984Y-103251000D01*
X124758702Y-103251000D01*
X124748825Y-103227154D01*
X124610846Y-103089175D01*
X124430566Y-103014500D01*
X124235434Y-103014500D01*
X124055154Y-103089175D01*
X123952000Y-103192329D01*
X123952000Y-97260209D01*
X124211588Y-97000622D01*
X124235434Y-97010500D01*
X124430566Y-97010500D01*
X124610846Y-96935825D01*
X124748825Y-96797846D01*
X124823500Y-96617566D01*
X124823500Y-96422434D01*
X124748825Y-96242154D01*
X124610846Y-96104175D01*
X124430566Y-96029500D01*
X124235434Y-96029500D01*
X124055154Y-96104175D01*
X123917175Y-96242154D01*
X123842500Y-96422434D01*
X123842500Y-96617566D01*
X123852378Y-96641412D01*
X123536089Y-96957702D01*
X123514876Y-96971876D01*
X123489069Y-97010500D01*
X123458737Y-97055895D01*
X123439024Y-97155000D01*
X123444000Y-97180016D01*
X123444001Y-105384979D01*
X123439024Y-105410000D01*
X123458737Y-105509105D01*
X123477965Y-105537881D01*
X123514877Y-105593124D01*
X123536087Y-105607296D01*
X124135705Y-106206916D01*
X124149876Y-106228124D01*
X124171083Y-106242294D01*
X124171084Y-106242295D01*
X124233894Y-106284263D01*
X124333000Y-106303976D01*
X124358017Y-106299000D01*
X128465329Y-106299000D01*
X128362175Y-106402154D01*
X128352298Y-106426000D01*
X122533210Y-106426000D01*
X120777000Y-104669791D01*
X120777000Y-99485702D01*
X120800846Y-99475825D01*
X120938825Y-99337846D01*
X121013500Y-99157566D01*
X121013500Y-98962434D01*
X120938825Y-98782154D01*
X120861071Y-98704400D01*
X121130487Y-98704400D01*
X121158000Y-98709873D01*
X121185513Y-98704400D01*
X121185514Y-98704400D01*
X121267016Y-98688188D01*
X121359436Y-98626436D01*
X121375025Y-98603105D01*
X124333000Y-95645131D01*
X126593601Y-97905732D01*
X126593601Y-97905732D01*
G37*
X126593601Y-97905732D02*
X126593600Y-101820729D01*
X126457175Y-101957154D01*
X126382500Y-102137434D01*
X126382500Y-102332566D01*
X126457175Y-102512846D01*
X126595154Y-102650825D01*
X126775434Y-102725500D01*
X126968370Y-102725500D01*
X128498600Y-104255732D01*
X128498600Y-104436929D01*
X128420846Y-104359175D01*
X128240566Y-104284500D01*
X128045434Y-104284500D01*
X128021587Y-104294378D01*
X127070298Y-103343089D01*
X127056124Y-103321876D01*
X126972106Y-103265737D01*
X126898017Y-103251000D01*
X126898016Y-103251000D01*
X126873000Y-103246024D01*
X126847984Y-103251000D01*
X124758702Y-103251000D01*
X124748825Y-103227154D01*
X124610846Y-103089175D01*
X124430566Y-103014500D01*
X124235434Y-103014500D01*
X124055154Y-103089175D01*
X123952000Y-103192329D01*
X123952000Y-97260209D01*
X124211588Y-97000622D01*
X124235434Y-97010500D01*
X124430566Y-97010500D01*
X124610846Y-96935825D01*
X124748825Y-96797846D01*
X124823500Y-96617566D01*
X124823500Y-96422434D01*
X124748825Y-96242154D01*
X124610846Y-96104175D01*
X124430566Y-96029500D01*
X124235434Y-96029500D01*
X124055154Y-96104175D01*
X123917175Y-96242154D01*
X123842500Y-96422434D01*
X123842500Y-96617566D01*
X123852378Y-96641412D01*
X123536089Y-96957702D01*
X123514876Y-96971876D01*
X123489069Y-97010500D01*
X123458737Y-97055895D01*
X123439024Y-97155000D01*
X123444000Y-97180016D01*
X123444001Y-105384979D01*
X123439024Y-105410000D01*
X123458737Y-105509105D01*
X123477965Y-105537881D01*
X123514877Y-105593124D01*
X123536087Y-105607296D01*
X124135705Y-106206916D01*
X124149876Y-106228124D01*
X124171083Y-106242294D01*
X124171084Y-106242295D01*
X124233894Y-106284263D01*
X124333000Y-106303976D01*
X124358017Y-106299000D01*
X128465329Y-106299000D01*
X128362175Y-106402154D01*
X128352298Y-106426000D01*
X122533210Y-106426000D01*
X120777000Y-104669791D01*
X120777000Y-99485702D01*
X120800846Y-99475825D01*
X120938825Y-99337846D01*
X121013500Y-99157566D01*
X121013500Y-98962434D01*
X120938825Y-98782154D01*
X120861071Y-98704400D01*
X121130487Y-98704400D01*
X121158000Y-98709873D01*
X121185513Y-98704400D01*
X121185514Y-98704400D01*
X121267016Y-98688188D01*
X121359436Y-98626436D01*
X121375025Y-98603105D01*
X124333000Y-95645131D01*
X126593601Y-97905732D01*
G36*
X127662378Y-104653587D02*
X127652500Y-104677434D01*
X127652500Y-104872566D01*
X127727175Y-105052846D01*
X127865154Y-105190825D01*
X128045434Y-105265500D01*
X128240566Y-105265500D01*
X128320688Y-105232312D01*
X128287500Y-105312434D01*
X128287500Y-105507566D01*
X128362175Y-105687846D01*
X128465329Y-105791000D01*
X124438211Y-105791000D01*
X123952000Y-105304791D01*
X123952000Y-103817671D01*
X124055154Y-103920825D01*
X124235434Y-103995500D01*
X124430566Y-103995500D01*
X124610846Y-103920825D01*
X124748825Y-103782846D01*
X124758702Y-103759000D01*
X126767791Y-103759000D01*
X127662378Y-104653587D01*
X127662378Y-104653587D01*
G37*
X127662378Y-104653587D02*
X127652500Y-104677434D01*
X127652500Y-104872566D01*
X127727175Y-105052846D01*
X127865154Y-105190825D01*
X128045434Y-105265500D01*
X128240566Y-105265500D01*
X128320688Y-105232312D01*
X128287500Y-105312434D01*
X128287500Y-105507566D01*
X128362175Y-105687846D01*
X128465329Y-105791000D01*
X124438211Y-105791000D01*
X123952000Y-105304791D01*
X123952000Y-103817671D01*
X124055154Y-103920825D01*
X124235434Y-103995500D01*
X124430566Y-103995500D01*
X124610846Y-103920825D01*
X124748825Y-103782846D01*
X124758702Y-103759000D01*
X126767791Y-103759000D01*
X127662378Y-104653587D01*
G04 #@! TD*
M02*
